{
.appVersion = 944;
copyright = "Copyright 2017 Google Inc. All Rights Reserved.";
customParameters = (
{
name = licenseURL;
value = "http://scripts.sil.org/OFL";
},
{
name = description;
value = "Designed by Monotype design team.\012";
},
{
name = trademark;
value = "Noto is a trademark of Google Inc.";
},
{
name = license;
value = "This Font Software is licensed under the SIL Open Font License, Version 1.1. This Font Software is distributed on an \"AS IS\" BASIS, WITHOUT WARRANTIES OR CONDITIONS OF ANY KIND, either express or implied. See the SIL Open Font License for the specific language, permissions and limitations governing your use of this Font Software.";
},
{
name = vendorID;
value = GOOG;
},
{
name = fsType;
value = (
);
},
{
name = glyphOrder;
value = (
.notdef,
NULL,
CR,
uni0020,
uni0021,
uni0026,
uni0028,
uni0029,
uni002C,
uni002D,
uni002E,
uni003A,
uni005B,
uni005D,
uni2018,
uni2019,
uni201C,
uni201D,
uni204F,
uni2E28,
uni2E29,
uni2E2E,
uni2E41,
uni061F,
uni00A0,
Alif_adlam,
Daali_adlam,
Laam_adlam,
Miim_adlam,
Ba_adlam,
Sinnyiiyhe_adlam,
Pe_adlam,
Bhe_adlam,
Ra_adlam,
E_adlam,
Fa_adlam,
I_adlam,
O_adlam,
Dha_adlam,
Yhe_adlam,
Waw_adlam,
Nun_adlam,
Kaf_adlam,
Ya_adlam,
U_adlam,
Jiim_adlam,
Chi_adlam,
Ha_adlam,
Qaaf_adlam,
Ga_adlam,
Nya_adlam,
Tu_adlam,
Nha_adlam,
Va_adlam,
Kha_adlam,
Gbe_adlam,
Zal_adlam,
Kpo_adlam,
Sha_adlam,
alif_adlam,
daali_adlam,
laam_adlam,
miim_adlam,
ba_adlam,
sinnyiiyhe_adlam,
pe_adlam,
bhe_adlam,
ra_adlam,
e_adlam,
fa_adlam,
i_adlam,
o_adlam,
dha_adlam,
yhe_adlam,
waw_adlam,
nun_adlam,
kaf_adlam,
ya_adlam,
u_adlam,
jiim_adlam,
chi_adlam,
ha_adlam,
qaaf_adlam,
ga_adlam,
nya_adlam,
tu_adlam,
nha_adlam,
va_adlam,
kha_adlam,
gbe_adlam,
zal_adlam,
kpo_adlam,
sha_adlam,
aliflengthener_adlam,
vowellengthener_adlam,
vowellengthener_adlam.alt,
geminationmark_adlam,
hamza_adlam,
consonantmod_adlam,
geminateconsonantmod_adlam,
nukta_adlam,
nuktabelow_adlam,
zero_adlam,
one_adlam,
two_adlam,
three_adlam,
four_adlam,
five_adlam,

glyphs = (
{
glyphname = .notdef;
lastChange = "2017-01-05 17:36:54 +0000";
layers = (
{
layerId = "E766B743-DB28-463C-9986-895181A4C6C0";
paths = (
{
closed = 1;
nodes = (
"492 0 LINE",
"492 714 LINE",
"107 714 LINE",
"107 0 LINE"
);
},
{
closed = 1;
nodes = (
"131 690 LINE",
"468 690 LINE",
"468 24 LINE",
"131 24 LINE"
);
}
);
width = 600;
}
);
},
{
glyphname = uni0021;
lastChange = "2017-01-05 17:36:54 +0000";
layers = (
{
hints = (
{
place = "{64, 124}";
},
{
place = "{85, 82}";
},
{
horizontal = 1;
place = "{-14, 135}";
},
{
horizontal = 1;
place = "{-14, 21}";
target = up;
type = BottomGhost;
},
{
horizontal = 1;
place = "{714, -20}";
target = down;
type = TopGhost;
}
);
layerId = "E766B743-DB28-463C-9986-895181A4C6C0";
paths = (
{
closed = 1;
nodes = (
"202 653 LINE SMOOTH",
"202 722 OFFCURVE",
"188 735 OFFCURVE",
"173 735 CURVE SMOOTH",
"167 735 OFFCURVE",
"154 729 OFFCURVE",
"140 721 CURVE SMOOTH",
"107 702 LINE SMOOTH",
"92 693 OFFCURVE",
"80 688 OFFCURVE",
"80 680 CURVE SMOOTH",
"80 661 OFFCURVE",
"122 678 OFFCURVE",
"122 586 CURVE SMOOTH",
"122 322 LINE SMOOTH",
"122 185 OFFCURVE",
"111 193 OFFCURVE",
"111 163 CURVE SMOOTH",
"111 156 OFFCURVE",
"115 154 OFFCURVE",
"120 154 CURVE SMOOTH",
"128 154 OFFCURVE",
"145 174 OFFCURVE",
"166 200 CURVE SMOOTH",
"181 218 OFFCURVE",
"202 269 OFFCURVE",
"202 353 CURVE SMOOTH"
);
},
{
closed = 1;
nodes = (
"193 25 OFFCURVE",
"193 35 OFFCURVE",
"193 54 CURVE SMOOTH",
"193 75 OFFCURVE",
"192 105 OFFCURVE",
"178 105 CURVE SMOOTH",
"170 105 OFFCURVE",
"113 84 OFFCURVE",
"113 78 CURVE SMOOTH",
"113 70 OFFCURVE",
"115 57 OFFCURVE",
"116 37 CURVE SMOOTH",
"117 22 OFFCURVE",
"116 -8 OFFCURVE",
"121 -8 CURVE SMOOTH",
"130 -8 OFFCURVE",
"176 15 OFFCURVE",
"190 23 CURVE SMOOTH"
);
}
);
width = 282;
}
);
unicode = 0021;
},
{
glyphname = uni204F;
lastChange = "2017-01-05 17:36:54 +0000";
layers = (
{
hints = (
{
place = "{72, 124}";
},
{
horizontal = 1;
place = "{-14, 135}";
},
{
horizontal = 1;
place = "{-14, 21}";
target = up;
type = BottomGhost;
},
{
horizontal = 1;
place = "{414, 136}";
}
);
layerId = "E766B743-DB28-463C-9986-895181A4C6C0";
paths = (
{
closed = 1;
nodes = (
"176 -149 OFFCURVE",
"181 -153 OFFCURVE",
"186 -153 CURVE SMOOTH",
"200 -153 OFFCURVE",
"204 -137 OFFCURVE",
"204 -134 CURVE SMOOTH",
"204 -132 OFFCURVE",
"191 -115 OFFCURVE",
"176 -94 CURVE SMOOTH",
"150 -59 OFFCURVE",
"129 -26 OFFCURVE",
"129 16 CURVE SMOOTH",
"129 75 OFFCURVE",
"149 79 OFFCURVE",
"149 93 CURVE SMOOTH",
"149 102 OFFCURVE",
"145 108 OFFCURVE",
"136 108 CURVE SMOOTH",
"130 108 OFFCURVE",
"123 106 OFFCURVE",
"113 101 CURVE SMOOTH",
"67 80 LINE SMOOTH",
"54 74 OFFCURVE",
"50 54 OFFCURVE",
"50 30 CURVE SMOOTH",
"50 -37 OFFCURVE",
"109 -95 OFFCURVE",
"166 -141 CURVE SMOOTH"
);
},
{
closed = 1;
nodes = (
"140 295 OFFCURVE",
"140 305 OFFCURVE",
"140 323 CURVE SMOOTH",
"140 344 OFFCURVE",
"139 374 OFFCURVE",
"123 374 CURVE SMOOTH",
"114 374 OFFCURVE",
"50 353 OFFCURVE",
"50 347 CURVE SMOOTH",
"50 339 OFFCURVE",
"52 326 OFFCURVE",
"53 307 CURVE SMOOTH",
"54 292 OFFCURVE",
"53 262 OFFCURVE",
"59 262 CURVE SMOOTH",
"69 262 OFFCURVE",
"121 285 OFFCURVE",
"137 293 CURVE SMOOTH"
);
}
);
width = 254;
}
);
unicode = 204F;
},
{
glyphname = uni2E41;
lastChange = "2017-01-05 17:36:54 +0000";
layers = (
{
layerId = "E766B743-DB28-463C-9986-895181A4C6C0";
paths = (
{
closed = 1;
nodes = (
"176 -149 OFFCURVE",
"182 -153 OFFCURVE",
"186 -153 CURVE SMOOTH",
"200 -153 OFFCURVE",
"204 -137 OFFCURVE",
"204 -134 CURVE SMOOTH",
"204 -132 OFFCURVE",
"191 -115 OFFCURVE",
"176 -94 CURVE SMOOTH",
"150 -59 OFFCURVE",
"129 -26 OFFCURVE",
"129 16 CURVE SMOOTH",
"129 75 OFFCURVE",
"149 79 OFFCURVE",
"149 93 CURVE SMOOTH",
"149 102 OFFCURVE",
"145 108 OFFCURVE",
"136 108 CURVE SMOOTH",
"130 108 OFFCURVE",
"123 106 OFFCURVE",
"113 101 CURVE SMOOTH",
"67 80 LINE SMOOTH",
"54 74 OFFCURVE",
"50 54 OFFCURVE",
"50 30 CURVE SMOOTH",
"50 -37 OFFCURVE",
"109 -95 OFFCURVE",
"166 -141 CURVE SMOOTH"
);
}
);
width = 204;
}
);
unicode = 2E41;
},
{
glyphname = uni061F;
lastChange = "2017-01-05 17:36:54 +0000";
layers = (
{
layerId = "E766B743-DB28-463C-9986-895181A4C6C0";
paths = (
{
closed = 1;
nodes = (
"294 175 OFFCURVE",
"335 231 OFFCURVE",
"335 284 CURVE SMOOTH",
"335 467 OFFCURVE",
"120 436 OFFCURVE",
"120 570 CURVE SMOOTH",
"120 629 OFFCURVE",
"165 667 OFFCURVE",
"255 667 CURVE SMOOTH",
"328 667 OFFCURVE",
"430 627 OFFCURVE",
"430 549 CURVE SMOOTH",
"430 532 OFFCURVE",
"422 518 OFFCURVE",
"422 509 CURVE SMOOTH",
"422 504 OFFCURVE",
"423 502 OFFCURVE",
"429 502 CURVE SMOOTH",
"435 502 OFFCURVE",
"441 506 OFFCURVE",
"448 515 CURVE SMOOTH",
"463 535 LINE SMOOTH",
"485 564 OFFCURVE",
"488 589 OFFCURVE",
"488 606 CURVE SMOOTH",
"488 683 OFFCURVE",
"380 735 OFFCURVE",
"295 735 CURVE SMOOTH",
"185 735 OFFCURVE",
"50 590 OFFCURVE",
"50 530 CURVE SMOOTH",
"50 398 OFFCURVE",
"256 403 OFFCURVE",
"259 253 CURVE SMOOTH",
"256 185 OFFCURVE",
"245 168 OFFCURVE",
"229 152 CURVE SMOOTH",
"222 145 OFFCURVE",
"215 138 OFFCURVE",
"215 135 CURVE SMOOTH",
"215 131 OFFCURVE",
"216 128 OFFCURVE",
"222 128 CURVE SMOOTH",
"227 128 OFFCURVE",
"234 131 OFFCURVE",
"242 137 CURVE SMOOTH"
);
},
{
closed = 1;
nodes = (
"298 25 OFFCURVE",
"298 35 OFFCURVE",
"298 53 CURVE SMOOTH",
"298 74 OFFCURVE",
"297 104 OFFCURVE",
"281 104 CURVE SMOOTH",
"272 104 OFFCURVE",
"208 83 OFFCURVE",
"208 77 CURVE SMOOTH",
"208 69 OFFCURVE",
"210 56 OFFCURVE",
"211 37 CURVE SMOOTH",
"212 22 OFFCURVE",
"211 -8 OFFCURVE",
"217 -8 CURVE SMOOTH",
"227 -8 OFFCURVE",
"279 15 OFFCURVE",
"295 23 CURVE SMOOTH"
);
}
);
width = 538;
}
);
unicode = 061F;
},
{
glyphname = Alif_adlam;
production = uni1E900;
lastChange = "2017-01-05 17:36:54 +0000";
layers = (
{
anchors = (
{
name = btm;
position = "{313, -45}";
},
{
name = top;
position = "{348, 755}";
}
);
hints = (
{
place = "{819, 90}";
},
{
place = "{1275, 90}";
},
{
place = "{51, 95}";
},
{
place = "{615, 95}";
},
{
horizontal = 1;
place = "{31, 21}";
target = up;
type = BottomGhost;
},
{
horizontal = 1;
place = "{364, 79}";
},
{
horizontal = 1;
place = "{745, -20}";
target = down;
type = TopGhost;
},
{
horizontal = 1;
place = "{-164, 78}";
},
{
horizontal = 1;
place = "{492, 79}";
}
);
layerId = "E766B743-DB28-463C-9986-895181A4C6C0";
paths = (
{
closed = 1;
nodes = (
"533 232 LINE SMOOTH",
"533 143 OFFCURVE",
"461 67 OFFCURVE",
"328 67 CURVE SMOOTH",
"235 67 OFFCURVE",
"160 85 OFFCURVE",
"160 224 CURVE SMOOTH",
"160 543 LINE SMOOTH",
"160 608 OFFCURVE",
"200 650 OFFCURVE",
"254 650 CURVE SMOOTH",
"387 650 LINE SMOOTH",
"480 650 OFFCURVE",
"522 624 OFFCURVE",
"537 588 CURVE SMOOTH",
"538 585 OFFCURVE",
"540 583 OFFCURVE",
"545 583 CURVE SMOOTH",
"550 583 OFFCURVE",
"559 594 OFFCURVE",
"565 602 CURVE SMOOTH",
"589 632 LINE SMOOTH",
"594 639 OFFCURVE",
"597 645 OFFCURVE",
"597 650 CURVE SMOOTH",
"597 687 OFFCURVE",
"498 725 OFFCURVE",
"415 725 CURVE SMOOTH",
"313 725 LINE SMOOTH",
"176 725 OFFCURVE",
"80 572 OFFCURVE",
"80 523 CURVE SMOOTH",
"80 167 LINE SMOOTH",
"80 79 OFFCURVE",
"134 -15 OFFCURVE",
"295 -15 CURVE SMOOTH",
"364 -15 OFFCURVE",
"463 42 OFFCURVE",
"533 109 CURVE",
"533 0 LINE SMOOTH",
"533 -48 OFFCURVE",
"519 -71 OFFCURVE",
"511 -82 CURVE SMOOTH",
"509 -85 OFFCURVE",
"508 -88 OFFCURVE",
"508 -91 CURVE SMOOTH",
"508 -95 OFFCURVE",
"511 -100 OFFCURVE",
"518 -100 CURVE SMOOTH",
"525 -100 OFFCURVE",
"532 -99 OFFCURVE",
"553 -84 CURVE SMOOTH",
"587 -60 LINE SMOOTH",
"612 -43 OFFCURVE",
"613 -26 OFFCURVE",
"613 -3 CURVE SMOOTH",
"613 292 LINE SMOOTH",
"613 397 OFFCURVE",
"528 472 OFFCURVE",
"429 472 CURVE SMOOTH",
"423 472 OFFCURVE",
"421 468 OFFCURVE",
"419 464 CURVE",
"380 425 LINE",
"378 421 OFFCURVE",
"376 416 OFFCURVE",
"376 412 CURVE SMOOTH",
"376 409 OFFCURVE",
"378 407 OFFCURVE",
"383 407 CURVE SMOOTH",
"504 407 OFFCURVE",
"533 327 OFFCURVE",
"533 267 CURVE"
);
}
);
width = 693;
}
);
unicode = 1E900;
category = Letter;
subCategory = Uppercase;
},
{
glyphname = Daali_adlam;
production = uni1E901;
lastChange = "2017-01-05 17:36:54 +0000";
layers = (
{
anchors = (
{
name = btm;
position = "{321, -45}";
},
{
name = top;
position = "{307, 755}";
}
);
hints = (
{
place = "{100, 90}";
},
{
place = "{556, 90}";
},
{
place = "{41, 495}";
},
{
horizontal = 1;
place = "{0, 21}";
target = up;
type = BottomGhost;
},
{
horizontal = 1;
place = "{333, 79}";
},
{
horizontal = 1;
place = "{714, -20}";
target = down;
type = TopGhost;
},
{
horizontal = 1;
place = "{0, 80}";
},
{
horizontal = 1;
place = "{634, 80}";
}
);
layerId = "E766B743-DB28-463C-9986-895181A4C6C0";
paths = (
{
closed = 1;
nodes = (
"160 653 LINE SMOOTH",
"160 722 OFFCURVE",
"146 735 OFFCURVE",
"131 735 CURVE SMOOTH",
"125 735 OFFCURVE",
"112 729 OFFCURVE",
"98 721 CURVE SMOOTH",
"65 702 LINE SMOOTH",
"50 693 OFFCURVE",
"38 688 OFFCURVE",
"38 680 CURVE SMOOTH",
"38 661 OFFCURVE",
"80 678 OFFCURVE",
"80 586 CURVE SMOOTH",
"80 419 LINE SMOOTH",
"80 228 OFFCURVE",
"355 276 OFFCURVE",
"478 154 CURVE",
"472 93 OFFCURVE",
"444 75 OFFCURVE",
"379 75 CURVE SMOOTH",
"214 75 LINE SMOOTH",
"175 75 OFFCURVE",
"172 112 OFFCURVE",
"158 112 CURVE SMOOTH",
"151 112 OFFCURVE",
"146 106 OFFCURVE",
"138 96 CURVE SMOOTH",
"88 36 LINE SMOOTH",
"83 30 OFFCURVE",
"79 22 OFFCURVE",
"79 16 CURVE SMOOTH",
"79 7 OFFCURVE",
"87 0 OFFCURVE",
"111 0 CURVE SMOOTH",
"331 0 LINE SMOOTH",
"395 0 OFFCURVE",
"444 25 OFFCURVE",
"480 60 CURVE",
"481 -2 OFFCURVE",
"494 -15 OFFCURVE",
"509 -15 CURVE SMOOTH",
"515 -15 OFFCURVE",
"528 -9 OFFCURVE",
"542 -1 CURVE SMOOTH",
"575 18 LINE SMOOTH",
"590 27 OFFCURVE",
"602 32 OFFCURVE",
"602 40 CURVE SMOOTH",
"602 59 OFFCURVE",
"560 42 OFFCURVE",
"560 134 CURVE SMOOTH",
"560 653 LINE SMOOTH",
"560 722 OFFCURVE",
"546 735 OFFCURVE",
"531 735 CURVE SMOOTH",
"525 735 OFFCURVE",
"512 729 OFFCURVE",
"498 721 CURVE SMOOTH",
"465 702 LINE SMOOTH",
"450 693 OFFCURVE",
"438 688 OFFCURVE",
"438 680 CURVE SMOOTH",
"438 661 OFFCURVE",
"480 678 OFFCURVE",
"480 586 CURVE SMOOTH",
"480 252 LINE",
"356 325 OFFCURVE",
"160 299 OFFCURVE",
"160 446 CURVE"
);
}
);
width = 640;
}
);
unicode = 1E901;
category = Letter;
subCategory = Uppercase;
},
{
glyphname = Laam_adlam;
production = uni1E902;
lastChange = "2017-01-05 17:36:54 +0000";
layers = (
{
anchors = (
{
name = btm;
position = "{293, -45}";
},
{
name = top;
position = "{293, 755}";
}
);
layerId = "E766B743-DB28-463C-9986-895181A4C6C0";
paths = (
{
closed = 1;
nodes = (
"56 376 LINE",
"56 307 OFFCURVE",
"82 294 OFFCURVE",
"97 294 CURVE SMOOTH",
"103 294 OFFCURVE",
"104 294 OFFCURVE",
"116 305 CURVE SMOOTH",
"147 333 LINE SMOOTH",
"163 348 OFFCURVE",
"169 355 OFFCURVE",
"169 360 CURVE SMOOTH",
"169 376 OFFCURVE",
"136 366 OFFCURVE",
"136 409 CURVE SMOOTH",
"136 518 LINE SMOOTH",
"136 634 OFFCURVE",
"229 667 OFFCURVE",
"322 667 CURVE SMOOTH",
"396 667 OFFCURVE",
"452 640 OFFCURVE",
"452 535 CURVE SMOOTH",
"452 184 LINE SMOOTH",
"452 99 OFFCURVE",
"426 75 OFFCURVE",
"351 75 CURVE SMOOTH",
"173 75 LINE SMOOTH",
"134 75 OFFCURVE",
"131 112 OFFCURVE",
"117 112 CURVE SMOOTH",
"110 112 OFFCURVE",
"105 106 OFFCURVE",
"97 96 CURVE SMOOTH",
"47 36 LINE SMOOTH",
"42 30 OFFCURVE",
"38 22 OFFCURVE",
"38 16 CURVE SMOOTH",
"38 7 OFFCURVE",
"46 0 OFFCURVE",
"70 0 CURVE SMOOTH",
"303 0 LINE SMOOTH",
"447 0 OFFCURVE",
"532 152 OFFCURVE",
"532 189 CURVE SMOOTH",
"532 546 LINE SMOOTH",
"532 698 OFFCURVE",
"442 735 OFFCURVE",
"362 735 CURVE SMOOTH",
"222 735 OFFCURVE",
"56 601 OFFCURVE",
"56 490 CURVE SMOOTH"
);
}
);
width = 612;
}
);
unicode = 1E902;
category = Letter;
subCategory = Uppercase;
},
{
glyphname = Miim_adlam;
production = uni1E903;
lastChange = "2017-01-05 17:36:54 +0000";
layers = (
{
anchors = (
{
name = btm;
position = "{300, -45}";
},
{
name = top;
position = "{304, 755}";
}
);
hints = (
{
place = "{817, 90}";
},
{
place = "{1273, 90}";
},
{
place = "{49, 95}";
},
{
place = "{613, 95}";
},
{
place = "{46, 91}";
},
{
place = "{451, 91}";
},
{
place = "{1053, 95}";
},
{
place = "{1617, 95}";
},
{
horizontal = 1;
place = "{31, 21}";
target = up;
type = BottomGhost;
},
{
horizontal = 1;
place = "{364, 79}";
},
{
horizontal = 1;
place = "{745, -20}";
target = down;
type = TopGhost;
},
{
horizontal = 1;
place = "{-164, 78}";
},
{
horizontal = 1;
place = "{492, 79}";
},
{
horizontal = 1;
place = "{-10, 73}";
},
{
horizontal = 1;
place = "{472, 74}";
},
{
horizontal = 1;
place = "{241, 78}";
},
{
horizontal = 1;
place = "{897, 79}";
}
);
layerId = "E766B743-DB28-463C-9986-895181A4C6C0";
paths = (
{
closed = 1;
nodes = (
"173 75 LINE SMOOTH",
"134 75 OFFCURVE",
"131 112 OFFCURVE",
"117 112 CURVE SMOOTH",
"110 112 OFFCURVE",
"105 106 OFFCURVE",
"97 96 CURVE SMOOTH",
"47 36 LINE SMOOTH",
"42 30 OFFCURVE",
"38 22 OFFCURVE",
"38 16 CURVE SMOOTH",
"38 7 OFFCURVE",
"46 0 OFFCURVE",
"70 0 CURVE SMOOTH",
"333 0 LINE SMOOTH",
"470 0 OFFCURVE",
"562 151 OFFCURVE",
"562 189 CURVE SMOOTH",
"562 546 LINE SMOOTH",
"562 698 OFFCURVE",
"442 735 OFFCURVE",
"362 735 CURVE SMOOTH",
"222 735 OFFCURVE",
"51 610 OFFCURVE",
"51 505 CURVE SMOOTH",
"51 250 OFFCURVE",
"482 353 OFFCURVE",
"482 243 CURVE SMOOTH",
"482 184 LINE SMOOTH",
"482 99 OFFCURVE",
"456 75 OFFCURVE",
"381 75 CURVE"
);
},
{
closed = 1;
nodes = (
"136 634 OFFCURVE",
"221 667 OFFCURVE",
"322 667 CURVE SMOOTH",
"416 667 OFFCURVE",
"482 640 OFFCURVE",
"482 535 CURVE SMOOTH",
"482 350 LINE",
"402 404 OFFCURVE",
"136 353 OFFCURVE",
"136 518 CURVE SMOOTH"
);
}
);
width = 642;
}
);
unicode = 1E903;
category = Letter;
subCategory = Uppercase;
},
{
glyphname = Ba_adlam;
production = uni1E904;
lastChange = "2017-01-05 17:36:54 +0000";
layers = (
{
anchors = (
{
name = btm;
position = "{405, -45}";
},
{
name = top;
position = "{395, 755}";
}
);
hints = (
{
place = "{57, 90}";
},
{
place = "{513, 90}";
},
{
place = "{-2, 495}";
},
{
place = "{45, 88}";
},
{
place = "{410, 87}";
},
{
place = "{-1, 392}";
},
{
horizontal = 1;
place = "{0, 21}";
target = up;
type = BottomGhost;
},
{
horizontal = 1;
place = "{333, 79}";
},
{
horizontal = 1;
place = "{714, -20}";
target = down;
type = TopGhost;
},
{
horizontal = 1;
place = "{0, 80}";
},
{
horizontal = 1;
place = "{634, 80}";
},
{
horizontal = 1;
place = "{0, 21}";
target = up;
type = BottomGhost;
},
{
horizontal = 1;
place = "{472, 74}";
},
{
horizontal = 1;
place = "{536, -20}";
target = down;
type = TopGhost;
},
{
horizontal = 1;
place = "{0, 68}";
},
{
horizontal = 1;
place = "{468, 68}";
}
);
layerId = "E766B743-DB28-463C-9986-895181A4C6C0";
paths = (
{
closed = 1;
nodes = (
"80 0 LINE SMOOTH",
"80 -69 OFFCURVE",
"116 -100 OFFCURVE",
"131 -100 CURVE SMOOTH",
"137 -100 OFFCURVE",
"149 -91 OFFCURVE",
"161 -81 CURVE SMOOTH",
"175 -69 LINE SMOOTH",
"188 -58 OFFCURVE",
"199 -50 OFFCURVE",
"199 -42 CURVE SMOOTH",
"199 -23 OFFCURVE",
"160 -43 OFFCURVE",
"160 49 CURVE SMOOTH",
"160 225 LINE",
"200 207 OFFCURVE",
"247 201 OFFCURVE",
"286 201 CURVE SMOOTH",
"308 201 OFFCURVE",
"329 202 OFFCURVE",
"350 205 CURVE",
"350 114 LINE SMOOTH",
"350 44 OFFCURVE",
"422 0 OFFCURVE",
"447 0 CURVE SMOOTH",
"618 0 LINE SMOOTH",
"649 0 OFFCURVE",
"649 -16 OFFCURVE",
"662 -16 CURVE SMOOTH",
"669 -16 OFFCURVE",
"675 -10 OFFCURVE",
"687 3 CURVE SMOOTH",
"719 40 LINE SMOOTH",
"723 45 OFFCURVE",
"725 48 OFFCURVE",
"725 52 CURVE SMOOTH",
"725 67 OFFCURVE",
"691 75 OFFCURVE",
"649 75 CURVE SMOOTH",
"473 75 LINE SMOOTH",
"437 75 OFFCURVE",
"430 82 OFFCURVE",
"430 138 CURVE SMOOTH",
"430 221 LINE",
"604 272 OFFCURVE",
"730 409 OFFCURVE",
"730 541 CURVE SMOOTH",
"730 617 OFFCURVE",
"684 735 OFFCURVE",
"525 735 CURVE SMOOTH",
"429 735 OFFCURVE",
"350 670 OFFCURVE",
"350 640 CURVE SMOOTH",
"350 273 LINE",
"332 273 LINE SMOOTH",
"256 273 OFFCURVE",
"201 285 OFFCURVE",
"160 327 CURVE",
"160 653 LINE SMOOTH",
"160 722 OFFCURVE",
"146 735 OFFCURVE",
"131 735 CURVE SMOOTH",
"125 735 OFFCURVE",
"112 729 OFFCURVE",
"98 721 CURVE SMOOTH",
"65 702 LINE SMOOTH",
"50 693 OFFCURVE",
"38 688 OFFCURVE",
"38 680 CURVE SMOOTH",
"38 661 OFFCURVE",
"80 678 OFFCURVE",
"80 586 CURVE SMOOTH"
);
},
{
closed = 1;
nodes = (
"430 654 LINE SMOOTH",
"430 670 OFFCURVE",
"457 677 OFFCURVE",
"488 677 CURVE SMOOTH",
"630 677 OFFCURVE",
"645 566 OFFCURVE",
"645 527 CURVE SMOOTH",
"645 407 OFFCURVE",
"593 308 OFFCURVE",
"430 280 CURVE"
);
}
);
width = 768;
}
);
unicode = 1E904;
category = Letter;
subCategory = Uppercase;
},
{
glyphname = Sinnyiiyhe_adlam;
production = uni1E905;
lastChange = "2017-01-05 17:36:54 +0000";
layers = (
{
anchors = (
{
name = btm;
position = "{420, -45}";
},
{
name = top;
position = "{405, 755}";
}
);
hints = (
{
place = "{72, 91}";
},
{
place = "{477, 91}";
},
{
horizontal = 1;
place = "{-10, 73}";
},
{
horizontal = 1;
place = "{472, 74}";
}
);
layerId = "E766B743-DB28-463C-9986-895181A4C6C0";
paths = (
{
closed = 1;
nodes = (
"233 75 LINE SMOOTH",
"194 75 OFFCURVE",
"191 112 OFFCURVE",
"177 112 CURVE SMOOTH",
"170 112 OFFCURVE",
"165 106 OFFCURVE",
"157 96 CURVE SMOOTH",
"107 36 LINE SMOOTH",
"102 30 OFFCURVE",
"98 22 OFFCURVE",
"98 16 CURVE SMOOTH",
"98 7 OFFCURVE",
"106 0 OFFCURVE",
"130 0 CURVE SMOOTH",
"541 0 LINE SMOOTH",
"673 0 OFFCURVE",
"770 135 OFFCURVE",
"770 184 CURVE SMOOTH",
"770 653 LINE SMOOTH",
"770 722 OFFCURVE",
"756 735 OFFCURVE",
"741 735 CURVE SMOOTH",
"735 735 OFFCURVE",
"722 729 OFFCURVE",
"708 721 CURVE SMOOTH",
"675 702 LINE SMOOTH",
"660 693 OFFCURVE",
"648 688 OFFCURVE",
"648 680 CURVE SMOOTH",
"648 661 OFFCURVE",
"690 678 OFFCURVE",
"690 586 CURVE SMOOTH",
"690 344 LINE",
"651 297 OFFCURVE",
"606 276 OFFCURVE",
"557 276 CURVE SMOOTH",
"516 276 OFFCURVE",
"465 293 OFFCURVE",
"465 387 CURVE SMOOTH",
"465 653 LINE SMOOTH",
"465 722 OFFCURVE",
"451 735 OFFCURVE",
"436 735 CURVE SMOOTH",
"430 735 OFFCURVE",
"417 729 OFFCURVE",
"403 721 CURVE SMOOTH",
"370 702 LINE SMOOTH",
"355 693 OFFCURVE",
"343 688 OFFCURVE",
"343 680 CURVE SMOOTH",
"343 661 OFFCURVE",
"385 678 OFFCURVE",
"385 586 CURVE SMOOTH",
"385 384 LINE SMOOTH",
"385 371 OFFCURVE",
"386 358 OFFCURVE",
"387 347 CURVE",
"348 298 OFFCURVE",
"302 276 OFFCURVE",
"252 276 CURVE SMOOTH",
"211 276 OFFCURVE",
"160 293 OFFCURVE",
"160 387 CURVE SMOOTH",
"160 653 LINE SMOOTH",
"160 722 OFFCURVE",
"146 735 OFFCURVE",
"131 735 CURVE SMOOTH",
"125 735 OFFCURVE",
"112 729 OFFCURVE",
"98 721 CURVE SMOOTH",
"65 702 LINE SMOOTH",
"50 693 OFFCURVE",
"38 688 OFFCURVE",
"38 680 CURVE SMOOTH",
"38 661 OFFCURVE",
"80 678 OFFCURVE",
"80 586 CURVE SMOOTH",
"80 384 LINE SMOOTH",
"80 255 OFFCURVE",
"140 204 OFFCURVE",
"234 204 CURVE SMOOTH",
"293 204 OFFCURVE",
"352 256 OFFCURVE",
"394 307 CURVE",
"414 234 OFFCURVE",
"466 204 OFFCURVE",
"539 204 CURVE SMOOTH",
"594 204 OFFCURVE",
"649 251 OFFCURVE",
"690 300 CURVE",
"690 184 LINE SMOOTH",
"690 99 OFFCURVE",
"664 75 OFFCURVE",
"589 75 CURVE"
);
}
);
width = 850;
}
);
unicode = 1E905;
category = Letter;
subCategory = Uppercase;
},
{
glyphname = Pe_adlam;
production = uni1E906;
lastChange = "2017-01-05 17:36:54 +0000";
layers = (
{
anchors = (
{
name = btm;
position = "{295, -45}";
},
{
name = top;
position = "{290, 755}";
}
);
hints = (
{
place = "{88, 95}";
},
{
horizontal = 1;
place = "{-10, 79}";
},
{
horizontal = 1;
place = "{645, 79}";
}
);
layerId = "E766B743-DB28-463C-9986-895181A4C6C0";
paths = (
{
closed = 1;
nodes = (
"125 735 OFFCURVE",
"112 729 OFFCURVE",
"98 721 CURVE SMOOTH",
"65 702 LINE SMOOTH",
"50 693 OFFCURVE",
"38 688 OFFCURVE",
"38 680 CURVE SMOOTH",
"38 661 OFFCURVE",
"80 678 OFFCURVE",
"80 586 CURVE SMOOTH",
"80 114 LINE SMOOTH",
"80 44 OFFCURVE",
"152 0 OFFCURVE",
"177 0 CURVE SMOOTH",
"418 0 LINE SMOOTH",
"449 0 OFFCURVE",
"449 -16 OFFCURVE",
"462 -16 CURVE SMOOTH",
"469 -16 OFFCURVE",
"475 -10 OFFCURVE",
"487 3 CURVE SMOOTH",
"519 40 LINE SMOOTH",
"523 45 OFFCURVE",
"525 48 OFFCURVE",
"525 52 CURVE SMOOTH",
"525 67 OFFCURVE",
"491 75 OFFCURVE",
"449 75 CURVE SMOOTH",
"322 75 LINE",
"403 150 OFFCURVE",
"513 292 OFFCURVE",
"513 463 CURVE SMOOTH",
"513 589 OFFCURVE",
"472 735 OFFCURVE",
"307 735 CURVE SMOOTH",
"246 735 OFFCURVE",
"195 702 OFFCURVE",
"159 673 CURVE",
"157 724 OFFCURVE",
"144 735 OFFCURVE",
"131 735 CURVE SMOOTH"
);
},
{
closed = 1;
nodes = (
"160 634 LINE",
"186 655 OFFCURVE",
"222 673 OFFCURVE",
"264 673 CURVE SMOOTH",
"405 673 OFFCURVE",
"428 547 OFFCURVE",
"428 462 CURVE SMOOTH",
"428 281 OFFCURVE",
"368 165 OFFCURVE",
"266 75 CURVE",
"203 75 LINE SMOOTH",
"167 75 OFFCURVE",
"160 82 OFFCURVE",
"160 138 CURVE"
);
}
);
width = 575;
}
);
unicode = 1E906;
category = Letter;
subCategory = Uppercase;
},
{
glyphname = Bhe_adlam;
production = uni1E907;
lastChange = "2017-01-05 17:36:54 +0000";
layers = (
{
anchors = (
{
name = btm;
position = "{340, -45}";
},
{
name = top;
position = "{340, 755}";
}
);
layerId = "E766B743-DB28-463C-9986-895181A4C6C0";
paths = (
{
closed = 1;
nodes = (
"489 85 LINE SMOOTH",
"489 16 OFFCURVE",
"525 -15 OFFCURVE",
"540 -15 CURVE SMOOTH",
"546 -15 OFFCURVE",
"558 -6 OFFCURVE",
"570 4 CURVE SMOOTH",
"584 16 LINE SMOOTH",
"597 27 OFFCURVE",
"608 35 OFFCURVE",
"608 43 CURVE SMOOTH",
"608 62 OFFCURVE",
"569 42 OFFCURVE",
"569 134 CURVE SMOOTH",
"569 558 LINE SMOOTH",
"569 611 OFFCURVE",
"566 628 OFFCURVE",
"550 628 CURVE SMOOTH",
"545 628 OFFCURVE",
"539 626 OFFCURVE",
"532 624 CURVE SMOOTH",
"499 614 OFFCURVE",
"480 607 OFFCURVE",
"480 592 CURVE SMOOTH",
"480 575 OFFCURVE",
"489 566 OFFCURVE",
"489 518 CURVE SMOOTH",
"489 428 LINE",
"441 350 OFFCURVE",
"368 340 OFFCURVE",
"311 340 CURVE SMOOTH",
"215 340 OFFCURVE",
"152 382 OFFCURVE",
"152 501 CURVE SMOOTH",
"152 617 OFFCURVE",
"219 645 OFFCURVE",
"281 645 CURVE SMOOTH",
"342 645 LINE SMOOTH",
"507 645 OFFCURVE",
"604 740 OFFCURVE",
"604 758 CURVE SMOOTH",
"604 763 OFFCURVE",
"603 764 OFFCURVE",
"599 764 CURVE SMOOTH",
"594 764 OFFCURVE",
"575 754 OFFCURVE",
"567 751 CURVE SMOOTH",
"490 721 OFFCURVE",
"456 720 OFFCURVE",
"407 720 CURVE SMOOTH",
"342 720 LINE SMOOTH",
"212 720 OFFCURVE",
"70 585 OFFCURVE",
"70 462 CURVE SMOOTH",
"70 364 OFFCURVE",
"123 295 OFFCURVE",
"222 275 CURVE",
"97 183 OFFCURVE",
"65 120 OFFCURVE",
"65 57 CURVE SMOOTH",
"65 9 OFFCURVE",
"108 -15 OFFCURVE",
"121 -15 CURVE SMOOTH",
"127 -15 OFFCURVE",
"139 -6 OFFCURVE",
"151 4 CURVE SMOOTH",
"165 16 LINE SMOOTH",
"178 27 OFFCURVE",
"189 35 OFFCURVE",
"189 43 CURVE SMOOTH",
"189 59 OFFCURVE",
"145 50 OFFCURVE",
"145 99 CURVE SMOOTH",
"145 107 OFFCURVE",
"150 191 OFFCURVE",
"273 270 CURVE",
"281 270 LINE SMOOTH",
"378 270 OFFCURVE",
"441 325 OFFCURVE",
"489 367 CURVE"
);
}
);
width = 666;
}
);
unicode = 1E907;
category = Letter;
subCategory = Uppercase;
},
{
glyphname = Ra_adlam;
production = uni1E908;
lastChange = "2017-01-05 17:36:54 +0000";
layers = (
{
anchors = (
{
name = btm;
position = "{345, -45}";
},
{
name = top;
position = "{340, 755}";
}
);
layerId = "E766B743-DB28-463C-9986-895181A4C6C0";
paths = (
{
closed = 1;
nodes = (
"160 653 LINE SMOOTH",
"160 722 OFFCURVE",
"146 735 OFFCURVE",
"131 735 CURVE SMOOTH",
"125 735 OFFCURVE",
"112 729 OFFCURVE",
"98 721 CURVE SMOOTH",
"65 702 LINE SMOOTH",
"50 693 OFFCURVE",
"38 688 OFFCURVE",
"38 680 CURVE SMOOTH",
"38 661 OFFCURVE",
"80 678 OFFCURVE",
"80 586 CURVE SMOOTH",
"80 114 LINE SMOOTH",
"80 44 OFFCURVE",
"152 0 OFFCURVE",
"177 0 CURVE SMOOTH",
"511 0 LINE SMOOTH",
"542 0 OFFCURVE",
"542 -16 OFFCURVE",
"555 -16 CURVE SMOOTH",
"562 -16 OFFCURVE",
"568 -10 OFFCURVE",
"580 3 CURVE SMOOTH",
"612 40 LINE SMOOTH",
"616 45 OFFCURVE",
"618 48 OFFCURVE",
"618 52 CURVE SMOOTH",
"618 67 OFFCURVE",
"584 75 OFFCURVE",
"542 75 CURVE SMOOTH",
"203 75 LINE SMOOTH",
"167 75 OFFCURVE",
"160 82 OFFCURVE",
"160 138 CURVE SMOOTH",
"160 224 LINE",
"190 211 OFFCURVE",
"236 201 OFFCURVE",
"296 201 CURVE SMOOTH",
"450 201 OFFCURVE",
"628 302 OFFCURVE",
"628 527 CURVE SMOOTH",
"628 653 LINE SMOOTH",
"628 722 OFFCURVE",
"614 735 OFFCURVE",
"599 735 CURVE SMOOTH",
"593 735 OFFCURVE",
"580 729 OFFCURVE",
"566 721 CURVE SMOOTH",
"533 702 LINE SMOOTH",
"518 693 OFFCURVE",
"506 688 OFFCURVE",
"506 680 CURVE SMOOTH",
"506 661 OFFCURVE",
"548 678 OFFCURVE",
"548 586 CURVE SMOOTH",
"548 436 LINE SMOOTH",
"548 299 OFFCURVE",
"454 273 OFFCURVE",
"365 273 CURVE SMOOTH",
"265 273 OFFCURVE",
"200 295 OFFCURVE",
"160 332 CURVE"
);
}
);
width = 708;
}
);
unicode = 1E908;
category = Letter;
subCategory = Uppercase;
},
{
glyphname = E_adlam;
production = uni1E909;
lastChange = "2017-01-05 17:36:54 +0000";
layers = (
{
anchors = (
{
name = btm;
position = "{360, -45}";
},
{
name = top;
position = "{380, 755}";
}
);
layerId = "E766B743-DB28-463C-9986-895181A4C6C0";
paths = (
{
closed = 1;
nodes = (
"394 75 LINE SMOOTH",
"310 75 OFFCURVE",
"297 101 OFFCURVE",
"297 142 CURVE SMOOTH",
"297 219 OFFCURVE",
"361 263 OFFCURVE",
"436 303 CURVE",
"582 302 OFFCURVE",
"635 181 OFFCURVE",
"635 118 CURVE SMOOTH",
"635 32 OFFCURVE",
"618 -31 OFFCURVE",
"561 -78 CURVE SMOOTH",
"555 -83 OFFCURVE",
"552 -88 OFFCURVE",
"552 -92 CURVE SMOOTH",
"552 -97 OFFCURVE",
"554 -100 OFFCURVE",
"562 -100 CURVE SMOOTH",
"571 -100 OFFCURVE",
"583 -96 OFFCURVE",
"594 -86 CURVE SMOOTH",
"671 -17 OFFCURVE",
"710 63 OFFCURVE",
"710 146 CURVE SMOOTH",
"710 265 OFFCURVE",
"611 341 OFFCURVE",
"533 353 CURVE",
"602 392 OFFCURVE",
"659 438 OFFCURVE",
"659 516 CURVE SMOOTH",
"659 617 OFFCURVE",
"596 735 OFFCURVE",
"404 735 CURVE SMOOTH",
"276 735 OFFCURVE",
"80 603 OFFCURVE",
"80 419 CURVE SMOOTH",
"80 85 LINE SMOOTH",
"80 16 OFFCURVE",
"116 -15 OFFCURVE",
"131 -15 CURVE SMOOTH",
"137 -15 OFFCURVE",
"149 -6 OFFCURVE",
"161 4 CURVE SMOOTH",
"175 16 LINE SMOOTH",
"188 27 OFFCURVE",
"199 35 OFFCURVE",
"199 43 CURVE SMOOTH",
"199 62 OFFCURVE",
"160 42 OFFCURVE",
"160 134 CURVE SMOOTH",
"160 473 LINE SMOOTH",
"160 575 OFFCURVE",
"223 667 OFFCURVE",
"379 667 CURVE SMOOTH",
"537 667 OFFCURVE",
"574 576 OFFCURVE",
"574 513 CURVE SMOOTH",
"574 327 OFFCURVE",
"232 311 OFFCURVE",
"232 115 CURVE SMOOTH",
"232 51 OFFCURVE",
"263 0 OFFCURVE",
"374 0 CURVE SMOOTH",
"510 0 LINE SMOOTH",
"539 0 OFFCURVE",
"562 4 OFFCURVE",
"572 22 CURVE SMOOTH",
"587 49 LINE SMOOTH",
"590 54 OFFCURVE",
"604 74 OFFCURVE",
"604 85 CURVE SMOOTH",
"604 90 OFFCURVE",
"602 93 OFFCURVE",
"595 93 CURVE SMOOTH",
"572 93 OFFCURVE",
"571 75 OFFCURVE",
"518 75 CURVE SMOOTH"
);
}
);
width = 755;
}
);
unicode = 1E909;
category = Letter;
subCategory = Uppercase;
},
{
glyphname = Fa_adlam;
production = uni1E90A;
lastChange = "2017-01-05 17:36:54 +0000";
layers = (
{
anchors = (
{
name = btm;
position = "{355, -45}";
},
{
name = top;
position = "{355, 755}";
}
);
layerId = "E766B743-DB28-463C-9986-895181A4C6C0";
paths = (
{
closed = 1;
nodes = (
"637 697 OFFCURVE",
"538 735 OFFCURVE",
"455 735 CURVE SMOOTH",
"389 735 LINE SMOOTH",
"263 735 OFFCURVE",
"80 603 OFFCURVE",
"80 419 CURVE SMOOTH",
"80 85 LINE SMOOTH",
"80 16 OFFCURVE",
"116 -15 OFFCURVE",
"131 -15 CURVE SMOOTH",
"137 -15 OFFCURVE",
"149 -6 OFFCURVE",
"161 4 CURVE SMOOTH",
"175 16 LINE SMOOTH",
"188 27 OFFCURVE",
"199 35 OFFCURVE",
"199 43 CURVE SMOOTH",
"199 62 OFFCURVE",
"160 42 OFFCURVE",
"160 134 CURVE SMOOTH",
"160 308 LINE",
"225 438 OFFCURVE",
"333 438 OFFCURVE",
"390 438 CURVE SMOOTH",
"484 438 OFFCURVE",
"550 398 OFFCURVE",
"550 301 CURVE SMOOTH",
"550 0 LINE SMOOTH",
"550 -69 OFFCURVE",
"586 -100 OFFCURVE",
"601 -100 CURVE SMOOTH",
"607 -100 OFFCURVE",
"619 -91 OFFCURVE",
"631 -81 CURVE SMOOTH",
"645 -69 LINE SMOOTH",
"658 -58 OFFCURVE",
"669 -50 OFFCURVE",
"669 -42 CURVE SMOOTH",
"669 -23 OFFCURVE",
"630 -43 OFFCURVE",
"630 49 CURVE SMOOTH",
"630 322 LINE SMOOTH",
"630 474 OFFCURVE",
"510 506 OFFCURVE",
"430 506 CURVE SMOOTH",
"349 506 OFFCURVE",
"257 486 OFFCURVE",
"160 372 CURVE",
"160 473 LINE SMOOTH",
"160 575 OFFCURVE",
"205 660 OFFCURVE",
"353 660 CURVE SMOOTH",
"427 660 LINE SMOOTH",
"520 660 OFFCURVE",
"562 634 OFFCURVE",
"577 598 CURVE SMOOTH",
"578 595 OFFCURVE",
"580 593 OFFCURVE",
"585 593 CURVE SMOOTH",
"590 593 OFFCURVE",
"599 604 OFFCURVE",
"605 612 CURVE SMOOTH",
"629 642 LINE SMOOTH",
"634 649 OFFCURVE",
"637 655 OFFCURVE",
"637 660 CURVE SMOOTH"
);
}
);
width = 707;
}
);
unicode = 1E90A;
category = Letter;
subCategory = Uppercase;
},
{
glyphname = I_adlam;
production = uni1E90B;
lastChange = "2017-01-05 17:36:54 +0000";
layers = (
{
anchors = (
{
name = btm;
position = "{355, -45}";
},
{
name = top;
position = "{355, 755}";
}
);
layerId = "E766B743-DB28-463C-9986-895181A4C6C0";
paths = (
{
closed = 1;
nodes = (
"650 653 LINE SMOOTH",
"650 722 OFFCURVE",
"636 735 OFFCURVE",
"621 735 CURVE SMOOTH",
"615 735 OFFCURVE",
"602 729 OFFCURVE",
"588 721 CURVE SMOOTH",
"555 702 LINE SMOOTH",
"540 693 OFFCURVE",
"528 688 OFFCURVE",
"528 680 CURVE SMOOTH",
"528 661 OFFCURVE",
"570 678 OFFCURVE",
"570 586 CURVE SMOOTH",
"570 186 LINE SMOOTH",
"570 177 OFFCURVE",
"570 169 OFFCURVE",
"569 162 CURVE",
"506 75 OFFCURVE",
"409 57 OFFCURVE",
"354 57 CURVE SMOOTH",
"179 57 OFFCURVE",
"160 151 OFFCURVE",
"160 245 CURVE SMOOTH",
"160 653 LINE SMOOTH",
"160 722 OFFCURVE",
"146 735 OFFCURVE",
"131 735 CURVE SMOOTH",
"125 735 OFFCURVE",
"112 729 OFFCURVE",
"98 721 CURVE SMOOTH",
"65 702 LINE SMOOTH",
"50 693 OFFCURVE",
"38 688 OFFCURVE",
"38 680 CURVE SMOOTH",
"38 661 OFFCURVE",
"80 678 OFFCURVE",
"80 586 CURVE SMOOTH",
"80 238 LINE SMOOTH",
"80 22 OFFCURVE",
"209 -15 OFFCURVE",
"308 -15 CURVE SMOOTH",
"370 -15 OFFCURVE",
"477 1 OFFCURVE",
"560 90 CURVE",
"546 25 OFFCURVE",
"519 11 OFFCURVE",
"519 -11 CURVE SMOOTH",
"519 -18 OFFCURVE",
"523 -20 OFFCURVE",
"528 -20 CURVE SMOOTH",
"536 -20 OFFCURVE",
"550 -5 OFFCURVE",
"572 20 CURVE SMOOTH",
"609 62 OFFCURVE",
"650 139 OFFCURVE",
"650 268 CURVE SMOOTH"
);
}
);
width = 730;
}
);
unicode = 1E90B;
category = Letter;
subCategory = Uppercase;
},
{
glyphname = O_adlam;
production = uni1E90C;
lastChange = "2017-01-05 17:36:54 +0000";
layers = (
{
anchors = (
{
name = btm;
position = "{410, -45}";
},
{
name = top;
position = "{390, 755}";
}
);
layerId = "E766B743-DB28-463C-9986-895181A4C6C0";
paths = (
{
closed = 1;
nodes = (
"690 409 OFFCURVE",
"700 453 OFFCURVE",
"700 511 CURVE SMOOTH",
"700 606 OFFCURVE",
"614 734 OFFCURVE",
"439 734 CURVE SMOOTH",
"244 734 OFFCURVE",
"80 570 OFFCURVE",
"80 433 CURVE SMOOTH",
"80 291 LINE SMOOTH",
"80 176 OFFCURVE",
"93 0 OFFCURVE",
"296 0 CURVE SMOOTH",
"588 0 LINE SMOOTH",
"619 0 OFFCURVE",
"619 -16 OFFCURVE",
"632 -16 CURVE SMOOTH",
"639 -16 OFFCURVE",
"645 -10 OFFCURVE",
"657 3 CURVE SMOOTH",
"689 40 LINE SMOOTH",
"693 45 OFFCURVE",
"695 48 OFFCURVE",
"695 52 CURVE SMOOTH",
"695 67 OFFCURVE",
"661 75 OFFCURVE",
"619 75 CURVE SMOOTH",
"300 75 LINE SMOOTH",
"168 75 OFFCURVE",
"160 218 OFFCURVE",
"160 288 CURVE SMOOTH",
"160 428 LINE SMOOTH",
"160 572 OFFCURVE",
"217 667 OFFCURVE",
"399 667 CURVE SMOOTH",
"572 667 OFFCURVE",
"633 547 OFFCURVE",
"633 456 CURVE SMOOTH",
"633 426 OFFCURVE",
"629 389 OFFCURVE",
"614 371 CURVE SMOOTH",
"605 361 OFFCURVE",
"601 353 OFFCURVE",
"601 348 CURVE SMOOTH",
"601 344 OFFCURVE",
"604 340 OFFCURVE",
"612 340 CURVE SMOOTH",
"620 340 OFFCURVE",
"631 344 OFFCURVE",
"640 354 CURVE SMOOTH"
);
}
);
width = 740;
}
);
unicode = 1E90C;
category = Letter;
subCategory = Uppercase;
},
{
glyphname = Dha_adlam;
production = uni1E90D;
lastChange = "2017-01-05 17:36:54 +0000";
layers = (
{
anchors = (
{
name = btm;
position = "{356, -45}";
},
{
name = top;
position = "{355, 755}";
}
);
layerId = "E766B743-DB28-463C-9986-895181A4C6C0";
paths = (
{
closed = 1;
nodes = (
"650 653 LINE SMOOTH",
"650 722 OFFCURVE",
"636 735 OFFCURVE",
"621 735 CURVE SMOOTH",
"615 735 OFFCURVE",
"602 729 OFFCURVE",
"588 721 CURVE SMOOTH",
"555 702 LINE SMOOTH",
"540 693 OFFCURVE",
"528 688 OFFCURVE",
"528 680 CURVE SMOOTH",
"528 661 OFFCURVE",
"570 678 OFFCURVE",
"570 586 CURVE SMOOTH",
"570 449 LINE",
"526 491 OFFCURVE",
"463 521 OFFCURVE",
"378 521 CURVE SMOOTH",
"293 521 OFFCURVE",
"209 465 OFFCURVE",
"160 407 CURVE",
"160 653 LINE SMOOTH",
"160 722 OFFCURVE",
"146 735 OFFCURVE",
"131 735 CURVE SMOOTH",
"125 735 OFFCURVE",
"112 729 OFFCURVE",
"98 721 CURVE SMOOTH",
"65 702 LINE SMOOTH",
"50 693 OFFCURVE",
"38 688 OFFCURVE",
"38 680 CURVE SMOOTH",
"38 661 OFFCURVE",
"80 678 OFFCURVE",
"80 586 CURVE SMOOTH",
"80 238 LINE SMOOTH",
"80 22 OFFCURVE",
"209 -15 OFFCURVE",
"308 -15 CURVE SMOOTH",
"371 -15 OFFCURVE",
"480 2 OFFCURVE",
"564 94 CURVE",
"551 13 OFFCURVE",
"519 -2 OFFCURVE",
"519 -26 CURVE SMOOTH",
"519 -33 OFFCURVE",
"523 -35 OFFCURVE",
"528 -35 CURVE SMOOTH",
"536 -35 OFFCURVE",
"550 -20 OFFCURVE",
"572 5 CURVE SMOOTH",
"609 47 OFFCURVE",
"650 124 OFFCURVE",
"650 253 CURVE SMOOTH"
);
},
{
closed = 1;
nodes = (
"179 57 OFFCURVE",
"160 151 OFFCURVE",
"160 245 CURVE SMOOTH",
"160 338 LINE",
"192 405 OFFCURVE",
"258 454 OFFCURVE",
"338 454 CURVE SMOOTH",
"506 454 OFFCURVE",
"570 341 OFFCURVE",
"570 240 CURVE SMOOTH",
"570 163 LINE",
"507 75 OFFCURVE",
"409 57 OFFCURVE",
"354 57 CURVE SMOOTH"
);
}
);
width = 730;
}
);
unicode = 1E90D;
category = Letter;
subCategory = Uppercase;
},
{
glyphname = Yhe_adlam;
production = uni1E90E;
lastChange = "2017-01-05 17:36:54 +0000";
layers = (
{
anchors = (
{
name = btm;
position = "{360, -45}";
},
{
name = top;
position = "{350, 755}";
}
);
layerId = "E766B743-DB28-463C-9986-895181A4C6C0";
paths = (
{
closed = 1;
nodes = (
"651 67 OFFCURVE",
"617 75 OFFCURVE",
"575 75 CURVE SMOOTH",
"256 75 LINE SMOOTH",
"155 75 OFFCURVE",
"119 159 OFFCURVE",
"119 230 CURVE SMOOTH",
"119 398 OFFCURVE",
"205 445 OFFCURVE",
"288 445 CURVE SMOOTH",
"451 445 LINE SMOOTH",
"505 445 OFFCURVE",
"509 426 OFFCURVE",
"524 426 CURVE SMOOTH",
"533 426 OFFCURVE",
"545 433 OFFCURVE",
"562 456 CURVE SMOOTH",
"577 476 LINE SMOOTH",
"584 485 OFFCURVE",
"587 492 OFFCURVE",
"587 498 CURVE SMOOTH",
"587 520 OFFCURVE",
"542 520 OFFCURVE",
"528 520 CURVE SMOOTH",
"483 520 LINE",
"440 565 OFFCURVE",
"397 611 OFFCURVE",
"355 675 CURVE SMOOTH",
"321 727 OFFCURVE",
"332 739 OFFCURVE",
"321 739 CURVE SMOOTH",
"315 739 OFFCURVE",
"301 733 OFFCURVE",
"288 724 CURVE SMOOTH",
"254 700 LINE SMOOTH",
"246 695 OFFCURVE",
"232 686 OFFCURVE",
"232 678 CURVE SMOOTH",
"232 674 OFFCURVE",
"235 669 OFFCURVE",
"240 669 CURVE SMOOTH",
"259 669 OFFCURVE",
"266 660 OFFCURVE",
"281 639 CURVE SMOOTH",
"314 592 OFFCURVE",
"346 555 OFFCURVE",
"379 520 CURVE",
"269 520 LINE SMOOTH",
"229 520 OFFCURVE",
"40 426 OFFCURVE",
"40 228 CURVE SMOOTH",
"40 121 OFFCURVE",
"97 0 OFFCURVE",
"265 0 CURVE SMOOTH",
"544 0 LINE SMOOTH",
"575 0 OFFCURVE",
"575 -16 OFFCURVE",
"588 -16 CURVE SMOOTH",
"595 -16 OFFCURVE",
"601 -10 OFFCURVE",
"613 3 CURVE SMOOTH",
"645 40 LINE SMOOTH",
"649 45 OFFCURVE",
"651 48 OFFCURVE",
"651 52 CURVE SMOOTH"
);
}
);
width = 689;
}
);
unicode = 1E90E;
category = Letter;
subCategory = Uppercase;
},
{
glyphname = Waw_adlam;
production = uni1E90F;
lastChange = "2017-01-05 17:36:54 +0000";
layers = (
{
anchors = (
{
name = btm;
position = "{344, -45}";
},
{
name = top;
position = "{380, 755}";
}
);
layerId = "E766B743-DB28-463C-9986-895181A4C6C0";
paths = (
{
closed = 1;
nodes = (
"283 291 LINE SMOOTH",
"344 291 OFFCURVE",
"327 260 OFFCURVE",
"352 260 CURVE SMOOTH",
"357 260 OFFCURVE",
"364 274 OFFCURVE",
"369 286 CURVE SMOOTH",
"380 310 LINE SMOOTH",
"383 317 OFFCURVE",
"390 328 OFFCURVE",
"390 334 CURVE SMOOTH",
"390 361 OFFCURVE",
"335 366 OFFCURVE",
"321 366 CURVE SMOOTH",
"272 366 LINE SMOOTH",
"244 366 OFFCURVE",
"199 354 OFFCURVE",
"160 340 CURVE",
"160 473 LINE SMOOTH",
"160 575 OFFCURVE",
"201 660 OFFCURVE",
"357 660 CURVE SMOOTH",
"510 660 LINE",
"510 85 LINE SMOOTH",
"510 16 OFFCURVE",
"546 -15 OFFCURVE",
"561 -15 CURVE SMOOTH",
"567 -15 OFFCURVE",
"579 -6 OFFCURVE",
"591 4 CURVE SMOOTH",
"605 16 LINE SMOOTH",
"618 27 OFFCURVE",
"629 35 OFFCURVE",
"629 43 CURVE SMOOTH",
"629 62 OFFCURVE",
"590 42 OFFCURVE",
"590 134 CURVE SMOOTH",
"590 660 LINE",
"609 659 OFFCURVE",
"609 652 OFFCURVE",
"618 652 CURVE SMOOTH",
"625 652 OFFCURVE",
"631 656 OFFCURVE",
"641 672 CURVE SMOOTH",
"652 690 LINE SMOOTH",
"658 699 OFFCURVE",
"660 706 OFFCURVE",
"660 712 CURVE SMOOTH",
"660 731 OFFCURVE",
"635 735 OFFCURVE",
"604 735 CURVE SMOOTH",
"389 735 LINE SMOOTH",
"263 735 OFFCURVE",
"80 603 OFFCURVE",
"80 419 CURVE SMOOTH",
"80 85 LINE SMOOTH",
"80 16 OFFCURVE",
"116 -15 OFFCURVE",
"131 -15 CURVE SMOOTH",
"137 -15 OFFCURVE",
"149 -6 OFFCURVE",
"161 4 CURVE SMOOTH",
"175 16 LINE SMOOTH",
"188 27 OFFCURVE",
"199 35 OFFCURVE",
"199 43 CURVE SMOOTH",
"199 62 OFFCURVE",
"160 42 OFFCURVE",
"160 134 CURVE SMOOTH",
"160 288 LINE",
"175 290 OFFCURVE",
"193 291 OFFCURVE",
"215 291 CURVE SMOOTH"
);
}
);
width = 670;
}
);
unicode = 1E90F;
category = Letter;
subCategory = Uppercase;
},
{
glyphname = Nun_adlam;
production = uni1E910;
lastChange = "2017-01-05 17:36:54 +0000";
layers = (
{
anchors = (
{
name = btm;
position = "{350, -45}";
},
{
name = top;
position = "{345, 755}";
}
);
layerId = "E766B743-DB28-463C-9986-895181A4C6C0";
paths = (
{
closed = 1;
nodes = (
"170 571 LINE SMOOTH",
"177 580 OFFCURVE",
"180 584 OFFCURVE",
"180 588 CURVE SMOOTH",
"180 595 OFFCURVE",
"168 594 OFFCURVE",
"168 603 CURVE SMOOTH",
"168 637 OFFCURVE",
"217 665 OFFCURVE",
"309 665 CURVE SMOOTH",
"449 665 OFFCURVE",
"500 625 OFFCURVE",
"500 562 CURVE SMOOTH",
"500 496 OFFCURVE",
"411 455 OFFCURVE",
"312 418 CURVE SMOOTH",
"185 371 OFFCURVE",
"50 295 OFFCURVE",
"50 169 CURVE SMOOTH",
"50 72 OFFCURVE",
"109 0 OFFCURVE",
"279 0 CURVE SMOOTH",
"345 0 LINE",
"367 2 OFFCURVE",
"384 7 OFFCURVE",
"392 22 CURVE SMOOTH",
"407 49 LINE SMOOTH",
"410 54 OFFCURVE",
"424 74 OFFCURVE",
"424 85 CURVE SMOOTH",
"424 90 OFFCURVE",
"422 93 OFFCURVE",
"415 93 CURVE SMOOTH",
"393 93 OFFCURVE",
"391 75 OFFCURVE",
"345 75 CURVE SMOOTH",
"293 75 LINE SMOOTH",
"169 75 OFFCURVE",
"134 112 OFFCURVE",
"134 180 CURVE SMOOTH",
"134 281 OFFCURVE",
"206 336 OFFCURVE",
"324 379 CURVE SMOOTH",
"444 423 OFFCURVE",
"590 477 OFFCURVE",
"590 578 CURVE SMOOTH",
"590 679 OFFCURVE",
"475 735 OFFCURVE",
"373 735 CURVE SMOOTH",
"191 735 OFFCURVE",
"94 660 OFFCURVE",
"94 578 CURVE SMOOTH",
"94 558 OFFCURVE",
"108 529 OFFCURVE",
"125 529 CURVE SMOOTH",
"130 529 OFFCURVE",
"136 531 OFFCURVE",
"142 538 CURVE SMOOTH"
);
},
{
closed = 1;
nodes = (
"505 85 LINE",
"505 16 OFFCURVE",
"541 -15 OFFCURVE",
"556 -15 CURVE SMOOTH",
"562 -15 OFFCURVE",
"574 -6 OFFCURVE",
"586 4 CURVE SMOOTH",
"600 16 LINE SMOOTH",
"613 27 OFFCURVE",
"624 35 OFFCURVE",
"624 43 CURVE SMOOTH",
"624 62 OFFCURVE",
"585 42 OFFCURVE",
"585 134 CURVE SMOOTH",
"585 420 LINE SMOOTH",
"585 427 OFFCURVE",
"580 430 OFFCURVE",
"572 430 CURVE SMOOTH",
"561 430 OFFCURVE",
"505 406 OFFCURVE",
"505 386 CURVE SMOOTH"
);
}
);
width = 662;
}
);
unicode = 1E910;
category = Letter;
subCategory = Uppercase;
},
{
glyphname = Kaf_adlam;
production = uni1E911;
lastChange = "2017-01-05 17:36:54 +0000";
layers = (
{
anchors = (
{
name = btm;
position = "{410, -45}";
},
{
name = top;
position = "{410, 755}";
}
);
layerId = "E766B743-DB28-463C-9986-895181A4C6C0";
paths = (
{
closed = 1;
nodes = (
"73 359 OFFCURVE",
"118 372 OFFCURVE",
"151 372 CURVE SMOOTH",
"422 372 LINE",
"422 184 LINE SMOOTH",
"422 99 OFFCURVE",
"396 75 OFFCURVE",
"321 75 CURVE SMOOTH",
"183 75 LINE SMOOTH",
"144 75 OFFCURVE",
"141 112 OFFCURVE",
"127 112 CURVE SMOOTH",
"120 112 OFFCURVE",
"115 106 OFFCURVE",
"107 96 CURVE SMOOTH",
"57 36 LINE SMOOTH",
"52 30 OFFCURVE",
"48 22 OFFCURVE",
"48 16 CURVE SMOOTH",
"48 7 OFFCURVE",
"56 0 OFFCURVE",
"80 0 CURVE SMOOTH",
"273 0 LINE SMOOTH",
"441 0 OFFCURVE",
"502 169 OFFCURVE",
"502 254 CURVE SMOOTH",
"502 372 LINE",
"599 372 OFFCURVE",
"658 398 OFFCURVE",
"693 425 CURVE",
"693 85 LINE SMOOTH",
"693 16 OFFCURVE",
"729 -15 OFFCURVE",
"744 -15 CURVE SMOOTH",
"750 -15 OFFCURVE",
"762 -6 OFFCURVE",
"774 4 CURVE SMOOTH",
"788 16 LINE SMOOTH",
"801 27 OFFCURVE",
"812 35 OFFCURVE",
"812 43 CURVE SMOOTH",
"812 62 OFFCURVE",
"773 42 OFFCURVE",
"773 134 CURVE SMOOTH",
"773 590 LINE SMOOTH",
"773 659 OFFCURVE",
"759 672 OFFCURVE",
"744 672 CURVE SMOOTH",
"738 672 OFFCURVE",
"725 666 OFFCURVE",
"711 658 CURVE SMOOTH",
"678 639 LINE SMOOTH",
"663 630 OFFCURVE",
"651 625 OFFCURVE",
"651 617 CURVE SMOOTH",
"651 598 OFFCURVE",
"693 615 OFFCURVE",
"693 523 CURVE SMOOTH",
"693 473 LINE",
"667 461 OFFCURVE",
"627 447 OFFCURVE",
"560 447 CURVE SMOOTH",
"502 447 LINE",
"502 646 LINE",
"629 656 OFFCURVE",
"712 741 OFFCURVE",
"712 752 CURVE SMOOTH",
"712 758 OFFCURVE",
"712 764 OFFCURVE",
"707 764 CURVE SMOOTH",
"693 764 OFFCURVE",
"656 720 OFFCURVE",
"537 720 CURVE SMOOTH",
"98 720 LINE SMOOTH",
"70 720 OFFCURVE",
"60 709 OFFCURVE",
"48 694 CURVE SMOOTH",
"16 654 LINE SMOOTH",
"12 649 OFFCURVE",
"10 644 OFFCURVE",
"10 641 CURVE SMOOTH",
"10 635 OFFCURVE",
"16 632 OFFCURVE",
"27 632 CURVE SMOOTH",
"33 632 OFFCURVE",
"78 645 OFFCURVE",
"111 645 CURVE SMOOTH",
"422 645 LINE",
"422 447 LINE",
"138 447 LINE SMOOTH",
"110 447 OFFCURVE",
"100 436 OFFCURVE",
"88 421 CURVE SMOOTH",
"56 381 LINE SMOOTH",
"52 376 OFFCURVE",
"50 371 OFFCURVE",
"50 368 CURVE SMOOTH",
"50 362 OFFCURVE",
"56 359 OFFCURVE",
"67 359 CURVE SMOOTH"
);
}
);
width = 850;
}
);
unicode = 1E911;
category = Letter;
subCategory = Uppercase;
},
{
glyphname = Ya_adlam;
production = uni1E912;
lastChange = "2017-01-05 17:36:54 +0000";
layers = (
{
anchors = (
{
name = btm;
position = "{320, -45}";
},
{
name = top;
position = "{305, 755}";
}
);
layerId = "E766B743-DB28-463C-9986-895181A4C6C0";
paths = (
{
closed = 1;
nodes = (
"188 75 LINE SMOOTH",
"149 75 OFFCURVE",
"146 112 OFFCURVE",
"132 112 CURVE SMOOTH",
"125 112 OFFCURVE",
"120 106 OFFCURVE",
"112 96 CURVE SMOOTH",
"62 36 LINE SMOOTH",
"57 30 OFFCURVE",
"53 22 OFFCURVE",
"53 16 CURVE SMOOTH",
"53 7 OFFCURVE",
"61 0 OFFCURVE",
"85 0 CURVE SMOOTH",
"410 0 LINE SMOOTH",
"460 0 OFFCURVE",
"611 75 OFFCURVE",
"611 203 CURVE SMOOTH",
"611 290 OFFCURVE",
"550 372 OFFCURVE",
"454 408 CURVE",
"505 449 OFFCURVE",
"550 508 OFFCURVE",
"550 581 CURVE SMOOTH",
"550 655 OFFCURVE",
"481 720 OFFCURVE",
"350 720 CURVE SMOOTH",
"285 720 LINE SMOOTH",
"139 720 OFFCURVE",
"38 610 OFFCURVE",
"38 537 CURVE SMOOTH",
"38 519 OFFCURVE",
"42 512 OFFCURVE",
"49 512 CURVE SMOOTH",
"55 512 OFFCURVE",
"69 520 OFFCURVE",
"82 527 CURVE SMOOTH",
"109 542 LINE SMOOTH",
"138 558 OFFCURVE",
"145 566 OFFCURVE",
"145 573 CURVE SMOOTH",
"145 587 OFFCURVE",
"126 583 OFFCURVE",
"126 608 CURVE SMOOTH",
"126 638 OFFCURVE",
"181 650 OFFCURVE",
"281 650 CURVE SMOOTH",
"319 650 LINE SMOOTH",
"421 650 OFFCURVE",
"460 610 OFFCURVE",
"460 533 CURVE SMOOTH",
"460 477 OFFCURVE",
"437 442 OFFCURVE",
"416 419 CURVE",
"393 425 OFFCURVE",
"369 428 OFFCURVE",
"343 428 CURVE SMOOTH",
"301 428 LINE SMOOTH",
"245 428 OFFCURVE",
"155 386 OFFCURVE",
"119 350 CURVE SMOOTH",
"105 335 OFFCURVE",
"93 327 OFFCURVE",
"93 314 CURVE SMOOTH",
"93 306 OFFCURVE",
"99 303 OFFCURVE",
"105 303 CURVE SMOOTH",
"119 303 OFFCURVE",
"172 353 OFFCURVE",
"290 353 CURVE SMOOTH",
"354 353 LINE SMOOTH",
"473 353 OFFCURVE",
"534 278 OFFCURVE",
"534 178 CURVE SMOOTH",
"534 105 OFFCURVE",
"510 75 OFFCURVE",
"425 75 CURVE SMOOTH"
);
}
);
width = 671;
}
);
unicode = 1E912;
category = Letter;
subCategory = Uppercase;
},
{
glyphname = U_adlam;
production = uni1E913;
lastChange = "2017-01-05 17:36:54 +0000";
layers = (
{
anchors = (
{
name = btm;
position = "{390, -45}";
},
{
name = top;
position = "{390, 755}";
}
);
layerId = "E766B743-DB28-463C-9986-895181A4C6C0";
paths = (
{
closed = 1;
nodes = (
"675 653 LINE SMOOTH",
"675 722 OFFCURVE",
"661 735 OFFCURVE",
"646 735 CURVE SMOOTH",
"640 735 OFFCURVE",
"627 729 OFFCURVE",
"613 721 CURVE SMOOTH",
"580 702 LINE SMOOTH",
"565 693 OFFCURVE",
"553 688 OFFCURVE",
"553 680 CURVE SMOOTH",
"553 664 OFFCURVE",
"582 673 OFFCURVE",
"592 622 CURVE",
"567 563 OFFCURVE",
"524 489 OFFCURVE",
"467 445 CURVE",
"468 452 OFFCURVE",
"468 459 OFFCURVE",
"468 467 CURVE SMOOTH",
"468 572 OFFCURVE",
"414 735 OFFCURVE",
"255 735 CURVE SMOOTH",
"159 735 OFFCURVE",
"80 670 OFFCURVE",
"80 640 CURVE SMOOTH",
"80 242 LINE SMOOTH",
"80 67 OFFCURVE",
"212 -15 OFFCURVE",
"345 -15 CURVE SMOOTH",
"605 -15 OFFCURVE",
"675 195 OFFCURVE",
"675 232 CURVE SMOOTH"
);
},
{
closed = 1;
nodes = (
"251 60 OFFCURVE",
"160 75 OFFCURVE",
"160 249 CURVE SMOOTH",
"160 654 LINE SMOOTH",
"160 670 OFFCURVE",
"187 677 OFFCURVE",
"218 677 CURVE SMOOTH",
"324 677 OFFCURVE",
"383 566 OFFCURVE",
"383 455 CURVE SMOOTH",
"383 299 OFFCURVE",
"364 220 OFFCURVE",
"278 137 CURVE SMOOTH",
"273 132 OFFCURVE",
"271 129 OFFCURVE",
"271 126 CURVE SMOOTH",
"271 122 OFFCURVE",
"276 112 OFFCURVE",
"286 112 CURVE SMOOTH",
"290 112 OFFCURVE",
"294 114 OFFCURVE",
"299 117 CURVE SMOOTH",
"401 190 OFFCURVE",
"452 294 OFFCURVE",
"465 410 CURVE",
"518 437 OFFCURVE",
"562 478 OFFCURVE",
"595 516 CURVE",
"595 184 LINE SMOOTH",
"595 99 OFFCURVE",
"501 60 OFFCURVE",
"354 60 CURVE SMOOTH"
);
}
);
width = 755;
}
);
unicode = 1E913;
category = Letter;
subCategory = Uppercase;
},
{
glyphname = Jiim_adlam;
production = uni1E914;
lastChange = "2017-01-05 17:36:54 +0000";
layers = (
{
anchors = (
{
name = btm;
position = "{445, -45}";
},
{
name = top;
position = "{445, 755}";
}
);
layerId = "E766B743-DB28-463C-9986-895181A4C6C0";
paths = (
{
closed = 1;
nodes = (
"199 -23 OFFCURVE",
"160 -43 OFFCURVE",
"160 49 CURVE SMOOTH",
"160 518 LINE SMOOTH",
"160 605 OFFCURVE",
"189 657 OFFCURVE",
"266 657 CURVE SMOOTH",
"367 657 OFFCURVE",
"427 555 OFFCURVE",
"427 443 CURVE SMOOTH",
"427 325 OFFCURVE",
"405 242 OFFCURVE",
"324 164 CURVE SMOOTH",
"319 159 OFFCURVE",
"317 156 OFFCURVE",
"317 153 CURVE SMOOTH",
"317 149 OFFCURVE",
"322 139 OFFCURVE",
"332 139 CURVE SMOOTH",
"336 139 OFFCURVE",
"340 141 OFFCURVE",
"345 144 CURVE SMOOTH",
"462 228 OFFCURVE",
"512 337 OFFCURVE",
"512 464 CURVE SMOOTH",
"512 523 OFFCURVE",
"499 574 OFFCURVE",
"477 615 CURVE",
"520 649 OFFCURVE",
"569 668 OFFCURVE",
"618 668 CURVE SMOOTH",
"659 668 OFFCURVE",
"710 646 OFFCURVE",
"710 552 CURVE SMOOTH",
"710 184 LINE SMOOTH",
"710 99 OFFCURVE",
"684 75 OFFCURVE",
"609 75 CURVE SMOOTH",
"388 75 LINE SMOOTH",
"349 75 OFFCURVE",
"337 102 OFFCURVE",
"323 102 CURVE SMOOTH",
"316 102 OFFCURVE",
"311 96 OFFCURVE",
"303 86 CURVE SMOOTH",
"262 36 LINE SMOOTH",
"257 30 OFFCURVE",
"253 22 OFFCURVE",
"253 16 CURVE SMOOTH",
"253 7 OFFCURVE",
"261 0 OFFCURVE",
"285 0 CURVE SMOOTH",
"561 0 LINE SMOOTH",
"693 0 OFFCURVE",
"790 135 OFFCURVE",
"790 184 CURVE SMOOTH",
"790 555 LINE SMOOTH",
"790 684 OFFCURVE",
"740 735 OFFCURVE",
"646 735 CURVE SMOOTH",
"586 735 OFFCURVE",
"511 686 OFFCURVE",
"460 642 CURVE",
"418 702 OFFCURVE",
"355 735 OFFCURVE",
"288 735 CURVE SMOOTH",
"184 735 OFFCURVE",
"80 588 OFFCURVE",
"80 488 CURVE SMOOTH",
"80 0 LINE SMOOTH",
"80 -69 OFFCURVE",
"116 -100 OFFCURVE",
"131 -100 CURVE SMOOTH",
"137 -100 OFFCURVE",
"149 -91 OFFCURVE",
"161 -81 CURVE SMOOTH",
"175 -69 LINE SMOOTH",
"188 -58 OFFCURVE",
"199 -50 OFFCURVE",
"199 -42 CURVE SMOOTH"
);
}
);
width = 870;
}
);
unicode = 1E914;
category = Letter;
subCategory = Uppercase;
},
{
glyphname = Chi_adlam;
production = uni1E915;
lastChange = "2017-01-05 17:36:54 +0000";
layers = (
{
anchors = (
{
name = btm;
position = "{350, -45}";
},
{
name = top;
position = "{350, 755}";
}
);
layerId = "E766B743-DB28-463C-9986-895181A4C6C0";
paths = (
{
closed = 1;
nodes = (
"602 -15 OFFCURVE",
"614 -6 OFFCURVE",
"626 4 CURVE SMOOTH",
"640 16 LINE SMOOTH",
"653 27 OFFCURVE",
"664 35 OFFCURVE",
"664 43 CURVE SMOOTH",
"664 62 OFFCURVE",
"625 42 OFFCURVE",
"625 134 CURVE SMOOTH",
"625 492 LINE SMOOTH",
"625 653 OFFCURVE",
"497 720 OFFCURVE",
"383 720 CURVE SMOOTH",
"269 720 LINE SMOOTH",
"249 720 OFFCURVE",
"233 684 OFFCURVE",
"233 662 CURVE SMOOTH",
"233 652 OFFCURVE",
"236 645 OFFCURVE",
"243 645 CURVE SMOOTH",
"384 645 LINE SMOOTH",
"471 645 OFFCURVE",
"520 605 OFFCURVE",
"538 544 CURVE",
"495 466 OFFCURVE",
"363 451 OFFCURVE",
"280 451 CURVE SMOOTH",
"160 451 OFFCURVE",
"160 513 OFFCURVE",
"160 575 CURVE SMOOTH",
"160 653 LINE SMOOTH",
"160 722 OFFCURVE",
"146 735 OFFCURVE",
"131 735 CURVE SMOOTH",
"125 735 OFFCURVE",
"112 729 OFFCURVE",
"98 721 CURVE SMOOTH",
"65 702 LINE SMOOTH",
"50 693 OFFCURVE",
"38 688 OFFCURVE",
"38 680 CURVE SMOOTH",
"38 661 OFFCURVE",
"80 678 OFFCURVE",
"80 586 CURVE SMOOTH",
"80 516 LINE SMOOTH",
"80 452 OFFCURVE",
"123 405 OFFCURVE",
"182 387 CURVE",
"85 323 OFFCURVE",
"50 250 OFFCURVE",
"50 169 CURVE SMOOTH",
"50 58 OFFCURVE",
"145 0 OFFCURVE",
"255 0 CURVE SMOOTH",
"435 0 LINE SMOOTH",
"450 0 OFFCURVE",
"457 -8 OFFCURVE",
"462 -8 CURVE SMOOTH",
"466 -8 OFFCURVE",
"470 -3 OFFCURVE",
"476 13 CURVE SMOOTH",
"484 35 LINE SMOOTH",
"488 47 OFFCURVE",
"492 59 OFFCURVE",
"492 63 CURVE SMOOTH",
"492 71 OFFCURVE",
"481 75 OFFCURVE",
"466 75 CURVE SMOOTH",
"270 75 LINE SMOOTH",
"182 75 OFFCURVE",
"132 122 OFFCURVE",
"132 185 CURVE SMOOTH",
"132 257 OFFCURVE",
"137 328 OFFCURVE",
"227 379 CURVE",
"240 379 LINE SMOOTH",
"342 379 OFFCURVE",
"464 408 OFFCURVE",
"545 482 CURVE",
"545 85 LINE SMOOTH",
"545 16 OFFCURVE",
"581 -15 OFFCURVE",
"596 -15 CURVE SMOOTH"
);
}
);
width = 702;
}
);
unicode = 1E915;
category = Letter;
subCategory = Uppercase;
},
{
glyphname = Ha_adlam;
production = uni1E916;
lastChange = "2017-01-05 17:36:54 +0000";
layers = (
{
anchors = (
{
name = btm;
position = "{290, -45}";
},
{
name = top;
position = "{310, 755}";
}
);
layerId = "E766B743-DB28-463C-9986-895181A4C6C0";
paths = (
{
closed = 1;
nodes = (
"256 440 LINE SMOOTH",
"310 440 OFFCURVE",
"475 438 OFFCURVE",
"475 184 CURVE SMOOTH",
"475 99 OFFCURVE",
"449 75 OFFCURVE",
"374 75 CURVE SMOOTH",
"173 75 LINE SMOOTH",
"134 75 OFFCURVE",
"122 102 OFFCURVE",
"108 102 CURVE SMOOTH",
"101 102 OFFCURVE",
"96 96 OFFCURVE",
"88 86 CURVE SMOOTH",
"47 36 LINE SMOOTH",
"42 30 OFFCURVE",
"38 22 OFFCURVE",
"38 16 CURVE SMOOTH",
"38 7 OFFCURVE",
"46 0 OFFCURVE",
"70 0 CURVE SMOOTH",
"326 0 LINE SMOOTH",
"458 0 OFFCURVE",
"555 115 OFFCURVE",
"555 215 CURVE SMOOTH",
"555 493 OFFCURVE",
"344 514 OFFCURVE",
"250 514 CURVE SMOOTH",
"183 514 LINE",
"246 578 OFFCURVE",
"274 631 OFFCURVE",
"274 653 CURVE SMOOTH",
"274 711 OFFCURVE",
"260 735 OFFCURVE",
"245 735 CURVE SMOOTH",
"239 735 OFFCURVE",
"226 729 OFFCURVE",
"212 721 CURVE SMOOTH",
"179 702 LINE SMOOTH",
"164 693 OFFCURVE",
"152 688 OFFCURVE",
"152 680 CURVE SMOOTH",
"152 664 OFFCURVE",
"192 653 OFFCURVE",
"192 610 CURVE SMOOTH",
"192 584 OFFCURVE",
"184 573 OFFCURVE",
"164 546 CURVE SMOOTH",
"106 470 LINE SMOOTH",
"94 454 OFFCURVE",
"89 449 OFFCURVE",
"89 445 CURVE SMOOTH",
"89 440 OFFCURVE",
"93 440 OFFCURVE",
"98 440 CURVE SMOOTH"
);
}
);
width = 615;
}
);
unicode = 1E916;
category = Letter;
subCategory = Uppercase;
},
{
glyphname = Qaaf_adlam;
production = uni1E917;
lastChange = "2017-01-05 17:36:54 +0000";
layers = (
{
anchors = (
{
name = btm;
position = "{350, -45}";
},
{
name = top;
position = "{385, 755}";
}
);
layerId = "E766B743-DB28-463C-9986-895181A4C6C0";
paths = (
{
closed = 1;
nodes = (
"173 75 LINE SMOOTH",
"134 75 OFFCURVE",
"131 112 OFFCURVE",
"117 112 CURVE SMOOTH",
"110 112 OFFCURVE",
"105 106 OFFCURVE",
"97 96 CURVE SMOOTH",
"47 36 LINE SMOOTH",
"42 30 OFFCURVE",
"38 22 OFFCURVE",
"38 16 CURVE SMOOTH",
"38 7 OFFCURVE",
"46 0 OFFCURVE",
"70 0 CURVE SMOOTH",
"411 0 LINE SMOOTH",
"543 0 OFFCURVE",
"640 135 OFFCURVE",
"640 184 CURVE SMOOTH",
"640 653 LINE SMOOTH",
"640 722 OFFCURVE",
"626 735 OFFCURVE",
"611 735 CURVE SMOOTH",
"605 735 OFFCURVE",
"592 729 OFFCURVE",
"578 721 CURVE SMOOTH",
"545 702 LINE SMOOTH",
"530 693 OFFCURVE",
"518 688 OFFCURVE",
"518 680 CURVE SMOOTH",
"518 661 OFFCURVE",
"560 678 OFFCURVE",
"560 586 CURVE SMOOTH",
"560 471 LINE",
"518 413 OFFCURVE",
"472 365 OFFCURVE",
"393 351 CURVE",
"424 407 OFFCURVE",
"441 475 OFFCURVE",
"441 554 CURVE SMOOTH",
"441 612 OFFCURVE",
"418 735 OFFCURVE",
"287 735 CURVE SMOOTH",
"178 735 OFFCURVE",
"81 631 OFFCURVE",
"81 496 CURVE SMOOTH",
"81 413 OFFCURVE",
"128 297 OFFCURVE",
"278 282 CURVE",
"249 243 OFFCURVE",
"207 211 OFFCURVE",
"150 192 CURVE SMOOTH",
"139 189 OFFCURVE",
"136 186 OFFCURVE",
"136 176 CURVE SMOOTH",
"136 171 OFFCURVE",
"137 165 OFFCURVE",
"149 165 CURVE SMOOTH",
"151 165 OFFCURVE",
"162 167 OFFCURVE",
"165 169 CURVE",
"237 196 OFFCURVE",
"297 233 OFFCURVE",
"342 282 CURVE",
"440 294 OFFCURVE",
"514 363 OFFCURVE",
"560 416 CURVE",
"560 184 LINE SMOOTH",
"560 99 OFFCURVE",
"534 75 OFFCURVE",
"459 75 CURVE"
);
},
{
closed = 1;
nodes = (
"159 635 OFFCURVE",
"227 657 OFFCURVE",
"257 657 CURVE SMOOTH",
"329 657 OFFCURVE",
"349 594 OFFCURVE",
"349 518 CURVE SMOOTH",
"349 468 OFFCURVE",
"342 407 OFFCURVE",
"317 349 CURVE",
"192 358 OFFCURVE",
"159 428 OFFCURVE",
"159 522 CURVE SMOOTH"
);
}
);
width = 720;
}
);
unicode = 1E917;
category = Letter;
subCategory = Uppercase;
},
{
glyphname = Ga_adlam;
production = uni1E918;
lastChange = "2017-01-05 17:36:54 +0000";
layers = (
{
anchors = (
{
name = btm;
position = "{335, -45}";
},
{
name = top;
position = "{325, 755}";
}
);
layerId = "E766B743-DB28-463C-9986-895181A4C6C0";
paths = (
{
closed = 1;
nodes = (
"80 0 LINE SMOOTH",
"80 -69 OFFCURVE",
"116 -100 OFFCURVE",
"131 -100 CURVE SMOOTH",
"137 -100 OFFCURVE",
"149 -91 OFFCURVE",
"161 -81 CURVE SMOOTH",
"175 -69 LINE SMOOTH",
"188 -58 OFFCURVE",
"199 -50 OFFCURVE",
"199 -42 CURVE SMOOTH",
"199 -23 OFFCURVE",
"160 -43 OFFCURVE",
"160 49 CURVE SMOOTH",
"160 378 LINE",
"181 363 OFFCURVE",
"210 355 OFFCURVE",
"247 355 CURVE SMOOTH",
"352 355 LINE SMOOTH",
"460 355 OFFCURVE",
"540 312 OFFCURVE",
"540 195 CURVE SMOOTH",
"540 94 OFFCURVE",
"464 75 OFFCURVE",
"413 75 CURVE SMOOTH",
"319 75 LINE SMOOTH",
"280 75 OFFCURVE",
"276 95 OFFCURVE",
"263 95 CURVE SMOOTH",
"256 95 OFFCURVE",
"251 89 OFFCURVE",
"243 79 CURVE SMOOTH",
"207 36 LINE SMOOTH",
"202 30 OFFCURVE",
"198 22 OFFCURVE",
"198 16 CURVE SMOOTH",
"198 1 OFFCURVE",
"211 0 OFFCURVE",
"248 0 CURVE SMOOTH",
"378 0 LINE SMOOTH",
"488 0 OFFCURVE",
"620 94 OFFCURVE",
"620 215 CURVE SMOOTH",
"620 300 OFFCURVE",
"567 365 OFFCURVE",
"497 401 CURVE",
"554 439 OFFCURVE",
"590 500 OFFCURVE",
"590 592 CURVE SMOOTH",
"590 653 LINE SMOOTH",
"590 722 OFFCURVE",
"576 735 OFFCURVE",
"561 735 CURVE SMOOTH",
"555 735 OFFCURVE",
"542 729 OFFCURVE",
"528 721 CURVE SMOOTH",
"495 702 LINE SMOOTH",
"480 693 OFFCURVE",
"468 688 OFFCURVE",
"468 680 CURVE SMOOTH",
"468 661 OFFCURVE",
"510 678 OFFCURVE",
"510 586 CURVE SMOOTH",
"510 538 LINE SMOOTH",
"510 472 OFFCURVE",
"498 434 OFFCURVE",
"463 415 CURVE",
"435 424 OFFCURVE",
"405 430 OFFCURVE",
"376 430 CURVE SMOOTH",
"253 430 LINE SMOOTH",
"202 430 OFFCURVE",
"173 435 OFFCURVE",
"160 465 CURVE",
"160 653 LINE SMOOTH",
"160 722 OFFCURVE",
"146 735 OFFCURVE",
"131 735 CURVE SMOOTH",
"125 735 OFFCURVE",
"112 729 OFFCURVE",
"98 721 CURVE SMOOTH",
"65 702 LINE SMOOTH",
"50 693 OFFCURVE",
"38 688 OFFCURVE",
"38 680 CURVE SMOOTH",
"38 661 OFFCURVE",
"80 678 OFFCURVE",
"80 586 CURVE SMOOTH"
);
}
);
width = 650;
}
);
unicode = 1E918;
category = Letter;
subCategory = Uppercase;
},
{
glyphname = Nya_adlam;
production = uni1E919;
lastChange = "2017-01-05 17:36:54 +0000";
layers = (
{
anchors = (
{
name = btm;
position = "{325, -45}";
},
{
name = top;
position = "{350, 755}";
}
);
layerId = "E766B743-DB28-463C-9986-895181A4C6C0";
paths = (
{
closed = 1;
nodes = (
"609 700 OFFCURVE",
"492 735 OFFCURVE",
"356 735 CURVE SMOOTH",
"216 735 OFFCURVE",
"49 599 OFFCURVE",
"49 534 CURVE SMOOTH",
"49 463 OFFCURVE",
"119 430 OFFCURVE",
"208 404 CURVE",
"120 348 OFFCURVE",
"60 268 OFFCURVE",
"60 169 CURVE SMOOTH",
"60 72 OFFCURVE",
"119 0 OFFCURVE",
"257 0 CURVE SMOOTH",
"406 0 LINE SMOOTH",
"490 0 OFFCURVE",
"555 68 OFFCURVE",
"555 87 CURVE SMOOTH",
"555 90 OFFCURVE",
"553 92 OFFCURVE",
"550 92 CURVE SMOOTH",
"525 92 OFFCURVE",
"515 75 OFFCURVE",
"415 75 CURVE SMOOTH",
"260 75 LINE SMOOTH",
"184 75 OFFCURVE",
"145 112 OFFCURVE",
"145 195 CURVE SMOOTH",
"145 274 OFFCURVE",
"173 345 OFFCURVE",
"259 390 CURVE",
"407 352 OFFCURVE",
"578 317 OFFCURVE",
"578 165 CURVE SMOOTH",
"578 39 OFFCURVE",
"512 -26 OFFCURVE",
"460 -73 CURVE SMOOTH",
"456 -77 OFFCURVE",
"454 -80 OFFCURVE",
"454 -83 CURVE SMOOTH",
"454 -89 OFFCURVE",
"458 -99 OFFCURVE",
"468 -99 CURVE SMOOTH",
"472 -99 OFFCURVE",
"478 -97 OFFCURVE",
"481 -94 CURVE SMOOTH",
"568 -18 OFFCURVE",
"661 84 OFFCURVE",
"661 189 CURVE SMOOTH",
"661 464 OFFCURVE",
"134 446 OFFCURVE",
"134 550 CURVE SMOOTH",
"134 618 OFFCURVE",
"222 662 OFFCURVE",
"347 662 CURVE SMOOTH",
"450 662 OFFCURVE",
"540 626 OFFCURVE",
"540 538 CURVE SMOOTH",
"540 499 OFFCURVE",
"523 497 OFFCURVE",
"523 485 CURVE SMOOTH",
"523 476 OFFCURVE",
"525 473 OFFCURVE",
"536 473 CURVE SMOOTH",
"546 473 OFFCURVE",
"609 522 OFFCURVE",
"609 579 CURVE SMOOTH"
);
}
);
width = 698;
}
);
unicode = 1E919;
category = Letter;
subCategory = Uppercase;
},
{
glyphname = Tu_adlam;
production = uni1E91A;
lastChange = "2017-01-05 17:36:54 +0000";
layers = (
{
anchors = (
{
name = btm;
position = "{415, -45}";
},
{
name = top;
position = "{415, 755}";
}
);
layerId = "E766B743-DB28-463C-9986-895181A4C6C0";
paths = (
{
closed = 1;
nodes = (
"744 67 OFFCURVE",
"710 75 OFFCURVE",
"668 75 CURVE SMOOTH",
"492 75 LINE SMOOTH",
"456 75 OFFCURVE",
"449 82 OFFCURVE",
"449 138 CURVE SMOOTH",
"449 543 LINE SMOOTH",
"449 600 OFFCURVE",
"465 658 OFFCURVE",
"533 658 CURVE SMOOTH",
"631 658 OFFCURVE",
"659 555 OFFCURVE",
"659 443 CURVE SMOOTH",
"659 325 OFFCURVE",
"633 195 OFFCURVE",
"552 117 CURVE SMOOTH",
"547 112 OFFCURVE",
"545 109 OFFCURVE",
"545 106 CURVE SMOOTH",
"545 102 OFFCURVE",
"550 92 OFFCURVE",
"560 92 CURVE SMOOTH",
"564 92 OFFCURVE",
"568 94 OFFCURVE",
"573 97 CURVE SMOOTH",
"690 181 OFFCURVE",
"744 337 OFFCURVE",
"744 464 CURVE SMOOTH",
"744 632 OFFCURVE",
"646 735 OFFCURVE",
"557 735 CURVE SMOOTH",
"523 735 OFFCURVE",
"467 690 OFFCURVE",
"425 637 CURVE",
"394 693 OFFCURVE",
"347 735 OFFCURVE",
"288 735 CURVE SMOOTH",
"199 735 OFFCURVE",
"80 555 OFFCURVE",
"80 488 CURVE SMOOTH",
"80 0 LINE SMOOTH",
"80 -69 OFFCURVE",
"116 -100 OFFCURVE",
"131 -100 CURVE SMOOTH",
"137 -100 OFFCURVE",
"149 -91 OFFCURVE",
"161 -81 CURVE SMOOTH",
"175 -69 LINE SMOOTH",
"188 -58 OFFCURVE",
"199 -50 OFFCURVE",
"199 -42 CURVE SMOOTH",
"199 -23 OFFCURVE",
"160 -43 OFFCURVE",
"160 49 CURVE SMOOTH",
"160 539 LINE SMOOTH",
"160 610 OFFCURVE",
"189 657 OFFCURVE",
"253 657 CURVE SMOOTH",
"313 657 OFFCURVE",
"353 611 OFFCURVE",
"371 538 CURVE",
"369 531 OFFCURVE",
"369 525 OFFCURVE",
"369 519 CURVE SMOOTH",
"369 114 LINE SMOOTH",
"369 44 OFFCURVE",
"441 0 OFFCURVE",
"466 0 CURVE SMOOTH",
"637 0 LINE SMOOTH",
"668 0 OFFCURVE",
"668 -16 OFFCURVE",
"681 -16 CURVE SMOOTH",
"688 -16 OFFCURVE",
"694 -10 OFFCURVE",
"706 3 CURVE SMOOTH",
"738 40 LINE SMOOTH",
"742 45 OFFCURVE",
"744 48 OFFCURVE",
"744 52 CURVE SMOOTH"
);
}
);
width = 779;
}
);
unicode = 1E91A;
category = Letter;
subCategory = Uppercase;
},
{
glyphname = Nha_adlam;
production = uni1E91B;
lastChange = "2017-01-05 17:36:54 +0000";
layers = (
{
anchors = (
{
name = btm;
position = "{355, -45}";
},
{
name = top;
position = "{355, 755}";
}
);
layerId = "E766B743-DB28-463C-9986-895181A4C6C0";
paths = (
{
closed = 1;
nodes = (
"604 -100 OFFCURVE",
"616 -91 OFFCURVE",
"628 -81 CURVE SMOOTH",
"642 -69 LINE SMOOTH",
"655 -58 OFFCURVE",
"666 -50 OFFCURVE",
"666 -42 CURVE SMOOTH",
"666 -23 OFFCURVE",
"627 -30 OFFCURVE",
"627 62 CURVE SMOOTH",
"627 492 LINE SMOOTH",
"627 648 OFFCURVE",
"499 720 OFFCURVE",
"385 720 CURVE SMOOTH",
"163 720 LINE SMOOTH",
"143 720 OFFCURVE",
"134 705 OFFCURVE",
"120 676 CURVE SMOOTH",
"114 664 OFFCURVE",
"110 655 OFFCURVE",
"110 650 CURVE SMOOTH",
"110 647 OFFCURVE",
"112 645 OFFCURVE",
"115 645 CURVE SMOOTH",
"406 645 LINE SMOOTH",
"516 645 OFFCURVE",
"547 591 OFFCURVE",
"547 502 CURVE SMOOTH",
"547 384 LINE",
"507 424 OFFCURVE",
"462 448 OFFCURVE",
"418 462 CURVE",
"418 503 LINE SMOOTH",
"418 572 OFFCURVE",
"404 585 OFFCURVE",
"389 585 CURVE SMOOTH",
"383 585 OFFCURVE",
"370 579 OFFCURVE",
"356 571 CURVE SMOOTH",
"323 552 LINE SMOOTH",
"308 543 OFFCURVE",
"296 538 OFFCURVE",
"296 530 CURVE SMOOTH",
"296 514 OFFCURVE",
"323 523 OFFCURVE",
"334 477 CURVE",
"329 478 OFFCURVE",
"324 478 OFFCURVE",
"319 478 CURVE SMOOTH",
"155 478 OFFCURVE",
"50 349 OFFCURVE",
"50 218 CURVE SMOOTH",
"50 122 OFFCURVE",
"93 -15 OFFCURVE",
"242 -15 CURVE SMOOTH",
"348 -15 OFFCURVE",
"418 100 OFFCURVE",
"418 240 CURVE SMOOTH",
"418 398 LINE",
"469 371 OFFCURVE",
"519 320 OFFCURVE",
"547 223 CURVE",
"547 0 LINE SMOOTH",
"547 -69 OFFCURVE",
"583 -100 OFFCURVE",
"598 -100 CURVE SMOOTH"
);
},
{
closed = 1;
nodes = (
"180 60 OFFCURVE",
"135 128 OFFCURVE",
"135 236 CURVE SMOOTH",
"135 342 OFFCURVE",
"180 424 OFFCURVE",
"306 424 CURVE SMOOTH",
"316 424 OFFCURVE",
"326 423 OFFCURVE",
"338 422 CURVE",
"338 196 LINE SMOOTH",
"338 76 OFFCURVE",
"295 60 OFFCURVE",
"256 60 CURVE SMOOTH"
);
}
);
width = 714;
}
);
unicode = 1E91B;
category = Letter;
subCategory = Uppercase;
},
{
glyphname = Va_adlam;
production = uni1E91C;
lastChange = "2017-01-05 17:36:54 +0000";
layers = (
{
anchors = (
{
name = btm;
position = "{365, -45}";
},
{
name = top;
position = "{365, 755}";
}
);
layerId = "E766B743-DB28-463C-9986-895181A4C6C0";
paths = (
{
closed = 1;
nodes = (
"389 735 LINE SMOOTH",
"263 735 OFFCURVE",
"80 603 OFFCURVE",
"80 419 CURVE SMOOTH",
"80 85 LINE SMOOTH",
"80 16 OFFCURVE",
"116 -15 OFFCURVE",
"131 -15 CURVE SMOOTH",
"137 -15 OFFCURVE",
"149 -6 OFFCURVE",
"161 4 CURVE SMOOTH",
"175 16 LINE SMOOTH",
"188 27 OFFCURVE",
"199 35 OFFCURVE",
"199 43 CURVE SMOOTH",
"199 62 OFFCURVE",
"160 42 OFFCURVE",
"160 134 CURVE SMOOTH",
"160 473 LINE SMOOTH",
"160 575 OFFCURVE",
"201 660 OFFCURVE",
"357 660 CURVE SMOOTH",
"510 660 LINE",
"510 401 LINE",
"489 398 OFFCURVE",
"461 396 OFFCURVE",
"423 396 CURVE SMOOTH",
"380 396 LINE SMOOTH",
"341 396 OFFCURVE",
"340 411 OFFCURVE",
"326 411 CURVE SMOOTH",
"319 411 OFFCURVE",
"314 405 OFFCURVE",
"306 395 CURVE SMOOTH",
"273 357 LINE SMOOTH",
"268 351 OFFCURVE",
"264 343 OFFCURVE",
"264 337 CURVE SMOOTH",
"264 328 OFFCURVE",
"272 321 OFFCURVE",
"296 321 CURVE SMOOTH",
"374 321 LINE SMOOTH",
"416 321 OFFCURVE",
"468 337 OFFCURVE",
"510 353 CURVE",
"510 85 LINE SMOOTH",
"510 16 OFFCURVE",
"546 -15 OFFCURVE",
"561 -15 CURVE SMOOTH",
"567 -15 OFFCURVE",
"579 -6 OFFCURVE",
"591 4 CURVE SMOOTH",
"605 16 LINE SMOOTH",
"618 27 OFFCURVE",
"629 35 OFFCURVE",
"629 43 CURVE SMOOTH",
"629 62 OFFCURVE",
"590 42 OFFCURVE",
"590 134 CURVE SMOOTH",
"590 652 LINE",
"596 653 OFFCURVE",
"602 657 OFFCURVE",
"611 672 CURVE SMOOTH",
"622 690 LINE SMOOTH",
"628 699 OFFCURVE",
"630 706 OFFCURVE",
"630 712 CURVE SMOOTH",
"630 731 OFFCURVE",
"605 735 OFFCURVE",
"574 735 CURVE"
);
}
);
width = 660;
}
);
unicode = 1E91C;
category = Letter;
subCategory = Uppercase;
},
{
glyphname = Kha_adlam;
production = uni1E91D;
lastChange = "2017-01-05 17:36:54 +0000";
layers = (
{
anchors = (
{
name = btm;
position = "{420, -45}";
},
{
name = top;
position = "{420, 755}";
}
);
layerId = "E766B743-DB28-463C-9986-895181A4C6C0";
paths = (
{
closed = 1;
nodes = (
"293 720 LINE SMOOTH",
"273 720 OFFCURVE",
"264 705 OFFCURVE",
"250 676 CURVE SMOOTH",
"244 664 OFFCURVE",
"240 655 OFFCURVE",
"240 650 CURVE SMOOTH",
"240 647 OFFCURVE",
"242 645 OFFCURVE",
"245 645 CURVE SMOOTH",
"350 645 LINE",
"350 425 LINE",
"160 425 LINE",
"160 653 LINE SMOOTH",
"160 722 OFFCURVE",
"146 735 OFFCURVE",
"131 735 CURVE SMOOTH",
"125 735 OFFCURVE",
"112 729 OFFCURVE",
"98 721 CURVE SMOOTH",
"65 702 LINE SMOOTH",
"50 693 OFFCURVE",
"38 688 OFFCURVE",
"38 680 CURVE SMOOTH",
"38 661 OFFCURVE",
"80 678 OFFCURVE",
"80 586 CURVE SMOOTH",
"80 85 LINE SMOOTH",
"80 16 OFFCURVE",
"116 -15 OFFCURVE",
"131 -15 CURVE SMOOTH",
"137 -15 OFFCURVE",
"149 -6 OFFCURVE",
"161 4 CURVE SMOOTH",
"175 16 LINE SMOOTH",
"188 27 OFFCURVE",
"199 35 OFFCURVE",
"199 43 CURVE SMOOTH",
"199 62 OFFCURVE",
"160 42 OFFCURVE",
"160 134 CURVE SMOOTH",
"160 350 LINE",
"350 350 LINE",
"350 114 LINE SMOOTH",
"350 44 OFFCURVE",
"422 0 OFFCURVE",
"447 0 CURVE SMOOTH",
"671 0 LINE SMOOTH",
"702 0 OFFCURVE",
"702 -16 OFFCURVE",
"715 -16 CURVE SMOOTH",
"722 -16 OFFCURVE",
"728 -10 OFFCURVE",
"740 3 CURVE SMOOTH",
"772 40 LINE SMOOTH",
"776 45 OFFCURVE",
"778 48 OFFCURVE",
"778 52 CURVE SMOOTH",
"778 67 OFFCURVE",
"744 75 OFFCURVE",
"702 75 CURVE SMOOTH",
"473 75 LINE SMOOTH",
"437 75 OFFCURVE",
"430 82 OFFCURVE",
"430 138 CURVE SMOOTH",
"430 350 LINE",
"490 350 LINE SMOOTH",
"678 350 OFFCURVE",
"725 446 OFFCURVE",
"725 457 CURVE SMOOTH",
"725 463 OFFCURVE",
"725 469 OFFCURVE",
"720 469 CURVE SMOOTH",
"706 469 OFFCURVE",
"669 425 OFFCURVE",
"550 425 CURVE SMOOTH",
"430 425 LINE",
"430 645 LINE",
"630 645 LINE SMOOTH",
"712 645 OFFCURVE",
"771 711 OFFCURVE",
"771 726 CURVE SMOOTH",
"771 729 OFFCURVE",
"768 731 OFFCURVE",
"763 731 CURVE SMOOTH",
"748 731 OFFCURVE",
"728 720 OFFCURVE",
"639 720 CURVE SMOOTH"
);
}
);
width = 826;
}
);
unicode = 1E91D;
category = Letter;
subCategory = Uppercase;
},
{
glyphname = Gbe_adlam;
production = uni1E91E;
lastChange = "2017-01-05 17:36:54 +0000";
layers = (
{
anchors = (
{
name = btm;
position = "{330, -45}";
},
{
name = top;
position = "{340, 755}";
}
);
layerId = "E766B743-DB28-463C-9986-895181A4C6C0";
paths = (
{
closed = 1;
nodes = (
"489 85 LINE SMOOTH",
"489 16 OFFCURVE",
"525 -15 OFFCURVE",
"540 -15 CURVE SMOOTH",
"546 -15 OFFCURVE",
"558 -6 OFFCURVE",
"570 4 CURVE SMOOTH",
"584 16 LINE SMOOTH",
"597 27 OFFCURVE",
"608 35 OFFCURVE",
"608 43 CURVE SMOOTH",
"608 62 OFFCURVE",
"569 42 OFFCURVE",
"569 134 CURVE SMOOTH",
"569 558 LINE SMOOTH",
"569 611 OFFCURVE",
"566 628 OFFCURVE",
"550 628 CURVE SMOOTH",
"545 628 OFFCURVE",
"539 626 OFFCURVE",
"532 624 CURVE SMOOTH",
"499 614 OFFCURVE",
"480 607 OFFCURVE",
"480 592 CURVE SMOOTH",
"480 575 OFFCURVE",
"489 566 OFFCURVE",
"489 518 CURVE SMOOTH",
"489 428 LINE",
"441 350 OFFCURVE",
"368 340 OFFCURVE",
"311 340 CURVE SMOOTH",
"215 340 OFFCURVE",
"152 382 OFFCURVE",
"152 501 CURVE SMOOTH",
"152 617 OFFCURVE",
"219 645 OFFCURVE",
"281 645 CURVE SMOOTH",
"342 645 LINE SMOOTH",
"507 645 OFFCURVE",
"604 740 OFFCURVE",
"604 758 CURVE SMOOTH",
"604 763 OFFCURVE",
"603 764 OFFCURVE",
"599 764 CURVE SMOOTH",
"594 764 OFFCURVE",
"575 754 OFFCURVE",
"567 751 CURVE SMOOTH",
"490 721 OFFCURVE",
"456 720 OFFCURVE",
"407 720 CURVE SMOOTH",
"342 720 LINE SMOOTH",
"212 720 OFFCURVE",
"70 585 OFFCURVE",
"70 462 CURVE SMOOTH",
"70 364 OFFCURVE",
"123 295 OFFCURVE",
"222 275 CURVE",
"97 183 OFFCURVE",
"65 120 OFFCURVE",
"65 57 CURVE SMOOTH",
"65 9 OFFCURVE",
"108 -15 OFFCURVE",
"121 -15 CURVE SMOOTH",
"127 -15 OFFCURVE",
"139 -6 OFFCURVE",
"151 4 CURVE SMOOTH",
"165 16 LINE SMOOTH",
"178 27 OFFCURVE",
"189 35 OFFCURVE",
"189 43 CURVE SMOOTH",
"189 59 OFFCURVE",
"145 50 OFFCURVE",
"145 99 CURVE SMOOTH",
"145 107 OFFCURVE",
"150 191 OFFCURVE",
"273 270 CURVE",
"281 270 LINE SMOOTH",
"378 270 OFFCURVE",
"440 325 OFFCURVE",
"489 367 CURVE"
);
},
{
closed = 1;
nodes = (
"229 528 OFFCURVE",
"221 514 OFFCURVE",
"208 483 CURVE SMOOTH",
"203 472 OFFCURVE",
"199 463 OFFCURVE",
"199 457 CURVE SMOOTH",
"199 454 OFFCURVE",
"201 452 OFFCURVE",
"204 452 CURVE SMOOTH",
"225 451 OFFCURVE",
"257 448 OFFCURVE",
"278 448 CURVE SMOOTH",
"338 448 OFFCURVE",
"396 478 OFFCURVE",
"427 506 CURVE SMOOTH",
"437 515 OFFCURVE",
"449 528 OFFCURVE",
"449 536 CURVE SMOOTH",
"449 539 OFFCURVE",
"447 540 OFFCURVE",
"444 540 CURVE SMOOTH",
"440 540 OFFCURVE",
"434 538 OFFCURVE",
"433 537 CURVE SMOOTH",
"411 530 OFFCURVE",
"387 523 OFFCURVE",
"314 523 CURVE SMOOTH",
"292 523 OFFCURVE",
"259 528 OFFCURVE",
"248 528 CURVE SMOOTH"
);
}
);
width = 666;
}
);
unicode = 1E91E;
category = Letter;
subCategory = Uppercase;
},
{
glyphname = Zal_adlam;
production = uni1E91F;
lastChange = "2017-01-05 17:36:54 +0000";
layers = (
{
anchors = (
{
name = btm;
position = "{360, -45}";
},
{
name = top;
position = "{360, 755}";
}
);
layerId = "E766B743-DB28-463C-9986-895181A4C6C0";
paths = (
{
closed = 1;
nodes = (
"453 466 LINE",
"453 385 OFFCURVE",
"411 368 OFFCURVE",
"356 364 CURVE",
"356 541 LINE SMOOTH",
"356 597 OFFCURVE",
"398 673 OFFCURVE",
"491 673 CURVE SMOOTH",
"568 673 OFFCURVE",
"568 597 OFFCURVE",
"568 514 CURVE SMOOTH",
"568 85 LINE SMOOTH",
"568 16 OFFCURVE",
"604 -15 OFFCURVE",
"619 -15 CURVE SMOOTH",
"625 -15 OFFCURVE",
"637 -6 OFFCURVE",
"649 4 CURVE SMOOTH",
"663 16 LINE SMOOTH",
"676 27 OFFCURVE",
"687 35 OFFCURVE",
"687 43 CURVE SMOOTH",
"687 62 OFFCURVE",
"648 42 OFFCURVE",
"648 134 CURVE SMOOTH",
"648 533 LINE SMOOTH",
"648 633 OFFCURVE",
"643 735 OFFCURVE",
"544 735 CURVE SMOOTH",
"398 735 OFFCURVE",
"276 578 OFFCURVE",
"276 523 CURVE SMOOTH",
"276 366 LINE",
"228 370 OFFCURVE",
"190 381 OFFCURVE",
"160 398 CURVE",
"160 653 LINE SMOOTH",
"160 722 OFFCURVE",
"146 735 OFFCURVE",
"131 735 CURVE SMOOTH",
"125 735 OFFCURVE",
"112 729 OFFCURVE",
"98 721 CURVE SMOOTH",
"65 702 LINE SMOOTH",
"50 693 OFFCURVE",
"38 688 OFFCURVE",
"38 680 CURVE SMOOTH",
"38 661 OFFCURVE",
"80 678 OFFCURVE",
"80 586 CURVE SMOOTH",
"80 114 LINE SMOOTH",
"80 44 OFFCURVE",
"152 0 OFFCURVE",
"177 0 CURVE SMOOTH",
"356 0 LINE SMOOTH",
"440 0 OFFCURVE",
"505 68 OFFCURVE",
"505 87 CURVE SMOOTH",
"505 90 OFFCURVE",
"503 92 OFFCURVE",
"500 92 CURVE SMOOTH",
"475 92 OFFCURVE",
"465 75 OFFCURVE",
"365 75 CURVE SMOOTH",
"203 75 LINE SMOOTH",
"167 75 OFFCURVE",
"160 82 OFFCURVE",
"160 138 CURVE SMOOTH",
"160 304 LINE",
"187 297 OFFCURVE",
"221 292 OFFCURVE",
"261 292 CURVE SMOOTH",
"276 292 LINE",
"276 186 LINE SMOOTH",
"276 117 OFFCURVE",
"302 104 OFFCURVE",
"317 104 CURVE SMOOTH",
"323 104 OFFCURVE",
"324 104 OFFCURVE",
"336 115 CURVE SMOOTH",
"367 143 LINE SMOOTH",
"383 158 OFFCURVE",
"389 165 OFFCURVE",
"389 170 CURVE SMOOTH",
"389 186 OFFCURVE",
"356 176 OFFCURVE",
"356 219 CURVE SMOOTH",
"356 307 LINE",
"427 331 OFFCURVE",
"491 386 OFFCURVE",
"536 490 CURVE"
);
}
);
width = 735;
}
);
unicode = 1E91F;
category = Letter;
subCategory = Uppercase;
},
{
glyphname = Kpo_adlam;
production = uni1E920;
lastChange = "2017-01-05 17:36:54 +0000";
layers = (
{
anchors = (
{
name = btm;
position = "{315, -45}";
},
{
name = top;
position = "{305, 755}";
}
);
layerId = "E766B743-DB28-463C-9986-895181A4C6C0";
paths = (
{
closed = 1;
nodes = (
"125 735 OFFCURVE",
"112 729 OFFCURVE",
"98 721 CURVE SMOOTH",
"65 702 LINE SMOOTH",
"50 693 OFFCURVE",
"38 688 OFFCURVE",
"38 680 CURVE SMOOTH",
"38 661 OFFCURVE",
"80 678 OFFCURVE",
"80 586 CURVE SMOOTH",
"80 114 LINE SMOOTH",
"80 44 OFFCURVE",
"152 0 OFFCURVE",
"177 0 CURVE SMOOTH",
"431 0 LINE SMOOTH",
"462 0 OFFCURVE",
"462 -16 OFFCURVE",
"475 -16 CURVE SMOOTH",
"482 -16 OFFCURVE",
"488 -10 OFFCURVE",
"500 3 CURVE SMOOTH",
"532 40 LINE SMOOTH",
"536 45 OFFCURVE",
"538 48 OFFCURVE",
"538 52 CURVE SMOOTH",
"538 67 OFFCURVE",
"504 75 OFFCURVE",
"462 75 CURVE SMOOTH",
"203 75 LINE SMOOTH",
"167 75 OFFCURVE",
"160 82 OFFCURVE",
"160 138 CURVE SMOOTH",
"160 614 LINE",
"190 643 OFFCURVE",
"241 673 OFFCURVE",
"299 673 CURVE SMOOTH",
"435 673 OFFCURVE",
"457 549 OFFCURVE",
"457 474 CURVE SMOOTH",
"457 347 OFFCURVE",
"398 302 OFFCURVE",
"327 302 CURVE SMOOTH",
"291 302 OFFCURVE",
"248 303 OFFCURVE",
"226 355 CURVE SMOOTH",
"223 363 OFFCURVE",
"219 365 OFFCURVE",
"215 365 CURVE SMOOTH",
"210 365 OFFCURVE",
"205 360 OFFCURVE",
"203 346 CURVE SMOOTH",
"195 289 LINE SMOOTH",
"195 286 OFFCURVE",
"193 273 OFFCURVE",
"193 270 CURVE SMOOTH",
"193 245 OFFCURVE",
"249 227 OFFCURVE",
"313 227 CURVE SMOOTH",
"355 227 OFFCURVE",
"426 269 OFFCURVE",
"481 351 CURVE SMOOTH",
"508 391 OFFCURVE",
"545 446 OFFCURVE",
"545 499 CURVE SMOOTH",
"545 589 OFFCURVE",
"502 735 OFFCURVE",
"327 735 CURVE SMOOTH",
"252 735 OFFCURVE",
"192 685 OFFCURVE",
"160 657 CURVE",
"159 722 OFFCURVE",
"145 735 OFFCURVE",
"131 735 CURVE SMOOTH"
);
}
);
width = 593;
}
);
unicode = 1E920;
category = Letter;
subCategory = Uppercase;
},
{
glyphname = Sha_adlam;
production = uni1E921;
lastChange = "2017-01-05 17:36:54 +0000";
layers = (
{
anchors = (
{
name = btm;
position = "{390, -45}";
},
{
name = top;
position = "{390, 755}";
}
);
layerId = "E766B743-DB28-463C-9986-895181A4C6C0";
paths = (
{
closed = 1;
nodes = (
"460 653 LINE SMOOTH",
"460 722 OFFCURVE",
"446 735 OFFCURVE",
"431 735 CURVE SMOOTH",
"425 735 OFFCURVE",
"412 729 OFFCURVE",
"398 721 CURVE SMOOTH",
"365 702 LINE SMOOTH",
"350 693 OFFCURVE",
"338 688 OFFCURVE",
"338 680 CURVE SMOOTH",
"338 661 OFFCURVE",
"380 678 OFFCURVE",
"380 586 CURVE SMOOTH",
"380 281 LINE",
"378 281 LINE SMOOTH",
"261 281 OFFCURVE",
"193 318 OFFCURVE",
"160 370 CURVE",
"160 653 LINE SMOOTH",
"160 722 OFFCURVE",
"146 735 OFFCURVE",
"131 735 CURVE SMOOTH",
"125 735 OFFCURVE",
"112 729 OFFCURVE",
"98 721 CURVE SMOOTH",
"65 702 LINE SMOOTH",
"50 693 OFFCURVE",
"38 688 OFFCURVE",
"38 680 CURVE SMOOTH",
"38 661 OFFCURVE",
"80 678 OFFCURVE",
"80 586 CURVE SMOOTH",
"80 13 LINE SMOOTH",
"80 -56 OFFCURVE",
"116 -87 OFFCURVE",
"131 -87 CURVE SMOOTH",
"137 -87 OFFCURVE",
"149 -78 OFFCURVE",
"161 -68 CURVE SMOOTH",
"175 -56 LINE SMOOTH",
"188 -45 OFFCURVE",
"199 -37 OFFCURVE",
"199 -29 CURVE SMOOTH",
"199 -10 OFFCURVE",
"160 -30 OFFCURVE",
"160 62 CURVE SMOOTH",
"160 257 LINE",
"230 221 OFFCURVE",
"308 209 OFFCURVE",
"368 209 CURVE SMOOTH",
"380 209 LINE",
"380 114 LINE SMOOTH",
"380 44 OFFCURVE",
"452 0 OFFCURVE",
"477 0 CURVE SMOOTH",
"631 0 LINE SMOOTH",
"662 0 OFFCURVE",
"662 -16 OFFCURVE",
"675 -16 CURVE SMOOTH",
"682 -16 OFFCURVE",
"688 -10 OFFCURVE",
"700 3 CURVE SMOOTH",
"732 40 LINE SMOOTH",
"736 45 OFFCURVE",
"738 48 OFFCURVE",
"738 52 CURVE SMOOTH",
"738 67 OFFCURVE",
"704 75 OFFCURVE",
"662 75 CURVE SMOOTH",
"503 75 LINE SMOOTH",
"467 75 OFFCURVE",
"460 82 OFFCURVE",
"460 138 CURVE SMOOTH",
"460 228 LINE",
"566 266 OFFCURVE",
"700 364 OFFCURVE",
"700 542 CURVE SMOOTH",
"700 653 LINE SMOOTH",
"700 722 OFFCURVE",
"686 735 OFFCURVE",
"671 735 CURVE SMOOTH",
"665 735 OFFCURVE",
"652 729 OFFCURVE",
"638 721 CURVE SMOOTH",
"605 702 LINE SMOOTH",
"590 693 OFFCURVE",
"578 688 OFFCURVE",
"578 680 CURVE SMOOTH",
"578 661 OFFCURVE",
"620 678 OFFCURVE",
"620 586 CURVE SMOOTH",
"620 503 LINE SMOOTH",
"620 361 OFFCURVE",
"559 304 OFFCURVE",
"460 287 CURVE"
);
}
);
width = 786;
}
);
unicode = 1E921;
category = Letter;
subCategory = Uppercase;
},
{
glyphname = alif_adlam;
production = uni1E922;
lastChange = "2017-01-05 17:36:54 +0000";
layers = (
{
anchors = (
{
name = btm;
position = "{295, -45}";
},
{
name = top;
position = "{380, 580}";
}
);
layerId = "E766B743-DB28-463C-9986-895181A4C6C0";
paths = (
{
closed = 1;
nodes = (
"338 460 LINE",
"406 439 OFFCURVE",
"474 336 OFFCURVE",
"474 223 CURVE SMOOTH",
"474 129 OFFCURVE",
"412 62 OFFCURVE",
"302 62 CURVE SMOOTH",
"185 62 OFFCURVE",
"160 148 OFFCURVE",
"160 222 CURVE SMOOTH",
"160 688 LINE SMOOTH",
"160 757 OFFCURVE",
"146 770 OFFCURVE",
"131 770 CURVE SMOOTH",
"125 770 OFFCURVE",
"112 764 OFFCURVE",
"98 756 CURVE SMOOTH",
"71 741 LINE SMOOTH",
"59 734 OFFCURVE",
"44 727 OFFCURVE",
"44 719 CURVE SMOOTH",
"44 700 OFFCURVE",
"80 713 OFFCURVE",
"80 621 CURVE SMOOTH",
"80 213 LINE SMOOTH",
"80 120 OFFCURVE",
"105 -12 OFFCURVE",
"279 -12 CURVE SMOOTH",
"366 -12 OFFCURVE",
"557 142 OFFCURVE",
"557 228 CURVE SMOOTH",
"557 276 OFFCURVE",
"538 412 OFFCURVE",
"445 484 CURVE",
"522 513 OFFCURVE",
"545 562 OFFCURVE",
"545 570 CURVE SMOOTH",
"545 576 OFFCURVE",
"545 582 OFFCURVE",
"540 582 CURVE SMOOTH",
"526 582 OFFCURVE",
"489 538 OFFCURVE",
"370 538 CURVE SMOOTH",
"298 538 LINE SMOOTH",
"264 538 OFFCURVE",
"252 517 OFFCURVE",
"248 512 CURVE",
"229 482 LINE SMOOTH",
"225 477 OFFCURVE",
"223 472 OFFCURVE",
"223 469 CURVE SMOOTH",
"223 463 OFFCURVE",
"229 460 OFFCURVE",
"240 460 CURVE SMOOTH"
);
}
);
width = 597;
}
);
unicode = 1E922;
category = Letter;
subCategory = Lowercase;
},
{
glyphname = daali_adlam;
production = uni1E923;
lastChange = "2017-01-05 17:36:54 +0000";
layers = (
{
anchors = (
{
name = btm;
position = "{280, -45}";
},
{
name = top;
position = "{200, 580}";
}
);
hints = (
{
place = "{125, 90}";
},
{
place = "{581, 90}";
},
{
place = "{66, 495}";
},
{
place = "{113, 88}";
},
{
place = "{478, 87}";
},
{
place = "{67, 392}";
},
{
horizontal = 1;
place = "{0, 21}";
target = up;
type = BottomGhost;
},
{
horizontal = 1;
place = "{333, 79}";
},
{
horizontal = 1;
place = "{714, -20}";
target = down;
type = TopGhost;
},
{
horizontal = 1;
place = "{0, 80}";
},
{
horizontal = 1;
place = "{634, 80}";
},
{
horizontal = 1;
place = "{0, 21}";
target = up;
type = BottomGhost;
},
{
horizontal = 1;
place = "{472, 74}";
},
{
horizontal = 1;
place = "{536, -20}";
target = down;
type = TopGhost;
},
{
horizontal = 1;
place = "{0, 68}";
},
{
horizontal = 1;
place = "{468, 68}";
}
);
layerId = "E766B743-DB28-463C-9986-895181A4C6C0";
paths = (
{
closed = 1;
nodes = (
"496 688 LINE SMOOTH",
"496 757 OFFCURVE",
"482 770 OFFCURVE",
"467 770 CURVE SMOOTH",
"461 770 OFFCURVE",
"448 764 OFFCURVE",
"434 756 CURVE SMOOTH",
"407 741 LINE SMOOTH",
"391 732 OFFCURVE",
"380 727 OFFCURVE",
"380 719 CURVE SMOOTH",
"380 700 OFFCURVE",
"416 713 OFFCURVE",
"416 621 CURVE SMOOTH",
"416 221 LINE",
"324 291 OFFCURVE",
"154 263 OFFCURVE",
"154 365 CURVE SMOOTH",
"154 468 LINE SMOOTH",
"154 537 OFFCURVE",
"140 550 OFFCURVE",
"125 550 CURVE SMOOTH",
"119 550 OFFCURVE",
"106 544 OFFCURVE",
"92 536 CURVE SMOOTH",
"65 521 LINE SMOOTH",
"49 512 OFFCURVE",
"38 507 OFFCURVE",
"38 499 CURVE SMOOTH",
"38 480 OFFCURVE",
"74 493 OFFCURVE",
"74 401 CURVE SMOOTH",
"74 338 LINE SMOOTH",
"74 186 OFFCURVE",
"358 238 OFFCURVE",
"411 126 CURVE",
"401 84 OFFCURVE",
"372 75 OFFCURVE",
"315 75 CURVE SMOOTH",
"179 75 LINE SMOOTH",
"140 75 OFFCURVE",
"129 101 OFFCURVE",
"115 101 CURVE SMOOTH",
"108 101 OFFCURVE",
"103 96 OFFCURVE",
"95 86 CURVE SMOOTH",
"53 36 LINE SMOOTH",
"48 30 OFFCURVE",
"44 22 OFFCURVE",
"44 16 CURVE SMOOTH",
"44 7 OFFCURVE",
"52 0 OFFCURVE",
"76 0 CURVE SMOOTH",
"267 0 LINE SMOOTH",
"321 0 OFFCURVE",
"374 32 OFFCURVE",
"416 71 CURVE",
"416 67 LINE SMOOTH",
"416 -2 OFFCURVE",
"430 -15 OFFCURVE",
"445 -15 CURVE SMOOTH",
"451 -15 OFFCURVE",
"464 -9 OFFCURVE",
"478 -1 CURVE SMOOTH",
"505 14 LINE SMOOTH",
"521 23 OFFCURVE",
"532 28 OFFCURVE",
"532 36 CURVE SMOOTH",
"532 55 OFFCURVE",
"496 42 OFFCURVE",
"496 134 CURVE SMOOTH"
);
}
);
width = 570;
}
);
unicode = 1E923;
category = Letter;
subCategory = Lowercase;
},
{
glyphname = laam_adlam;
production = uni1E924;
lastChange = "2017-01-05 17:36:54 +0000";
layers = (
{
anchors = (
{
name = btm;
position = "{270, -45}";
},
{
name = top;
position = "{270, 580}";
}
);
hints = (
{
place = "{71, 91}";
},
{
place = "{476, 91}";
},
{
horizontal = 1;
place = "{-10, 73}";
},
{
horizontal = 1;
place = "{472, 74}";
}
);
layerId = "E766B743-DB28-463C-9986-895181A4C6C0";
paths = (
{
closed = 1;
nodes = (
"400 184 LINE SMOOTH",
"400 99 OFFCURVE",
"374 75 OFFCURVE",
"299 75 CURVE SMOOTH",
"173 75 LINE SMOOTH",
"134 75 OFFCURVE",
"123 101 OFFCURVE",
"109 101 CURVE SMOOTH",
"102 101 OFFCURVE",
"97 96 OFFCURVE",
"89 86 CURVE SMOOTH",
"47 36 LINE SMOOTH",
"42 30 OFFCURVE",
"38 22 OFFCURVE",
"38 16 CURVE SMOOTH",
"38 7 OFFCURVE",
"46 0 OFFCURVE",
"70 0 CURVE SMOOTH",
"251 0 LINE SMOOTH",
"378 0 OFFCURVE",
"480 143 OFFCURVE",
"480 184 CURVE SMOOTH",
"480 361 LINE SMOOTH",
"480 489 OFFCURVE",
"415 538 OFFCURVE",
"334 538 CURVE SMOOTH",
"285 538 LINE SMOOTH",
"166 538 OFFCURVE",
"54 422 OFFCURVE",
"54 352 CURVE SMOOTH",
"54 310 OFFCURVE",
"65 293 OFFCURVE",
"88 263 CURVE SMOOTH",
"89 262 OFFCURVE",
"90 261 OFFCURVE",
"93 261 CURVE SMOOTH",
"96 261 OFFCURVE",
"100 262 OFFCURVE",
"106 266 CURVE SMOOTH",
"147 294 LINE SMOOTH",
"167 307 OFFCURVE",
"172 314 OFFCURVE",
"172 318 CURVE SMOOTH",
"172 323 OFFCURVE",
"161 326 OFFCURVE",
"159 327 CURVE SMOOTH",
"138 333 OFFCURVE",
"124 351 OFFCURVE",
"124 381 CURVE SMOOTH",
"124 436 OFFCURVE",
"174 463 OFFCURVE",
"237 463 CURVE SMOOTH",
"322 463 LINE SMOOTH",
"383 463 OFFCURVE",
"400 418 OFFCURVE",
"400 335 CURVE"
);
}
);
width = 554;
}
);
unicode = 1E924;
category = Letter;
subCategory = Lowercase;
},
{
glyphname = miim_adlam;
production = uni1E925;
lastChange = "2017-01-05 17:36:54 +0000";
layers = (
{
anchors = (
{
name = btm;
position = "{265, -45}";
},
{
name = top;
position = "{280, 580}";
}
);
hints = (
{
place = "{54, 84}";
},
{
place = "{352, 85}";
},
{
horizontal = 1;
place = "{-10, 71}";
},
{
horizontal = 1;
place = "{474, 72}";
}
);
layerId = "E766B743-DB28-463C-9986-895181A4C6C0";
paths = (
{
closed = 1;
nodes = (
"475 505 OFFCURVE",
"403 538 OFFCURVE",
"331 538 CURVE SMOOTH",
"286 538 LINE SMOOTH",
"206 538 OFFCURVE",
"68 443 OFFCURVE",
"68 373 CURVE SMOOTH",
"68 296 OFFCURVE",
"139 262 OFFCURVE",
"220 239 CURVE SMOOTH",
"328 208 OFFCURVE",
"404 176 OFFCURVE",
"404 127 CURVE SMOOTH",
"404 82 OFFCURVE",
"367 75 OFFCURVE",
"333 75 CURVE SMOOTH",
"173 75 LINE SMOOTH",
"134 75 OFFCURVE",
"123 101 OFFCURVE",
"109 101 CURVE SMOOTH",
"102 101 OFFCURVE",
"97 96 OFFCURVE",
"89 86 CURVE SMOOTH",
"47 36 LINE SMOOTH",
"42 30 OFFCURVE",
"38 22 OFFCURVE",
"38 16 CURVE SMOOTH",
"38 7 OFFCURVE",
"46 0 OFFCURVE",
"70 0 CURVE SMOOTH",
"297 0 LINE SMOOTH",
"375 0 OFFCURVE",
"472 94 OFFCURVE",
"472 152 CURVE SMOOTH",
"472 194 OFFCURVE",
"438 230 OFFCURVE",
"381 258 CURVE",
"428 300 OFFCURVE",
"475 355 OFFCURVE",
"475 417 CURVE SMOOTH"
);
},
{
closed = 1;
nodes = (
"193 321 OFFCURVE",
"128 350 OFFCURVE",
"128 399 CURVE SMOOTH",
"128 446 OFFCURVE",
"171 463 OFFCURVE",
"254 463 CURVE SMOOTH",
"324 463 LINE SMOOTH",
"366 463 OFFCURVE",
"411 450 OFFCURVE",
"411 389 CURVE SMOOTH",
"411 352 OFFCURVE",
"387 307 OFFCURVE",
"350 272 CURVE",
"327 281 OFFCURVE",
"301 290 OFFCURVE",
"274 298 CURVE SMOOTH"
);
}
);
width = 525;
}
);
unicode = 1E925;
category = Letter;
subCategory = Lowercase;
},
{
glyphname = ba_adlam;
production = uni1E926;
lastChange = "2017-01-05 17:36:54 +0000";
layers = (
{
anchors = (
{
name = btm;
position = "{330, -45}";
},
{
name = top;
position = "{370, 580}";
}
);
layerId = "E766B743-DB28-463C-9986-895181A4C6C0";
paths = (
{
closed = 1;
nodes = (
"154 688 LINE SMOOTH",
"154 757 OFFCURVE",
"140 770 OFFCURVE",
"125 770 CURVE SMOOTH",
"119 770 OFFCURVE",
"106 764 OFFCURVE",
"92 756 CURVE SMOOTH",
"65 741 LINE SMOOTH",
"49 732 OFFCURVE",
"38 727 OFFCURVE",
"38 719 CURVE SMOOTH",
"38 700 OFFCURVE",
"74 713 OFFCURVE",
"74 621 CURVE SMOOTH",
"74 67 LINE SMOOTH",
"74 -2 OFFCURVE",
"88 -15 OFFCURVE",
"103 -15 CURVE SMOOTH",
"109 -15 OFFCURVE",
"122 -9 OFFCURVE",
"136 -1 CURVE SMOOTH",
"163 14 LINE SMOOTH",
"179 23 OFFCURVE",
"190 28 OFFCURVE",
"190 36 CURVE SMOOTH",
"190 55 OFFCURVE",
"154 42 OFFCURVE",
"154 134 CURVE SMOOTH",
"154 194 LINE",
"194 176 OFFCURVE",
"256 165 OFFCURVE",
"270 165 CURVE SMOOTH",
"275 165 LINE",
"275 123 LINE SMOOTH",
"275 65 OFFCURVE",
"368 0 OFFCURVE",
"413 0 CURVE SMOOTH",
"542 0 LINE SMOOTH",
"570 0 OFFCURVE",
"583 9 OFFCURVE",
"592 26 CURVE SMOOTH",
"612 62 LINE SMOOTH",
"615 67 OFFCURVE",
"617 72 OFFCURVE",
"617 77 CURVE SMOOTH",
"617 84 OFFCURVE",
"612 90 OFFCURVE",
"603 90 CURVE SMOOTH",
"597 90 OFFCURVE",
"576 75 OFFCURVE",
"543 75 CURVE SMOOTH",
"409 75 LINE SMOOTH",
"362 75 OFFCURVE",
"355 99 OFFCURVE",
"355 148 CURVE SMOOTH",
"355 175 LINE",
"504 211 OFFCURVE",
"587 337 OFFCURVE",
"587 413 CURVE SMOOTH",
"587 500 OFFCURVE",
"540 550 OFFCURVE",
"469 550 CURVE SMOOTH",
"385 550 OFFCURVE",
"275 479 OFFCURVE",
"275 444 CURVE SMOOTH",
"275 236 LINE",
"224 241 OFFCURVE",
"183 255 OFFCURVE",
"154 277 CURVE"
);
},
{
closed = 1;
nodes = (
"355 451 LINE SMOOTH",
"355 484 OFFCURVE",
"380 496 OFFCURVE",
"425 496 CURVE SMOOTH",
"484 496 OFFCURVE",
"524 446 OFFCURVE",
"524 383 CURVE SMOOTH",
"524 308 OFFCURVE",
"464 250 OFFCURVE",
"355 238 CURVE"
);
}
);
width = 655;
}
);
unicode = 1E926;
category = Letter;
subCategory = Lowercase;
},
{
glyphname = sinnyiiyhe_adlam;
production = uni1E927;
lastChange = "2017-01-05 17:36:54 +0000";
layers = (
{
anchors = (
{
name = btm;
position = "{385, -45}";
},
{
name = top;
position = "{400, 580}";
}
);
layerId = "E766B743-DB28-463C-9986-895181A4C6C0";
paths = (
{
closed = 1;
nodes = (
"154 688 LINE SMOOTH",
"154 757 OFFCURVE",
"140 770 OFFCURVE",
"125 770 CURVE SMOOTH",
"119 770 OFFCURVE",
"106 764 OFFCURVE",
"92 756 CURVE SMOOTH",
"65 741 LINE SMOOTH",
"49 732 OFFCURVE",
"38 727 OFFCURVE",
"38 719 CURVE SMOOTH",
"38 700 OFFCURVE",
"74 713 OFFCURVE",
"74 621 CURVE SMOOTH",
"74 191 LINE SMOOTH",
"74 19 OFFCURVE",
"165 -12 OFFCURVE",
"227 -12 CURVE SMOOTH",
"282 -12 OFFCURVE",
"330 34 OFFCURVE",
"363 75 CURVE",
"394 11 OFFCURVE",
"452 -12 OFFCURVE",
"500 -12 CURVE SMOOTH",
"570 -12 OFFCURVE",
"703 115 OFFCURVE",
"703 226 CURVE SMOOTH",
"703 468 LINE SMOOTH",
"703 537 OFFCURVE",
"689 550 OFFCURVE",
"674 550 CURVE SMOOTH",
"668 550 OFFCURVE",
"655 544 OFFCURVE",
"641 536 CURVE SMOOTH",
"614 521 LINE SMOOTH",
"598 512 OFFCURVE",
"587 507 OFFCURVE",
"587 499 CURVE SMOOTH",
"587 480 OFFCURVE",
"623 493 OFFCURVE",
"623 401 CURVE SMOOTH",
"623 158 LINE SMOOTH",
"623 78 OFFCURVE",
"558 60 OFFCURVE",
"519 60 CURVE SMOOTH",
"476 60 OFFCURVE",
"423 79 OFFCURVE",
"423 179 CURVE SMOOTH",
"423 468 LINE SMOOTH",
"423 537 OFFCURVE",
"409 550 OFFCURVE",
"394 550 CURVE SMOOTH",
"388 550 OFFCURVE",
"375 544 OFFCURVE",
"361 536 CURVE SMOOTH",
"334 521 LINE SMOOTH",
"318 512 OFFCURVE",
"307 507 OFFCURVE",
"307 499 CURVE SMOOTH",
"307 480 OFFCURVE",
"343 493 OFFCURVE",
"343 401 CURVE SMOOTH",
"343 179 LINE SMOOTH",
"343 155 OFFCURVE",
"345 133 OFFCURVE",
"350 114 CURVE",
"326 80 OFFCURVE",
"295 60 OFFCURVE",
"251 60 CURVE SMOOTH",
"220 60 OFFCURVE",
"154 82 OFFCURVE",
"154 191 CURVE SMOOTH"
);
}
);
width = 777;
}
);
unicode = 1E927;
category = Letter;
subCategory = Lowercase;
},
{
glyphname = pe_adlam;
production = uni1E928;
lastChange = "2017-01-05 17:36:54 +0000";
layers = (
{
anchors = (
{
name = btm;
position = "{260, -45}";
},
{
name = top;
position = "{235, 580}";
}
);
layerId = "E766B743-DB28-463C-9986-895181A4C6C0";
paths = (
{
closed = 1;
nodes = (
"454 84 OFFCURVE",
"449 90 OFFCURVE",
"440 90 CURVE SMOOTH",
"434 90 OFFCURVE",
"413 75 OFFCURVE",
"380 75 CURVE SMOOTH",
"297 75 LINE",
"418 193 OFFCURVE",
"431 305 OFFCURVE",
"431 348 CURVE SMOOTH",
"431 461 OFFCURVE",
"378 550 OFFCURVE",
"284 550 CURVE SMOOTH",
"231 550 OFFCURVE",
"191 530 OFFCURVE",
"153 501 CURVE",
"149 541 OFFCURVE",
"137 550 OFFCURVE",
"125 550 CURVE SMOOTH",
"119 550 OFFCURVE",
"106 544 OFFCURVE",
"92 536 CURVE SMOOTH",
"65 521 LINE SMOOTH",
"49 512 OFFCURVE",
"38 507 OFFCURVE",
"38 499 CURVE SMOOTH",
"38 480 OFFCURVE",
"74 493 OFFCURVE",
"74 401 CURVE SMOOTH",
"74 154 LINE SMOOTH",
"74 48 OFFCURVE",
"165 0 OFFCURVE",
"232 0 CURVE SMOOTH",
"379 0 LINE SMOOTH",
"407 0 OFFCURVE",
"420 9 OFFCURVE",
"429 26 CURVE SMOOTH",
"449 62 LINE SMOOTH",
"452 67 OFFCURVE",
"454 72 OFFCURVE",
"454 77 CURVE SMOOTH"
);
},
{
closed = 1;
nodes = (
"154 473 LINE",
"172 483 OFFCURVE",
"191 487 OFFCURVE",
"208 487 CURVE SMOOTH",
"303 487 OFFCURVE",
"347 423 OFFCURVE",
"347 302 CURVE SMOOTH",
"347 236 OFFCURVE",
"338 161 OFFCURVE",
"249 75 CURVE",
"208 75 LINE SMOOTH",
"161 75 OFFCURVE",
"154 99 OFFCURVE",
"154 148 CURVE"
);
}
);
width = 492;
}
);
unicode = 1E928;
category = Letter;
subCategory = Lowercase;
},
{
glyphname = bhe_adlam;
production = uni1E929;
lastChange = "2017-01-05 17:36:54 +0000";
layers = (
{
anchors = (
{
name = btm;
position = "{300, -45}";
},
{
name = top;
position = "{300, 580}";
}
);
layerId = "E766B743-DB28-463C-9986-895181A4C6C0";
paths = (
{
closed = 1;
nodes = (
"524 396 LINE SMOOTH",
"524 449 OFFCURVE",
"521 466 OFFCURVE",
"505 466 CURVE SMOOTH",
"500 466 OFFCURVE",
"494 464 OFFCURVE",
"487 462 CURVE SMOOTH",
"454 452 OFFCURVE",
"435 445 OFFCURVE",
"435 430 CURVE SMOOTH",
"435 413 OFFCURVE",
"444 404 OFFCURVE",
"444 356 CURVE SMOOTH",
"444 305 LINE",
"392 256 OFFCURVE",
"340 238 OFFCURVE",
"275 238 CURVE SMOOTH",
"181 238 OFFCURVE",
"126 286 OFFCURVE",
"126 356 CURVE SMOOTH",
"126 427 OFFCURVE",
"171 463 OFFCURVE",
"237 463 CURVE SMOOTH",
"298 463 LINE SMOOTH",
"463 463 OFFCURVE",
"544 558 OFFCURVE",
"544 576 CURVE SMOOTH",
"544 581 OFFCURVE",
"543 582 OFFCURVE",
"539 582 CURVE SMOOTH",
"534 582 OFFCURVE",
"515 572 OFFCURVE",
"507 569 CURVE SMOOTH",
"430 539 OFFCURVE",
"396 538 OFFCURVE",
"347 538 CURVE SMOOTH",
"298 538 LINE SMOOTH",
"182 538 OFFCURVE",
"50 422 OFFCURVE",
"50 318 CURVE SMOOTH",
"50 219 OFFCURVE",
"155 174 OFFCURVE",
"249 174 CURVE SMOOTH",
"313 174 OFFCURVE",
"387 215 OFFCURVE",
"444 261 CURVE",
"444 184 LINE SMOOTH",
"444 99 OFFCURVE",
"441 75 OFFCURVE",
"366 75 CURVE SMOOTH",
"203 75 LINE SMOOTH",
"164 75 OFFCURVE",
"153 101 OFFCURVE",
"139 101 CURVE SMOOTH",
"132 101 OFFCURVE",
"127 96 OFFCURVE",
"119 86 CURVE SMOOTH",
"77 36 LINE SMOOTH",
"72 30 OFFCURVE",
"68 22 OFFCURVE",
"68 16 CURVE SMOOTH",
"68 7 OFFCURVE",
"76 0 OFFCURVE",
"100 0 CURVE SMOOTH",
"318 0 LINE SMOOTH",
"450 0 OFFCURVE",
"524 135 OFFCURVE",
"524 184 CURVE"
);
}
);
width = 594;
}
);
unicode = 1E929;
category = Letter;
subCategory = Lowercase;
},
{
glyphname = ra_adlam;
production = uni1E92A;
lastChange = "2017-01-05 17:36:54 +0000";
layers = (
{
anchors = (
{
name = btm;
position = "{295, -45}";
},
{
name = top;
position = "{275, 580}";
}
);
layerId = "E766B743-DB28-463C-9986-895181A4C6C0";
paths = (
{
closed = 1;
nodes = (
"154 468 LINE SMOOTH",
"154 537 OFFCURVE",
"140 550 OFFCURVE",
"125 550 CURVE SMOOTH",
"119 550 OFFCURVE",
"106 544 OFFCURVE",
"92 536 CURVE SMOOTH",
"65 521 LINE SMOOTH",
"49 512 OFFCURVE",
"38 507 OFFCURVE",
"38 499 CURVE SMOOTH",
"38 480 OFFCURVE",
"74 493 OFFCURVE",
"74 401 CURVE SMOOTH",
"74 132 LINE SMOOTH",
"74 78 OFFCURVE",
"163 0 OFFCURVE",
"221 0 CURVE SMOOTH",
"418 0 LINE SMOOTH",
"449 0 OFFCURVE",
"449 -16 OFFCURVE",
"462 -16 CURVE SMOOTH",
"469 -16 OFFCURVE",
"475 -10 OFFCURVE",
"487 3 CURVE SMOOTH",
"519 40 LINE SMOOTH",
"523 45 OFFCURVE",
"525 48 OFFCURVE",
"525 52 CURVE SMOOTH",
"525 67 OFFCURVE",
"491 75 OFFCURVE",
"449 75 CURVE SMOOTH",
"210 75 LINE SMOOTH",
"174 75 OFFCURVE",
"154 82 OFFCURVE",
"154 138 CURVE SMOOTH",
"154 197 LINE",
"189 179 OFFCURVE",
"240 170 OFFCURVE",
"291 170 CURVE SMOOTH",
"389 170 OFFCURVE",
"517 295 OFFCURVE",
"517 380 CURVE SMOOTH",
"517 468 LINE SMOOTH",
"517 537 OFFCURVE",
"503 550 OFFCURVE",
"488 550 CURVE SMOOTH",
"482 550 OFFCURVE",
"469 544 OFFCURVE",
"455 536 CURVE SMOOTH",
"428 521 LINE SMOOTH",
"412 512 OFFCURVE",
"401 507 OFFCURVE",
"401 499 CURVE SMOOTH",
"401 480 OFFCURVE",
"437 493 OFFCURVE",
"437 401 CURVE SMOOTH",
"437 351 LINE SMOOTH",
"437 281 OFFCURVE",
"414 228 OFFCURVE",
"305 228 CURVE SMOOTH",
"243 228 OFFCURVE",
"186 245 OFFCURVE",
"154 280 CURVE"
);
}
);
width = 599;
}
);
unicode = 1E92A;
category = Letter;
subCategory = Lowercase;
},
{
glyphname = e_adlam;
production = uni1E92B;
lastChange = "2017-01-05 17:36:54 +0000";
layers = (
{
anchors = (
{
name = btm;
position = "{300, -45}";
},
{
name = top;
position = "{315, 580}";
}
);
layerId = "E766B743-DB28-463C-9986-895181A4C6C0";
paths = (
{
closed = 1;
nodes = (
"331 75 LINE SMOOTH",
"297 75 OFFCURVE",
"260 82 OFFCURVE",
"260 127 CURVE SMOOTH",
"260 172 OFFCURVE",
"301 201 OFFCURVE",
"352 230 CURVE",
"457 215 OFFCURVE",
"508 160 OFFCURVE",
"508 81 CURVE SMOOTH",
"508 36 OFFCURVE",
"497 -16 OFFCURVE",
"440 -63 CURVE SMOOTH",
"434 -68 OFFCURVE",
"431 -73 OFFCURVE",
"431 -77 CURVE SMOOTH",
"431 -82 OFFCURVE",
"433 -85 OFFCURVE",
"441 -85 CURVE SMOOTH",
"450 -85 OFFCURVE",
"459 -81 OFFCURVE",
"470 -71 CURVE SMOOTH",
"547 -2 OFFCURVE",
"578 56 OFFCURVE",
"578 122 CURVE SMOOTH",
"578 213 OFFCURVE",
"515 260 OFFCURVE",
"445 281 CURVE",
"501 314 OFFCURVE",
"548 356 OFFCURVE",
"548 422 CURVE SMOOTH",
"548 482 OFFCURVE",
"486 538 OFFCURVE",
"360 538 CURVE SMOOTH",
"296 538 LINE SMOOTH",
"195 538 OFFCURVE",
"74 448 OFFCURVE",
"74 386 CURVE SMOOTH",
"74 111 LINE SMOOTH",
"74 27 OFFCURVE",
"96 -15 OFFCURVE",
"121 -15 CURVE SMOOTH",
"126 -15 OFFCURVE",
"133 -12 OFFCURVE",
"138 -9 CURVE SMOOTH",
"150 -1 LINE SMOOTH",
"165 9 OFFCURVE",
"177 14 OFFCURVE",
"177 22 CURVE SMOOTH",
"177 41 OFFCURVE",
"154 42 OFFCURVE",
"154 134 CURVE SMOOTH",
"154 395 LINE SMOOTH",
"154 435 OFFCURVE",
"161 463 OFFCURVE",
"221 463 CURVE SMOOTH",
"358 463 LINE SMOOTH",
"446 463 OFFCURVE",
"463 427 OFFCURVE",
"463 392 CURVE SMOOTH",
"463 274 OFFCURVE",
"194 246 OFFCURVE",
"194 100 CURVE SMOOTH",
"194 31 OFFCURVE",
"245 0 OFFCURVE",
"323 0 CURVE SMOOTH",
"447 0 LINE SMOOTH",
"469 0 OFFCURVE",
"472 30 OFFCURVE",
"479 51 CURVE SMOOTH",
"481 58 OFFCURVE",
"484 67 OFFCURVE",
"484 71 CURVE SMOOTH",
"484 79 OFFCURVE",
"480 83 OFFCURVE",
"475 83 CURVE SMOOTH",
"469 83 OFFCURVE",
"455 75 OFFCURVE",
"440 75 CURVE SMOOTH"
);
}
);
width = 628;
}
);
unicode = 1E92B;
category = Letter;
subCategory = Lowercase;
},
{
glyphname = fa_adlam;
production = uni1E92C;
lastChange = "2017-01-05 17:36:54 +0000";
layers = (
{
anchors = (
{
name = btm;
position = "{320, -45}";
},
{
name = top;
position = "{300, 580}";
}
);
layerId = "E766B743-DB28-463C-9986-895181A4C6C0";
paths = (
{
closed = 1;
nodes = (
"154 344 LINE SMOOTH",
"154 446 OFFCURVE",
"227 474 OFFCURVE",
"326 474 CURVE SMOOTH",
"382 474 OFFCURVE",
"437 461 OFFCURVE",
"465 445 CURVE SMOOTH",
"468 443 OFFCURVE",
"470 442 OFFCURVE",
"473 442 CURVE SMOOTH",
"492 442 OFFCURVE",
"514 492 OFFCURVE",
"514 506 CURVE SMOOTH",
"514 510 OFFCURVE",
"512 513 OFFCURVE",
"508 516 CURVE SMOOTH",
"475 536 OFFCURVE",
"406 550 OFFCURVE",
"363 550 CURVE SMOOTH",
"269 550 OFFCURVE",
"74 461 OFFCURVE",
"74 320 CURVE SMOOTH",
"74 -18 LINE SMOOTH",
"74 -87 OFFCURVE",
"88 -100 OFFCURVE",
"103 -100 CURVE SMOOTH",
"109 -100 OFFCURVE",
"122 -94 OFFCURVE",
"136 -86 CURVE SMOOTH",
"163 -71 LINE SMOOTH",
"179 -62 OFFCURVE",
"190 -57 OFFCURVE",
"190 -49 CURVE SMOOTH",
"190 -30 OFFCURVE",
"154 -43 OFFCURVE",
"154 49 CURVE SMOOTH",
"154 271 LINE",
"197 305 OFFCURVE",
"254 320 OFFCURVE",
"308 320 CURVE SMOOTH",
"413 320 OFFCURVE",
"459 269 OFFCURVE",
"459 188 CURVE SMOOTH",
"459 94 OFFCURVE",
"428 49 OFFCURVE",
"352 49 CURVE SMOOTH",
"260 49 OFFCURVE",
"253 93 OFFCURVE",
"234 93 CURVE SMOOTH",
"227 93 OFFCURVE",
"220 85 OFFCURVE",
"211 71 CURVE SMOOTH",
"198 52 LINE SMOOTH",
"194 46 OFFCURVE",
"188 39 OFFCURVE",
"188 33 CURVE SMOOTH",
"188 6 OFFCURVE",
"254 -12 OFFCURVE",
"305 -12 CURVE SMOOTH",
"435 -12 OFFCURVE",
"540 119 OFFCURVE",
"540 206 CURVE SMOOTH",
"540 307 OFFCURVE",
"472 382 OFFCURVE",
"347 382 CURVE SMOOTH",
"289 382 OFFCURVE",
"213 351 OFFCURVE",
"154 307 CURVE"
);
}
);
width = 590;
}
);
unicode = 1E92C;
category = Letter;
subCategory = Lowercase;
},
{
glyphname = i_adlam;
production = uni1E92D;
lastChange = "2017-01-05 17:36:54 +0000";
layers = (
{
anchors = (
{
name = btm;
position = "{310, -45}";
},
{
name = top;
position = "{305, 580}";
}
);
layerId = "E766B743-DB28-463C-9986-895181A4C6C0";
paths = (
{
closed = 1;
nodes = (
"270 60 OFFCURVE",
"154 70 OFFCURVE",
"154 211 CURVE SMOOTH",
"154 468 LINE SMOOTH",
"154 537 OFFCURVE",
"140 550 OFFCURVE",
"125 550 CURVE SMOOTH",
"119 550 OFFCURVE",
"106 544 OFFCURVE",
"92 536 CURVE SMOOTH",
"65 521 LINE SMOOTH",
"49 512 OFFCURVE",
"38 507 OFFCURVE",
"38 499 CURVE SMOOTH",
"38 480 OFFCURVE",
"74 493 OFFCURVE",
"74 401 CURVE SMOOTH",
"74 206 LINE SMOOTH",
"74 30 OFFCURVE",
"203 -12 OFFCURVE",
"315 -12 CURVE SMOOTH",
"415 -12 OFFCURVE",
"567 123 OFFCURVE",
"567 226 CURVE SMOOTH",
"567 468 LINE SMOOTH",
"567 537 OFFCURVE",
"553 550 OFFCURVE",
"538 550 CURVE SMOOTH",
"532 550 OFFCURVE",
"519 544 OFFCURVE",
"505 536 CURVE SMOOTH",
"478 521 LINE SMOOTH",
"462 512 OFFCURVE",
"451 507 OFFCURVE",
"451 499 CURVE SMOOTH",
"451 480 OFFCURVE",
"487 493 OFFCURVE",
"487 401 CURVE SMOOTH",
"487 218 LINE SMOOTH",
"487 74 OFFCURVE",
"411 60 OFFCURVE",
"339 60 CURVE SMOOTH"
);
}
);
width = 641;
}
);
unicode = 1E92D;
category = Letter;
subCategory = Lowercase;
},
{
glyphname = o_adlam;
production = uni1E92E;
lastChange = "2017-01-05 17:36:54 +0000";
layers = (
{
anchors = (
{
name = btm;
position = "{265, -45}";
},
{
name = top;
position = "{330, 580}";
}
);
layerId = "E766B743-DB28-463C-9986-895181A4C6C0";
paths = (
{
closed = 1;
nodes = (
"407 47 LINE SMOOTH",
"415 64 OFFCURVE",
"419 74 OFFCURVE",
"419 79 CURVE SMOOTH",
"419 83 OFFCURVE",
"417 84 OFFCURVE",
"414 84 CURVE SMOOTH",
"406 84 OFFCURVE",
"394 75 OFFCURVE",
"371 75 CURVE SMOOTH",
"314 75 LINE SMOOTH",
"193 75 OFFCURVE",
"122 148 OFFCURVE",
"122 269 CURVE SMOOTH",
"122 383 OFFCURVE",
"187 483 OFFCURVE",
"314 483 CURVE SMOOTH",
"441 483 OFFCURVE",
"518 390 OFFCURVE",
"518 262 CURVE SMOOTH",
"518 89 OFFCURVE",
"436 3 OFFCURVE",
"372 -50 CURVE SMOOTH",
"367 -54 OFFCURVE",
"365 -60 OFFCURVE",
"365 -65 CURVE SMOOTH",
"365 -73 OFFCURVE",
"372 -80 OFFCURVE",
"385 -80 CURVE SMOOTH",
"387 -80 OFFCURVE",
"391 -78 OFFCURVE",
"395 -74 CURVE SMOOTH",
"537 41 OFFCURVE",
"600 159 OFFCURVE",
"600 265 CURVE SMOOTH",
"600 487 OFFCURVE",
"448 550 OFFCURVE",
"358 550 CURVE SMOOTH",
"221 550 OFFCURVE",
"40 410 OFFCURVE",
"40 256 CURVE SMOOTH",
"40 114 OFFCURVE",
"141 0 OFFCURVE",
"309 0 CURVE SMOOTH",
"361 0 LINE SMOOTH",
"380 0 OFFCURVE",
"387 7 OFFCURVE",
"395 23 CURVE SMOOTH"
);
}
);
width = 640;
}
);
unicode = 1E92E;
category = Letter;
subCategory = Lowercase;
},
{
glyphname = dha_adlam;
production = uni1E92F;
lastChange = "2017-01-05 17:36:54 +0000";
layers = (
{
anchors = (
{
name = btm;
position = "{305, -45}";
},
{
name = top;
position = "{250, 580}";
}
);
layerId = "E766B743-DB28-463C-9986-895181A4C6C0";
paths = (
{
closed = 1;
nodes = (
"570 688 LINE SMOOTH",
"570 757 OFFCURVE",
"556 770 OFFCURVE",
"541 770 CURVE SMOOTH",
"535 770 OFFCURVE",
"522 764 OFFCURVE",
"508 756 CURVE SMOOTH",
"481 741 LINE SMOOTH",
"465 732 OFFCURVE",
"454 727 OFFCURVE",
"454 719 CURVE SMOOTH",
"454 700 OFFCURVE",
"490 713 OFFCURVE",
"490 621 CURVE SMOOTH",
"490 504 LINE",
"448 534 OFFCURVE",
"395 550 OFFCURVE",
"358 550 CURVE SMOOTH",
"221 550 OFFCURVE",
"40 410 OFFCURVE",
"40 256 CURVE SMOOTH",
"40 114 OFFCURVE",
"148 -15 OFFCURVE",
"305 -15 CURVE SMOOTH",
"376 -15 OFFCURVE",
"439 28 OFFCURVE",
"482 80 CURVE",
"467 11 OFFCURVE",
"439 -3 OFFCURVE",
"439 -26 CURVE SMOOTH",
"439 -33 OFFCURVE",
"443 -35 OFFCURVE",
"448 -35 CURVE SMOOTH",
"456 -35 OFFCURVE",
"470 -20 OFFCURVE",
"492 5 CURVE SMOOTH",
"529 47 OFFCURVE",
"570 124 OFFCURVE",
"570 253 CURVE SMOOTH"
);
},
{
closed = 1;
nodes = (
"490 159 LINE",
"457 99 OFFCURVE",
"397 60 OFFCURVE",
"313 60 CURVE SMOOTH",
"205 60 OFFCURVE",
"122 148 OFFCURVE",
"122 269 CURVE SMOOTH",
"122 383 OFFCURVE",
"187 483 OFFCURVE",
"314 483 CURVE SMOOTH",
"413 483 OFFCURVE",
"477 423 OFFCURVE",
"490 333 CURVE"
);
}
);
width = 644;
}
);
unicode = 1E92F;
category = Letter;
subCategory = Lowercase;
},
{
glyphname = yhe_adlam;
production = uni1E930;
lastChange = "2017-01-05 17:36:54 +0000";
layers = (
{
anchors = (
{
name = btm;
position = "{340, -45}";
},
{
name = top;
position = "{380, 580}";
}
);
layerId = "E766B743-DB28-463C-9986-895181A4C6C0";
paths = (
{
closed = 1;
nodes = (
"664 581 OFFCURVE",
"663 582 OFFCURVE",
"659 582 CURVE SMOOTH",
"654 582 OFFCURVE",
"635 572 OFFCURVE",
"627 569 CURVE SMOOTH",
"550 539 OFFCURVE",
"516 538 OFFCURVE",
"467 538 CURVE SMOOTH",
"277 538 LINE SMOOTH",
"164 538 OFFCURVE",
"154 566 OFFCURVE",
"135 566 CURVE SMOOTH",
"127 566 OFFCURVE",
"119 558 OFFCURVE",
"113 551 CURVE SMOOTH",
"93 528 LINE SMOOTH",
"83 516 OFFCURVE",
"71 508 OFFCURVE",
"71 500 CURVE SMOOTH",
"71 483 OFFCURVE",
"119 472 OFFCURVE",
"168 467 CURVE",
"95 412 OFFCURVE",
"40 331 OFFCURVE",
"40 246 CURVE SMOOTH",
"40 96 OFFCURVE",
"143 0 OFFCURVE",
"273 0 CURVE SMOOTH",
"508 0 LINE SMOOTH",
"539 0 OFFCURVE",
"539 -16 OFFCURVE",
"552 -16 CURVE SMOOTH",
"559 -16 OFFCURVE",
"565 -10 OFFCURVE",
"577 3 CURVE SMOOTH",
"609 40 LINE SMOOTH",
"613 45 OFFCURVE",
"615 48 OFFCURVE",
"615 52 CURVE SMOOTH",
"615 67 OFFCURVE",
"581 75 OFFCURVE",
"539 75 CURVE SMOOTH",
"278 75 LINE SMOOTH",
"192 75 OFFCURVE",
"122 138 OFFCURVE",
"122 259 CURVE SMOOTH",
"122 352 OFFCURVE",
"164 435 OFFCURVE",
"249 463 CURVE",
"418 463 LINE SMOOTH",
"583 463 OFFCURVE",
"664 558 OFFCURVE",
"664 576 CURVE SMOOTH"
);
}
);
width = 674;
}
);
unicode = 1E930;
category = Letter;
subCategory = Lowercase;
},
{
glyphname = waw_adlam;
production = uni1E931;
lastChange = "2017-01-05 17:36:54 +0000";
layers = (
{
anchors = (
{
name = btm;
position = "{310, -45}";
},
{
name = top;
position = "{300, 580}";
}
);
layerId = "E766B743-DB28-463C-9986-895181A4C6C0";
paths = (
{
closed = 1;
nodes = (
"305 227 OFFCURVE",
"288 200 OFFCURVE",
"313 200 CURVE SMOOTH",
"318 200 OFFCURVE",
"325 208 OFFCURVE",
"330 220 CURVE SMOOTH",
"341 244 LINE SMOOTH",
"343 249 OFFCURVE",
"344 255 OFFCURVE",
"344 259 CURVE SMOOTH",
"344 286 OFFCURVE",
"314 296 OFFCURVE",
"285 296 CURVE SMOOTH",
"253 296 OFFCURVE",
"200 277 OFFCURVE",
"154 258 CURVE",
"154 320 LINE SMOOTH",
"154 464 OFFCURVE",
"239 478 OFFCURVE",
"311 478 CURVE SMOOTH",
"384 478 OFFCURVE",
"394 459 OFFCURVE",
"417 459 CURVE SMOOTH",
"430 459 OFFCURVE",
"434 465 OFFCURVE",
"447 487 CURVE SMOOTH",
"463 514 LINE SMOOTH",
"466 519 OFFCURVE",
"467 522 OFFCURVE",
"467 526 CURVE SMOOTH",
"467 548 OFFCURVE",
"394 550 OFFCURVE",
"363 550 CURVE SMOOTH",
"237 550 OFFCURVE",
"74 415 OFFCURVE",
"74 312 CURVE SMOOTH",
"74 67 LINE SMOOTH",
"74 -2 OFFCURVE",
"88 -15 OFFCURVE",
"103 -15 CURVE SMOOTH",
"109 -15 OFFCURVE",
"122 -9 OFFCURVE",
"136 -1 CURVE SMOOTH",
"163 14 LINE SMOOTH",
"179 23 OFFCURVE",
"190 28 OFFCURVE",
"190 36 CURVE SMOOTH",
"190 55 OFFCURVE",
"154 42 OFFCURVE",
"154 134 CURVE SMOOTH",
"154 219 LINE",
"176 223 OFFCURVE",
"204 227 OFFCURVE",
"244 227 CURVE SMOOTH"
);
},
{
closed = 1;
nodes = (
"547 494 LINE SMOOTH",
"547 516 OFFCURVE",
"546 543 OFFCURVE",
"532 543 CURVE SMOOTH",
"520 543 OFFCURVE",
"509 532 OFFCURVE",
"495 520 CURVE SMOOTH",
"475 502 LINE SMOOTH",
"462 490 OFFCURVE",
"457 485 OFFCURVE",
"457 480 CURVE SMOOTH",
"457 473 OFFCURVE",
"467 467 OFFCURVE",
"467 442 CURVE SMOOTH",
"467 70 LINE SMOOTH",
"467 1 OFFCURVE",
"481 -12 OFFCURVE",
"496 -12 CURVE SMOOTH",
"502 -12 OFFCURVE",
"515 -6 OFFCURVE",
"529 2 CURVE SMOOTH",
"556 17 LINE SMOOTH",
"572 26 OFFCURVE",
"583 31 OFFCURVE",
"583 39 CURVE SMOOTH",
"583 58 OFFCURVE",
"547 45 OFFCURVE",
"547 137 CURVE SMOOTH"
);
}
);
width = 621;
}
);
unicode = 1E931;
category = Letter;
subCategory = Lowercase;
},
{
glyphname = nun_adlam;
production = uni1E932;
lastChange = "2017-01-05 17:36:54 +0000";
layers = (
{
anchors = (
{
name = btm;
position = "{285, -45}";
},
{
name = top;
position = "{270, 580}";
}
);
layerId = "E766B743-DB28-463C-9986-895181A4C6C0";
paths = (
{
closed = 1;
nodes = (
"145 443 OFFCURVE",
"137 447 OFFCURVE",
"137 452 CURVE SMOOTH",
"137 470 OFFCURVE",
"179 480 OFFCURVE",
"256 480 CURVE SMOOTH",
"339 480 OFFCURVE",
"387 456 OFFCURVE",
"387 424 CURVE SMOOTH",
"387 335 OFFCURVE",
"50 345 OFFCURVE",
"50 156 CURVE SMOOTH",
"50 70 OFFCURVE",
"102 0 OFFCURVE",
"209 0 CURVE SMOOTH",
"224 0 LINE SMOOTH",
"260 0 OFFCURVE",
"269 11 OFFCURVE",
"282 51 CURVE SMOOTH",
"284 58 OFFCURVE",
"287 67 OFFCURVE",
"287 71 CURVE SMOOTH",
"287 79 OFFCURVE",
"283 83 OFFCURVE",
"278 83 CURVE SMOOTH",
"272 83 OFFCURVE",
"258 75 OFFCURVE",
"243 75 CURVE SMOOTH",
"232 75 LINE SMOOTH",
"173 75 OFFCURVE",
"127 97 OFFCURVE",
"127 165 CURVE SMOOTH",
"127 352 OFFCURVE",
"473 303 OFFCURVE",
"473 439 CURVE SMOOTH",
"473 518 OFFCURVE",
"378 550 OFFCURVE",
"281 550 CURVE SMOOTH",
"189 550 OFFCURVE",
"50 483 OFFCURVE",
"50 419 CURVE SMOOTH",
"50 400 OFFCURVE",
"56 393 OFFCURVE",
"65 393 CURVE SMOOTH",
"72 393 OFFCURVE",
"80 398 OFFCURVE",
"88 402 CURVE SMOOTH",
"116 418 LINE SMOOTH",
"138 430 OFFCURVE",
"145 433 OFFCURVE",
"145 438 CURVE SMOOTH"
);
},
{
closed = 1;
nodes = (
"457 294 LINE SMOOTH",
"457 328 OFFCURVE",
"451 339 OFFCURVE",
"440 339 CURVE SMOOTH",
"432 339 OFFCURVE",
"421 333 OFFCURVE",
"408 325 CURVE SMOOTH",
"386 311 LINE SMOOTH",
"373 303 OFFCURVE",
"367 295 OFFCURVE",
"367 289 CURVE SMOOTH",
"367 279 OFFCURVE",
"377 275 OFFCURVE",
"377 242 CURVE SMOOTH",
"377 70 LINE SMOOTH",
"377 1 OFFCURVE",
"391 -12 OFFCURVE",
"406 -12 CURVE SMOOTH",
"412 -12 OFFCURVE",
"425 -6 OFFCURVE",
"439 2 CURVE SMOOTH",
"466 17 LINE SMOOTH",
"482 26 OFFCURVE",
"493 31 OFFCURVE",
"493 39 CURVE SMOOTH",
"493 58 OFFCURVE",
"457 45 OFFCURVE",
"457 137 CURVE SMOOTH"
);
}
);
width = 531;
}
);
unicode = 1E932;
category = Letter;
subCategory = Lowercase;
},
{
glyphname = kaf_adlam;
production = uni1E933;
lastChange = "2017-01-05 17:36:54 +0000";
layers = (
{
anchors = (
{
name = btm;
position = "{390, -45}";
},
{
name = top;
position = "{360, 580}";
}
);
layerId = "E766B743-DB28-463C-9986-895181A4C6C0";
paths = (
{
closed = 1;
nodes = (
"596 562 OFFCURVE",
"595 563 OFFCURVE",
"591 563 CURVE SMOOTH",
"586 563 OFFCURVE",
"574 556 OFFCURVE",
"565 553 CURVE SMOOTH",
"544 546 OFFCURVE",
"507 538 OFFCURVE",
"445 538 CURVE SMOOTH",
"252 538 LINE SMOOTH",
"204 538 OFFCURVE",
"193 552 OFFCURVE",
"174 552 CURVE SMOOTH",
"166 552 OFFCURVE",
"158 544 OFFCURVE",
"152 537 CURVE SMOOTH",
"132 514 LINE SMOOTH",
"122 502 OFFCURVE",
"110 494 OFFCURVE",
"110 486 CURVE SMOOTH",
"110 465 OFFCURVE",
"185 463 OFFCURVE",
"223 463 CURVE SMOOTH",
"354 463 LINE",
"354 300 LINE",
"290 300 LINE SMOOTH",
"242 300 OFFCURVE",
"231 314 OFFCURVE",
"212 314 CURVE SMOOTH",
"204 314 OFFCURVE",
"196 306 OFFCURVE",
"190 299 CURVE SMOOTH",
"170 276 LINE SMOOTH",
"160 264 OFFCURVE",
"148 256 OFFCURVE",
"148 248 CURVE SMOOTH",
"148 227 OFFCURVE",
"223 225 OFFCURVE",
"261 225 CURVE SMOOTH",
"354 225 LINE",
"354 184 LINE SMOOTH",
"354 99 OFFCURVE",
"351 75 OFFCURVE",
"276 75 CURVE SMOOTH",
"173 75 LINE SMOOTH",
"134 75 OFFCURVE",
"123 101 OFFCURVE",
"109 101 CURVE SMOOTH",
"102 101 OFFCURVE",
"97 96 OFFCURVE",
"89 86 CURVE SMOOTH",
"47 36 LINE SMOOTH",
"42 30 OFFCURVE",
"38 22 OFFCURVE",
"38 16 CURVE SMOOTH",
"38 7 OFFCURVE",
"46 0 OFFCURVE",
"70 0 CURVE SMOOTH",
"228 0 LINE SMOOTH",
"360 0 OFFCURVE",
"434 135 OFFCURVE",
"434 184 CURVE SMOOTH",
"434 225 LINE",
"522 225 OFFCURVE",
"587 255 OFFCURVE",
"624 282 CURVE",
"624 67 LINE SMOOTH",
"624 -2 OFFCURVE",
"638 -15 OFFCURVE",
"653 -15 CURVE SMOOTH",
"659 -15 OFFCURVE",
"672 -9 OFFCURVE",
"686 -1 CURVE SMOOTH",
"713 14 LINE SMOOTH",
"729 23 OFFCURVE",
"740 28 OFFCURVE",
"740 36 CURVE SMOOTH",
"740 55 OFFCURVE",
"704 42 OFFCURVE",
"704 134 CURVE SMOOTH",
"704 688 LINE SMOOTH",
"704 757 OFFCURVE",
"690 770 OFFCURVE",
"675 770 CURVE SMOOTH",
"669 770 OFFCURVE",
"656 764 OFFCURVE",
"642 756 CURVE SMOOTH",
"615 741 LINE SMOOTH",
"599 732 OFFCURVE",
"588 727 OFFCURVE",
"588 719 CURVE SMOOTH",
"588 700 OFFCURVE",
"624 713 OFFCURVE",
"624 621 CURVE SMOOTH",
"624 314 LINE",
"602 307 OFFCURVE",
"563 300 OFFCURVE",
"503 300 CURVE SMOOTH",
"434 300 LINE",
"434 466 LINE",
"539 481 OFFCURVE",
"596 541 OFFCURVE",
"596 557 CURVE SMOOTH"
);
}
);
width = 778;
}
);
unicode = 1E933;
category = Letter;
subCategory = Lowercase;
},
{
glyphname = ya_adlam;
production = uni1E934;
lastChange = "2017-01-05 17:36:54 +0000";
layers = (
{
anchors = (
{
name = btm;
position = "{270, -45}";
},
{
name = top;
position = "{280, 580}";
}
);
layerId = "E766B743-DB28-463C-9986-895181A4C6C0";
paths = (
{
closed = 1;
nodes = (
"202 326 LINE SMOOTH",
"184 326 OFFCURVE",
"178 331 OFFCURVE",
"171 331 CURVE SMOOTH",
"164 331 OFFCURVE",
"158 326 OFFCURVE",
"142 303 CURVE SMOOTH",
"126 280 LINE SMOOTH",
"123 275 OFFCURVE",
"121 270 OFFCURVE",
"121 267 CURVE SMOOTH",
"121 256 OFFCURVE",
"135 256 OFFCURVE",
"167 256 CURVE SMOOTH",
"289 256 LINE SMOOTH",
"385 256 OFFCURVE",
"431 194 OFFCURVE",
"431 126 CURVE SMOOTH",
"431 80 OFFCURVE",
"416 75 OFFCURVE",
"362 75 CURVE SMOOTH",
"173 75 LINE SMOOTH",
"134 75 OFFCURVE",
"123 101 OFFCURVE",
"109 101 CURVE SMOOTH",
"102 101 OFFCURVE",
"97 96 OFFCURVE",
"89 86 CURVE SMOOTH",
"47 36 LINE SMOOTH",
"42 30 OFFCURVE",
"38 22 OFFCURVE",
"38 16 CURVE SMOOTH",
"38 7 OFFCURVE",
"46 0 OFFCURVE",
"70 0 CURVE SMOOTH",
"300 0 LINE SMOOTH",
"429 0 OFFCURVE",
"503 129 OFFCURVE",
"503 174 CURVE SMOOTH",
"503 219 OFFCURVE",
"479 278 OFFCURVE",
"397 308 CURVE",
"449 342 OFFCURVE",
"488 387 OFFCURVE",
"488 430 CURVE SMOOTH",
"488 506 OFFCURVE",
"405 550 OFFCURVE",
"301 550 CURVE SMOOTH",
"194 550 OFFCURVE",
"108 491 OFFCURVE",
"79 465 CURVE SMOOTH",
"55 444 OFFCURVE",
"46 432 OFFCURVE",
"46 424 CURVE SMOOTH",
"46 419 OFFCURVE",
"49 417 OFFCURVE",
"53 417 CURVE SMOOTH",
"64 417 OFFCURVE",
"74 423 OFFCURVE",
"83 429 CURVE SMOOTH",
"142 469 OFFCURVE",
"186 479 OFFCURVE",
"268 479 CURVE SMOOTH",
"349 479 OFFCURVE",
"412 454 OFFCURVE",
"412 397 CURVE SMOOTH",
"412 359 OFFCURVE",
"384 335 OFFCURVE",
"355 319 CURVE",
"332 323 OFFCURVE",
"307 326 OFFCURVE",
"278 326 CURVE SMOOTH"
);
}
);
width = 553;
}
);
unicode = 1E934;
category = Letter;
subCategory = Lowercase;
},
{
glyphname = u_adlam;
production = uni1E935;
lastChange = "2017-01-05 17:36:54 +0000";
layers = (
{
anchors = (
{
name = btm;
position = "{320, -45}";
},
{
name = top;
position = "{320, 580}";
}
);
layerId = "E766B743-DB28-463C-9986-895181A4C6C0";
paths = (
{
closed = 1;
nodes = (
"574 464 LINE SMOOTH",
"574 520 OFFCURVE",
"563 550 OFFCURVE",
"545 550 CURVE SMOOTH",
"540 550 OFFCURVE",
"527 541 OFFCURVE",
"522 536 CURVE",
"495 516 LINE",
"472 494 OFFCURVE",
"463 429 OFFCURVE",
"420 358 CURVE",
"421 370 OFFCURVE",
"422 382 OFFCURVE",
"422 394 CURVE SMOOTH",
"422 469 OFFCURVE",
"359 550 OFFCURVE",
"251 550 CURVE SMOOTH",
"176 550 OFFCURVE",
"74 484 OFFCURVE",
"74 447 CURVE SMOOTH",
"74 239 LINE SMOOTH",
"74 96 OFFCURVE",
"158 0 OFFCURVE",
"264 0 CURVE SMOOTH",
"314 0 LINE SMOOTH",
"358 0 OFFCURVE",
"437 41 OFFCURVE",
"489 100 CURVE",
"477 14 OFFCURVE",
"443 -1 OFFCURVE",
"443 -26 CURVE SMOOTH",
"443 -33 OFFCURVE",
"447 -35 OFFCURVE",
"452 -35 CURVE SMOOTH",
"460 -35 OFFCURVE",
"474 -20 OFFCURVE",
"496 5 CURVE SMOOTH",
"533 47 OFFCURVE",
"574 124 OFFCURVE",
"574 253 CURVE SMOOTH"
);
},
{
closed = 1;
nodes = (
"309 154 OFFCURVE",
"381 221 OFFCURVE",
"409 312 CURVE",
"435 339 OFFCURVE",
"467 375 OFFCURVE",
"494 411 CURVE",
"494 171 LINE SMOOTH",
"494 161 OFFCURVE",
"494 153 OFFCURVE",
"493 144 CURVE",
"445 88 OFFCURVE",
"380 75 OFFCURVE",
"336 75 CURVE SMOOTH",
"273 75 LINE SMOOTH",
"188 75 OFFCURVE",
"154 153 OFFCURVE",
"154 274 CURVE SMOOTH",
"154 449 LINE SMOOTH",
"154 483 OFFCURVE",
"175 493 OFFCURVE",
"217 493 CURVE SMOOTH",
"306 493 OFFCURVE",
"340 424 OFFCURVE",
"340 364 CURVE SMOOTH",
"340 290 OFFCURVE",
"319 196 OFFCURVE",
"226 122 CURVE SMOOTH",
"223 119 OFFCURVE",
"221 118 OFFCURVE",
"221 114 CURVE SMOOTH",
"221 111 OFFCURVE",
"224 104 OFFCURVE",
"231 104 CURVE SMOOTH",
"233 104 OFFCURVE",
"236 105 OFFCURVE",
"239 107 CURVE SMOOTH"
);
}
);
width = 648;
}
);
unicode = 1E935;
category = Letter;
subCategory = Lowercase;
},
{
glyphname = jiim_adlam;
production = uni1E936;
lastChange = "2017-01-05 17:36:54 +0000";
layers = (
{
anchors = (
{
name = btm;
position = "{365, -45}";
},
{
name = top;
position = "{380, 580}";
}
);
hints = (
{
place = "{567, 88}";
},
{
place = "{951, 91}";
},
{
horizontal = 1;
place = "{-240, 21}";
target = up;
type = BottomGhost;
},
{
horizontal = 1;
place = "{-10, 73}";
},
{
horizontal = 1;
place = "{472, 74}";
},
{
horizontal = 1;
place = "{536, -20}";
target = down;
type = TopGhost;
}
);
layerId = "E766B743-DB28-463C-9986-895181A4C6C0";
paths = (
{
closed = 1;
nodes = (
"193 62 OFFCURVE",
"154 42 OFFCURVE",
"154 134 CURVE SMOOTH",
"154 396 LINE SMOOTH",
"154 468 OFFCURVE",
"204 485 OFFCURVE",
"242 485 CURVE SMOOTH",
"352 485 OFFCURVE",
"372 360 OFFCURVE",
"372 248 CURVE SMOOTH",
"372 149 OFFCURVE",
"345 78 OFFCURVE",
"300 36 CURVE SMOOTH",
"295 31 OFFCURVE",
"293 28 OFFCURVE",
"293 25 CURVE SMOOTH",
"293 21 OFFCURVE",
"298 11 OFFCURVE",
"308 11 CURVE SMOOTH",
"312 11 OFFCURVE",
"317 11 OFFCURVE",
"321 15 CURVE SMOOTH",
"331 23 OFFCURVE",
"449 126 OFFCURVE",
"449 275 CURVE SMOOTH",
"449 352 OFFCURVE",
"434 416 OFFCURVE",
"409 463 CURVE",
"437 477 OFFCURVE",
"467 485 OFFCURVE",
"497 485 CURVE SMOOTH",
"538 485 OFFCURVE",
"597 463 OFFCURVE",
"597 369 CURVE SMOOTH",
"597 -88 LINE SMOOTH",
"597 -157 OFFCURVE",
"611 -170 OFFCURVE",
"626 -170 CURVE SMOOTH",
"632 -170 OFFCURVE",
"645 -164 OFFCURVE",
"659 -156 CURVE SMOOTH",
"686 -141 LINE SMOOTH",
"702 -132 OFFCURVE",
"713 -127 OFFCURVE",
"713 -119 CURVE SMOOTH",
"713 -100 OFFCURVE",
"677 -113 OFFCURVE",
"677 -21 CURVE SMOOTH",
"677 370 LINE SMOOTH",
"677 499 OFFCURVE",
"619 550 OFFCURVE",
"525 550 CURVE SMOOTH",
"482 550 OFFCURVE",
"434 523 OFFCURVE",
"391 492 CURVE",
"363 529 OFFCURVE",
"326 550 OFFCURVE",
"285 550 CURVE SMOOTH",
"208 550 OFFCURVE",
"74 432 OFFCURVE",
"74 354 CURVE SMOOTH",
"74 85 LINE SMOOTH",
"74 16 OFFCURVE",
"110 -15 OFFCURVE",
"125 -15 CURVE SMOOTH",
"131 -15 OFFCURVE",
"143 -6 OFFCURVE",
"155 4 CURVE SMOOTH",
"169 16 LINE SMOOTH",
"182 27 OFFCURVE",
"193 35 OFFCURVE",
"193 43 CURVE SMOOTH"
);
}
);
width = 751;
}
);
unicode = 1E936;
category = Letter;
subCategory = Lowercase;
},
{
glyphname = chi_adlam;
production = uni1E937;
lastChange = "2017-01-05 17:36:54 +0000";
layers = (
{
anchors = (
{
name = btm;
position = "{270, -45}";
},
{
name = top;
position = "{330, 580}";
}
);
layerId = "E766B743-DB28-463C-9986-895181A4C6C0";
paths = (
{
closed = 1;
nodes = (
"228 75 LINE SMOOTH",
"170 75 OFFCURVE",
"126 115 OFFCURVE",
"126 194 CURVE SMOOTH",
"126 298 OFFCURVE",
"230 385 OFFCURVE",
"322 445 CURVE",
"449 411 OFFCURVE",
"540 312 OFFCURVE",
"540 193 CURVE SMOOTH",
"540 94 OFFCURVE",
"494 27 OFFCURVE",
"402 -53 CURVE SMOOTH",
"397 -57 OFFCURVE",
"394 -64 OFFCURVE",
"394 -69 CURVE SMOOTH",
"394 -77 OFFCURVE",
"398 -80 OFFCURVE",
"407 -80 CURVE SMOOTH",
"413 -80 OFFCURVE",
"418 -77 OFFCURVE",
"423 -74 CURVE SMOOTH",
"510 -15 OFFCURVE",
"622 86 OFFCURVE",
"622 217 CURVE SMOOTH",
"622 334 OFFCURVE",
"549 448 OFFCURVE",
"417 503 CURVE",
"506 561 LINE SMOOTH",
"514 566 OFFCURVE",
"538 578 OFFCURVE",
"538 591 CURVE SMOOTH",
"538 602 OFFCURVE",
"532 606 OFFCURVE",
"524 606 CURVE SMOOTH",
"516 606 OFFCURVE",
"507 600 OFFCURVE",
"501 597 CURVE SMOOTH",
"373 519 LINE",
"333 531 OFFCURVE",
"287 537 OFFCURVE",
"238 537 CURVE SMOOTH",
"215 537 LINE SMOOTH",
"190 537 OFFCURVE",
"191 527 OFFCURVE",
"166 487 CURVE SMOOTH",
"159 476 OFFCURVE",
"157 469 OFFCURVE",
"157 464 CURVE SMOOTH",
"157 457 OFFCURVE",
"163 455 OFFCURVE",
"170 455 CURVE SMOOTH",
"178 455 OFFCURVE",
"187 457 OFFCURVE",
"191 457 CURVE SMOOTH",
"228 457 LINE SMOOTH",
"243 457 OFFCURVE",
"257 456 OFFCURVE",
"271 454 CURVE",
"154 376 OFFCURVE",
"40 280 OFFCURVE",
"40 178 CURVE SMOOTH",
"40 49 OFFCURVE",
"122 0 OFFCURVE",
"200 0 CURVE SMOOTH",
"400 0 LINE SMOOTH",
"419 0 OFFCURVE",
"425 6 OFFCURVE",
"434 23 CURVE SMOOTH",
"450 52 LINE SMOOTH",
"454 59 OFFCURVE",
"471 92 OFFCURVE",
"471 95 CURVE SMOOTH",
"471 99 OFFCURVE",
"469 100 OFFCURVE",
"466 100 CURVE SMOOTH",
"458 100 OFFCURVE",
"433 75 OFFCURVE",
"399 75 CURVE SMOOTH"
);
}
);
width = 662;
}
);
unicode = 1E937;
category = Letter;
subCategory = Lowercase;
},
{
glyphname = ha_adlam;
production = uni1E938;
lastChange = "2017-01-05 17:36:54 +0000";
layers = (
{
anchors = (
{
name = btm;
position = "{290, -45}";
},
{
name = top;
position = "{330, 640}";
}
);
layerId = "E766B743-DB28-463C-9986-895181A4C6C0";
paths = (
{
closed = 1;
nodes = (
"86 433 OFFCURVE",
"91 431 OFFCURVE",
"98 431 CURVE SMOOTH",
"113 431 OFFCURVE",
"135 445 OFFCURVE",
"168 445 CURVE SMOOTH",
"251 445 LINE SMOOTH",
"395 445 OFFCURVE",
"474 367 OFFCURVE",
"474 218 CURVE SMOOTH",
"474 128 OFFCURVE",
"433 75 OFFCURVE",
"340 75 CURVE SMOOTH",
"167 75 LINE SMOOTH",
"133 75 OFFCURVE",
"122 101 OFFCURVE",
"109 101 CURVE SMOOTH",
"102 101 OFFCURVE",
"97 96 OFFCURVE",
"89 86 CURVE SMOOTH",
"47 36 LINE SMOOTH",
"42 30 OFFCURVE",
"38 22 OFFCURVE",
"38 16 CURVE SMOOTH",
"38 7 OFFCURVE",
"46 0 OFFCURVE",
"70 0 CURVE SMOOTH",
"262 0 LINE SMOOTH",
"442 0 OFFCURVE",
"560 164 OFFCURVE",
"560 262 CURVE SMOOTH",
"560 435 OFFCURVE",
"413 520 OFFCURVE",
"261 520 CURVE SMOOTH",
"186 520 LINE",
"219 572 OFFCURVE",
"234 613 OFFCURVE",
"234 625 CURVE SMOOTH",
"234 637 OFFCURVE",
"231 645 OFFCURVE",
"217 645 CURVE SMOOTH",
"208 645 OFFCURVE",
"193 642 OFFCURVE",
"181 639 CURVE SMOOTH",
"151 632 LINE SMOOTH",
"133 628 OFFCURVE",
"119 623 OFFCURVE",
"119 613 CURVE SMOOTH",
"119 603 OFFCURVE",
"138 580 OFFCURVE",
"138 555 CURVE SMOOTH",
"138 538 OFFCURVE",
"128 515 OFFCURVE",
"100 465 CURVE",
"90 451 OFFCURVE",
"86 442 OFFCURVE",
"86 438 CURVE SMOOTH"
);
}
);
width = 600;
}
);
unicode = 1E938;
category = Letter;
subCategory = Lowercase;
},
{
glyphname = qaaf_adlam;
production = uni1E939;
lastChange = "2017-01-05 17:36:54 +0000";
layers = (
{
anchors = (
{
name = btm;
position = "{330, -45}";
},
{
name = top;
position = "{280, 580}";
}
);
layerId = "E766B743-DB28-463C-9986-895181A4C6C0";
paths = (
{
closed = 1;
nodes = (
"510 67 LINE SMOOTH",
"510 -2 OFFCURVE",
"524 -15 OFFCURVE",
"539 -15 CURVE SMOOTH",
"545 -15 OFFCURVE",
"558 -9 OFFCURVE",
"572 -1 CURVE SMOOTH",
"599 14 LINE SMOOTH",
"615 23 OFFCURVE",
"626 28 OFFCURVE",
"626 36 CURVE SMOOTH",
"626 55 OFFCURVE",
"590 42 OFFCURVE",
"590 134 CURVE SMOOTH",
"590 688 LINE SMOOTH",
"590 757 OFFCURVE",
"576 770 OFFCURVE",
"561 770 CURVE SMOOTH",
"555 770 OFFCURVE",
"542 764 OFFCURVE",
"528 756 CURVE SMOOTH",
"501 741 LINE SMOOTH",
"484 731 OFFCURVE",
"474 727 OFFCURVE",
"474 719 CURVE SMOOTH",
"474 700 OFFCURVE",
"510 713 OFFCURVE",
"510 621 CURVE SMOOTH",
"510 302 LINE",
"484 281 OFFCURVE",
"457 268 OFFCURVE",
"431 258 CURVE",
"432 266 OFFCURVE",
"433 274 OFFCURVE",
"433 282 CURVE SMOOTH",
"433 335 LINE SMOOTH",
"433 482 OFFCURVE",
"375 550 OFFCURVE",
"292 550 CURVE SMOOTH",
"199 550 OFFCURVE",
"70 415 OFFCURVE",
"70 318 CURVE SMOOTH",
"70 241 OFFCURVE",
"131 170 OFFCURVE",
"262 170 CURVE SMOOTH",
"289 170 OFFCURVE",
"318 172 OFFCURVE",
"348 180 CURVE",
"339 138 OFFCURVE",
"305 75 OFFCURVE",
"249 75 CURVE SMOOTH",
"167 75 LINE SMOOTH",
"133 75 OFFCURVE",
"122 101 OFFCURVE",
"109 101 CURVE SMOOTH",
"102 101 OFFCURVE",
"97 96 OFFCURVE",
"89 86 CURVE SMOOTH",
"47 36 LINE SMOOTH",
"42 30 OFFCURVE",
"38 22 OFFCURVE",
"38 16 CURVE SMOOTH",
"38 7 OFFCURVE",
"46 0 OFFCURVE",
"70 0 CURVE SMOOTH",
"219 0 LINE SMOOTH",
"281 0 OFFCURVE",
"377 106 OFFCURVE",
"416 205 CURVE",
"445 219 OFFCURVE",
"476 238 OFFCURVE",
"510 264 CURVE"
);
},
{
closed = 1;
nodes = (
"196 239 OFFCURVE",
"146 293 OFFCURVE",
"146 354 CURVE SMOOTH",
"146 419 OFFCURVE",
"179 474 OFFCURVE",
"251 474 CURVE SMOOTH",
"312 474 OFFCURVE",
"350 431 OFFCURVE",
"350 335 CURVE SMOOTH",
"350 241 LINE",
"327 239 OFFCURVE",
"305 239 OFFCURVE",
"284 239 CURVE SMOOTH"
);
}
);
width = 664;
}
);
unicode = 1E939;
category = Letter;
subCategory = Lowercase;
},
{
glyphname = ga_adlam;
production = uni1E93A;
lastChange = "2017-01-05 17:36:54 +0000";
layers = (
{
anchors = (
{
name = btm;
position = "{280, -45}";
},
{
name = top;
position = "{270, 580}";
}
);
layerId = "E766B743-DB28-463C-9986-895181A4C6C0";
paths = (
{
closed = 1;
nodes = (
"497 468 LINE SMOOTH",
"497 537 OFFCURVE",
"483 550 OFFCURVE",
"468 550 CURVE SMOOTH",
"462 550 OFFCURVE",
"449 544 OFFCURVE",
"435 536 CURVE SMOOTH",
"408 521 LINE SMOOTH",
"392 512 OFFCURVE",
"381 507 OFFCURVE",
"381 499 CURVE SMOOTH",
"381 480 OFFCURVE",
"430 460 OFFCURVE",
"430 405 CURVE SMOOTH",
"430 343 OFFCURVE",
"405 311 OFFCURVE",
"375 286 CURVE",
"354 291 OFFCURVE",
"331 293 OFFCURVE",
"308 293 CURVE SMOOTH",
"247 293 OFFCURVE",
"204 280 OFFCURVE",
"181 280 CURVE SMOOTH",
"156 280 OFFCURVE",
"154 301 OFFCURVE",
"154 335 CURVE SMOOTH",
"154 468 LINE SMOOTH",
"154 537 OFFCURVE",
"140 550 OFFCURVE",
"125 550 CURVE SMOOTH",
"119 550 OFFCURVE",
"106 544 OFFCURVE",
"92 536 CURVE SMOOTH",
"65 521 LINE SMOOTH",
"48 511 OFFCURVE",
"38 507 OFFCURVE",
"38 499 CURVE SMOOTH",
"38 480 OFFCURVE",
"74 493 OFFCURVE",
"74 401 CURVE SMOOTH",
"74 299 LINE SMOOTH",
"74 248 OFFCURVE",
"83 217 OFFCURVE",
"123 217 CURVE SMOOTH",
"150 217 OFFCURVE",
"176 234 OFFCURVE",
"265 234 CURVE SMOOTH",
"376 234 OFFCURVE",
"444 190 OFFCURVE",
"444 127 CURVE SMOOTH",
"444 82 OFFCURVE",
"407 75 OFFCURVE",
"373 75 CURVE SMOOTH",
"178 75 LINE SMOOTH",
"139 75 OFFCURVE",
"128 101 OFFCURVE",
"114 101 CURVE SMOOTH",
"107 101 OFFCURVE",
"102 96 OFFCURVE",
"94 86 CURVE SMOOTH",
"52 36 LINE SMOOTH",
"47 30 OFFCURVE",
"43 22 OFFCURVE",
"43 16 CURVE SMOOTH",
"43 7 OFFCURVE",
"51 0 OFFCURVE",
"75 0 CURVE SMOOTH",
"337 0 LINE SMOOTH",
"415 0 OFFCURVE",
"512 94 OFFCURVE",
"512 152 CURVE SMOOTH",
"512 213 OFFCURVE",
"467 259 OFFCURVE",
"399 280 CURVE",
"444 316 OFFCURVE",
"497 373 OFFCURVE",
"497 451 CURVE SMOOTH"
);
}
);
width = 552;
}
);
unicode = 1E93A;
category = Letter;
subCategory = Lowercase;
},
{
glyphname = nya_adlam;
production = uni1E93B;
lastChange = "2017-01-05 17:36:54 +0000";
layers = (
{
anchors = (
{
name = btm;
position = "{265, -45}";
},
{
name = top;
position = "{280, 580}";
}
);
layerId = "E766B743-DB28-463C-9986-895181A4C6C0";
paths = (
{
closed = 1;
nodes = (
"482 437 LINE SMOOTH",
"489 446 OFFCURVE",
"493 453 OFFCURVE",
"493 461 CURVE SMOOTH",
"493 504 OFFCURVE",
"388 538 OFFCURVE",
"312 538 CURVE SMOOTH",
"277 538 LINE SMOOTH",
"197 538 OFFCURVE",
"40 443 OFFCURVE",
"40 373 CURVE SMOOTH",
"40 317 OFFCURVE",
"92 295 OFFCURVE",
"159 281 CURVE",
"98 246 OFFCURVE",
"42 197 OFFCURVE",
"42 135 CURVE SMOOTH",
"42 70 OFFCURVE",
"94 0 OFFCURVE",
"201 0 CURVE SMOOTH",
"373 0 LINE SMOOTH",
"392 0 OFFCURVE",
"399 7 OFFCURVE",
"407 23 CURVE SMOOTH",
"419 47 LINE SMOOTH",
"427 64 OFFCURVE",
"431 74 OFFCURVE",
"431 79 CURVE SMOOTH",
"431 83 OFFCURVE",
"429 84 OFFCURVE",
"426 84 CURVE SMOOTH",
"418 84 OFFCURVE",
"406 75 OFFCURVE",
"383 75 CURVE SMOOTH",
"224 75 LINE SMOOTH",
"165 75 OFFCURVE",
"119 97 OFFCURVE",
"119 165 CURVE SMOOTH",
"119 217 OFFCURVE",
"146 251 OFFCURVE",
"186 276 CURVE",
"309 253 OFFCURVE",
"466 243 OFFCURVE",
"466 105 CURVE SMOOTH",
"466 34 OFFCURVE",
"401 -32 OFFCURVE",
"373 -55 CURVE SMOOTH",
"368 -59 OFFCURVE",
"366 -65 OFFCURVE",
"366 -70 CURVE SMOOTH",
"366 -78 OFFCURVE",
"369 -80 OFFCURVE",
"382 -80 CURVE SMOOTH",
"384 -80 OFFCURVE",
"388 -77 OFFCURVE",
"392 -74 CURVE SMOOTH",
"465 -18 OFFCURVE",
"537 75 OFFCURVE",
"537 149 CURVE SMOOTH",
"537 379 OFFCURVE",
"115 295 OFFCURVE",
"115 408 CURVE SMOOTH",
"115 446 OFFCURVE",
"148 463 OFFCURVE",
"214 463 CURVE SMOOTH",
"293 463 LINE SMOOTH",
"429 463 OFFCURVE",
"403 393 OFFCURVE",
"438 393 CURVE SMOOTH",
"448 393 OFFCURVE",
"454 400 OFFCURVE",
"464 413 CURVE SMOOTH"
);
}
);
width = 577;
}
);
unicode = 1E93B;
category = Letter;
subCategory = Lowercase;
},
{
glyphname = tu_adlam;
production = uni1E93C;
lastChange = "2017-01-05 17:36:54 +0000";
layers = (
{
anchors = (
{
name = btm;
position = "{390, -45}";
},
{
name = top;
position = "{390, 580}";
}
);
layerId = "E766B743-DB28-463C-9986-895181A4C6C0";
paths = (
{
closed = 1;
nodes = (
"193 -23 OFFCURVE",
"154 -43 OFFCURVE",
"154 49 CURVE SMOOTH",
"154 396 LINE SMOOTH",
"154 468 OFFCURVE",
"194 485 OFFCURVE",
"238 485 CURVE SMOOTH",
"335 485 OFFCURVE",
"354 403 OFFCURVE",
"354 340 CURVE SMOOTH",
"354 154 LINE SMOOTH",
"354 48 OFFCURVE",
"445 0 OFFCURVE",
"512 0 CURVE SMOOTH",
"659 0 LINE SMOOTH",
"687 0 OFFCURVE",
"700 9 OFFCURVE",
"709 26 CURVE SMOOTH",
"729 62 LINE SMOOTH",
"732 67 OFFCURVE",
"734 72 OFFCURVE",
"734 77 CURVE SMOOTH",
"734 84 OFFCURVE",
"729 90 OFFCURVE",
"720 90 CURVE SMOOTH",
"714 90 OFFCURVE",
"693 75 OFFCURVE",
"660 75 CURVE SMOOTH",
"562 75 LINE",
"690 194 OFFCURVE",
"701 304 OFFCURVE",
"701 348 CURVE SMOOTH",
"701 461 OFFCURVE",
"632 550 OFFCURVE",
"526 550 CURVE SMOOTH",
"472 550 OFFCURVE",
"428 523 OFFCURVE",
"393 490 CURVE",
"368 525 OFFCURVE",
"333 550 OFFCURVE",
"290 550 CURVE SMOOTH",
"206 550 OFFCURVE",
"74 432 OFFCURVE",
"74 354 CURVE SMOOTH",
"74 0 LINE SMOOTH",
"74 -69 OFFCURVE",
"110 -100 OFFCURVE",
"125 -100 CURVE SMOOTH",
"131 -100 OFFCURVE",
"143 -91 OFFCURVE",
"155 -81 CURVE SMOOTH",
"169 -69 LINE SMOOTH",
"182 -58 OFFCURVE",
"193 -50 OFFCURVE",
"193 -42 CURVE SMOOTH"
);
},
{
closed = 1;
nodes = (
"434 355 LINE SMOOTH",
"434 391 OFFCURVE",
"425 429 OFFCURVE",
"409 461 CURVE",
"435 480 OFFCURVE",
"465 487 OFFCURVE",
"491 487 CURVE SMOOTH",
"580 487 OFFCURVE",
"617 431 OFFCURVE",
"617 317 CURVE SMOOTH",
"617 254 OFFCURVE",
"609 164 OFFCURVE",
"524 75 CURVE",
"488 75 LINE SMOOTH",
"441 75 OFFCURVE",
"434 99 OFFCURVE",
"434 148 CURVE"
);
}
);
width = 772;
}
);
unicode = 1E93C;
category = Letter;
subCategory = Lowercase;
},
{
glyphname = nha_adlam;
production = uni1E93D;
lastChange = "2017-01-05 17:36:54 +0000";
layers = (
{
anchors = (
{
name = btm;
position = "{250, -45}";
},
{
name = top;
position = "{270, 580}";
}
);
layerId = "E766B743-DB28-463C-9986-895181A4C6C0";
paths = (
{
closed = 1;
nodes = (
"403 -70 LINE SMOOTH",
"403 -139 OFFCURVE",
"422 -170 OFFCURVE",
"437 -170 CURVE SMOOTH",
"443 -170 OFFCURVE",
"455 -161 OFFCURVE",
"467 -151 CURVE SMOOTH",
"481 -139 LINE SMOOTH",
"494 -128 OFFCURVE",
"505 -120 OFFCURVE",
"505 -112 CURVE SMOOTH",
"505 -93 OFFCURVE",
"483 -100 OFFCURVE",
"483 -8 CURVE SMOOTH",
"483 310 LINE SMOOTH",
"483 466 OFFCURVE",
"357 538 OFFCURVE",
"243 538 CURVE SMOOTH",
"108 538 LINE SMOOTH",
"88 538 OFFCURVE",
"79 523 OFFCURVE",
"65 494 CURVE SMOOTH",
"59 482 OFFCURVE",
"55 473 OFFCURVE",
"55 468 CURVE SMOOTH",
"55 465 OFFCURVE",
"57 463 OFFCURVE",
"60 463 CURVE SMOOTH",
"251 463 LINE SMOOTH",
"361 463 OFFCURVE",
"403 414 OFFCURVE",
"403 325 CURVE SMOOTH",
"403 315 LINE",
"378 329 OFFCURVE",
"344 344 OFFCURVE",
"313 351 CURVE",
"313 379 LINE SMOOTH",
"313 411 OFFCURVE",
"307 422 OFFCURVE",
"294 422 CURVE SMOOTH",
"287 422 OFFCURVE",
"277 419 OFFCURVE",
"264 413 CURVE SMOOTH",
"242 403 LINE SMOOTH",
"227 396 OFFCURVE",
"223 387 OFFCURVE",
"223 381 CURVE SMOOTH",
"223 372 OFFCURVE",
"230 368 OFFCURVE",
"232 348 CURVE",
"142 325 OFFCURVE",
"40 247 OFFCURVE",
"40 162 CURVE SMOOTH",
"40 65 OFFCURVE",
"105 0 OFFCURVE",
"193 0 CURVE SMOOTH",
"293 0 LINE SMOOTH",
"315 0 OFFCURVE",
"318 30 OFFCURVE",
"325 51 CURVE SMOOTH",
"327 58 OFFCURVE",
"330 67 OFFCURVE",
"330 71 CURVE SMOOTH",
"330 79 OFFCURVE",
"326 83 OFFCURVE",
"321 83 CURVE SMOOTH",
"315 83 OFFCURVE",
"301 75 OFFCURVE",
"286 75 CURVE SMOOTH",
"261 75 LINE",
"285 105 OFFCURVE",
"313 182 OFFCURVE",
"313 257 CURVE SMOOTH",
"313 272 LINE",
"356 249 OFFCURVE",
"388 210 OFFCURVE",
"403 182 CURVE"
);
},
{
closed = 1;
nodes = (
"205 75 LINE SMOOTH",
"165 75 OFFCURVE",
"120 103 OFFCURVE",
"120 177 CURVE SMOOTH",
"120 221 OFFCURVE",
"133 293 OFFCURVE",
"233 293 CURVE",
"233 169 LINE SMOOTH",
"233 113 OFFCURVE",
"227 90 OFFCURVE",
"224 75 CURVE"
);
}
);
width = 555;
}
);
unicode = 1E93D;
category = Letter;
subCategory = Lowercase;
},
{
glyphname = va_adlam;
production = uni1E93E;
lastChange = "2017-01-05 17:36:54 +0000";
layers = (
{
anchors = (
{
name = btm;
position = "{295, -45}";
},
{
name = top;
position = "{295, 580}";
}
);
layerId = "E766B743-DB28-463C-9986-895181A4C6C0";
paths = (
{
closed = 1;
nodes = (
"517 494 LINE SMOOTH",
"517 516 OFFCURVE",
"516 543 OFFCURVE",
"502 543 CURVE SMOOTH",
"495 543 OFFCURVE",
"488 539 OFFCURVE",
"481 534 CURVE",
"453 545 OFFCURVE",
"396 550 OFFCURVE",
"373 550 CURVE SMOOTH",
"247 550 OFFCURVE",
"74 415 OFFCURVE",
"74 312 CURVE SMOOTH",
"74 67 LINE SMOOTH",
"74 -2 OFFCURVE",
"88 -15 OFFCURVE",
"103 -15 CURVE SMOOTH",
"109 -15 OFFCURVE",
"122 -9 OFFCURVE",
"136 -1 CURVE SMOOTH",
"163 14 LINE SMOOTH",
"179 23 OFFCURVE",
"190 28 OFFCURVE",
"190 36 CURVE SMOOTH",
"190 55 OFFCURVE",
"154 42 OFFCURVE",
"154 134 CURVE SMOOTH",
"154 320 LINE SMOOTH",
"154 464 OFFCURVE",
"249 478 OFFCURVE",
"321 478 CURVE SMOOTH",
"382 478 OFFCURVE",
"413 465 OFFCURVE",
"435 460 CURVE",
"436 456 OFFCURVE",
"437 450 OFFCURVE",
"437 442 CURVE SMOOTH",
"437 302 LINE",
"417 298 OFFCURVE",
"390 297 OFFCURVE",
"342 297 CURVE SMOOTH",
"332 297 LINE SMOOTH",
"293 297 OFFCURVE",
"288 307 OFFCURVE",
"274 307 CURVE SMOOTH",
"267 307 OFFCURVE",
"262 301 OFFCURVE",
"254 291 CURVE SMOOTH",
"231 263 LINE SMOOTH",
"226 257 OFFCURVE",
"222 249 OFFCURVE",
"222 243 CURVE SMOOTH",
"222 234 OFFCURVE",
"230 227 OFFCURVE",
"254 227 CURVE SMOOTH",
"295 227 LINE SMOOTH",
"341 227 OFFCURVE",
"393 242 OFFCURVE",
"437 259 CURVE",
"437 70 LINE SMOOTH",
"437 1 OFFCURVE",
"451 -12 OFFCURVE",
"466 -12 CURVE SMOOTH",
"472 -12 OFFCURVE",
"485 -6 OFFCURVE",
"499 2 CURVE SMOOTH",
"526 17 LINE SMOOTH",
"543 27 OFFCURVE",
"553 31 OFFCURVE",
"553 39 CURVE SMOOTH",
"553 58 OFFCURVE",
"517 45 OFFCURVE",
"517 137 CURVE SMOOTH"
);
}
);
width = 591;
}
);
unicode = 1E93E;
category = Letter;
subCategory = Lowercase;
},
{
glyphname = kha_adlam;
production = uni1E93F;
lastChange = "2017-01-05 17:36:54 +0000";
layers = (
{
anchors = (
{
name = btm;
position = "{360, -45}";
},
{
name = top;
position = "{415, 580}";
}
);
layerId = "E766B743-DB28-463C-9986-895181A4C6C0";
paths = (
{
closed = 1;
nodes = (
"656 562 OFFCURVE",
"655 563 OFFCURVE",
"651 563 CURVE SMOOTH",
"646 563 OFFCURVE",
"634 556 OFFCURVE",
"625 553 CURVE SMOOTH",
"604 546 OFFCURVE",
"567 538 OFFCURVE",
"505 538 CURVE SMOOTH",
"332 538 LINE SMOOTH",
"269 538 OFFCURVE",
"270 549 OFFCURVE",
"251 549 CURVE SMOOTH",
"243 549 OFFCURVE",
"235 541 OFFCURVE",
"229 534 CURVE SMOOTH",
"214 514 LINE SMOOTH",
"203 500 OFFCURVE",
"195 494 OFFCURVE",
"195 486 CURVE SMOOTH",
"195 465 OFFCURVE",
"265 463 OFFCURVE",
"303 463 CURVE SMOOTH",
"320 463 LINE",
"320 338 LINE",
"237 338 LINE SMOOTH",
"199 338 OFFCURVE",
"173 341 OFFCURVE",
"154 345 CURVE",
"154 688 LINE SMOOTH",
"154 757 OFFCURVE",
"140 770 OFFCURVE",
"125 770 CURVE SMOOTH",
"119 770 OFFCURVE",
"106 764 OFFCURVE",
"92 756 CURVE SMOOTH",
"65 741 LINE SMOOTH",
"49 732 OFFCURVE",
"38 727 OFFCURVE",
"38 719 CURVE SMOOTH",
"38 700 OFFCURVE",
"74 713 OFFCURVE",
"74 621 CURVE SMOOTH",
"74 67 LINE SMOOTH",
"74 -2 OFFCURVE",
"88 -15 OFFCURVE",
"103 -15 CURVE SMOOTH",
"109 -15 OFFCURVE",
"122 -9 OFFCURVE",
"136 -1 CURVE SMOOTH",
"163 14 LINE SMOOTH",
"179 23 OFFCURVE",
"190 28 OFFCURVE",
"190 36 CURVE SMOOTH",
"190 55 OFFCURVE",
"154 42 OFFCURVE",
"154 134 CURVE SMOOTH",
"154 265 LINE",
"173 264 OFFCURVE",
"192 263 OFFCURVE",
"206 263 CURVE SMOOTH",
"320 263 LINE",
"320 123 LINE SMOOTH",
"320 65 OFFCURVE",
"413 0 OFFCURVE",
"458 0 CURVE SMOOTH",
"572 0 LINE SMOOTH",
"600 0 OFFCURVE",
"613 9 OFFCURVE",
"622 26 CURVE SMOOTH",
"642 62 LINE SMOOTH",
"645 67 OFFCURVE",
"647 72 OFFCURVE",
"647 77 CURVE SMOOTH",
"647 84 OFFCURVE",
"642 90 OFFCURVE",
"633 90 CURVE SMOOTH",
"627 90 OFFCURVE",
"606 75 OFFCURVE",
"573 75 CURVE SMOOTH",
"454 75 LINE SMOOTH",
"407 75 OFFCURVE",
"400 99 OFFCURVE",
"400 148 CURVE SMOOTH",
"400 264 LINE",
"543 275 OFFCURVE",
"614 359 OFFCURVE",
"614 376 CURVE SMOOTH",
"614 381 OFFCURVE",
"613 382 OFFCURVE",
"609 382 CURVE SMOOTH",
"604 382 OFFCURVE",
"585 372 OFFCURVE",
"577 369 CURVE SMOOTH",
"500 339 OFFCURVE",
"466 338 OFFCURVE",
"417 338 CURVE SMOOTH",
"400 338 LINE",
"400 463 LINE",
"445 463 LINE SMOOTH",
"582 463 OFFCURVE",
"656 539 OFFCURVE",
"656 557 CURVE SMOOTH"
);
}
);
width = 686;
}
);
unicode = 1E93F;
category = Letter;
subCategory = Lowercase;
},
{
glyphname = gbe_adlam;
lastChange = "2017-01-05 17:36:54 +0000";
layers = (
{
anchors = (
{
name = btm;
position = "{300, -45}";
},
{
name = top;
position = "{300, 580}";
}
);
layerId = "E766B743-DB28-463C-9986-895181A4C6C0";
paths = (
{
closed = 1;
nodes = (
"524 396 LINE SMOOTH",
"524 449 OFFCURVE",
"521 466 OFFCURVE",
"505 466 CURVE SMOOTH",
"500 466 OFFCURVE",
"494 464 OFFCURVE",
"487 462 CURVE SMOOTH",
"454 452 OFFCURVE",
"435 445 OFFCURVE",
"435 430 CURVE SMOOTH",
"435 413 OFFCURVE",
"444 404 OFFCURVE",
"444 356 CURVE SMOOTH",
"444 305 LINE",
"392 256 OFFCURVE",
"340 238 OFFCURVE",
"275 238 CURVE SMOOTH",
"181 238 OFFCURVE",
"126 286 OFFCURVE",
"126 356 CURVE SMOOTH",
"126 427 OFFCURVE",
"171 463 OFFCURVE",
"237 463 CURVE SMOOTH",
"298 463 LINE SMOOTH",
"463 463 OFFCURVE",
"544 558 OFFCURVE",
"544 576 CURVE SMOOTH",
"544 581 OFFCURVE",
"543 582 OFFCURVE",
"539 582 CURVE SMOOTH",
"534 582 OFFCURVE",
"515 572 OFFCURVE",
"507 569 CURVE SMOOTH",
"430 539 OFFCURVE",
"396 538 OFFCURVE",
"347 538 CURVE SMOOTH",
"298 538 LINE SMOOTH",
"182 538 OFFCURVE",
"50 422 OFFCURVE",
"50 318 CURVE SMOOTH",
"50 219 OFFCURVE",
"155 174 OFFCURVE",
"249 174 CURVE SMOOTH",
"313 174 OFFCURVE",
"387 215 OFFCURVE",
"444 261 CURVE",
"444 184 LINE SMOOTH",
"444 99 OFFCURVE",
"441 75 OFFCURVE",
"366 75 CURVE SMOOTH",
"203 75 LINE SMOOTH",
"164 75 OFFCURVE",
"153 101 OFFCURVE",
"139 101 CURVE SMOOTH",
"132 101 OFFCURVE",
"127 96 OFFCURVE",
"119 86 CURVE SMOOTH",
"77 36 LINE SMOOTH",
"72 30 OFFCURVE",
"68 22 OFFCURVE",
"68 16 CURVE SMOOTH",
"68 7 OFFCURVE",
"76 0 OFFCURVE",
"100 0 CURVE SMOOTH",
"318 0 LINE SMOOTH",
"450 0 OFFCURVE",
"524 135 OFFCURVE",
"524 184 CURVE"
);
},
{
closed = 1;
nodes = (
"214 394 OFFCURVE",
"206 380 OFFCURVE",
"193 351 CURVE SMOOTH",
"188 341 OFFCURVE",
"184 332 OFFCURVE",
"184 327 CURVE SMOOTH",
"184 324 OFFCURVE",
"186 322 OFFCURVE",
"189 322 CURVE SMOOTH",
"210 321 OFFCURVE",
"242 318 OFFCURVE",
"263 318 CURVE SMOOTH",
"345 318 OFFCURVE",
"393 370 OFFCURVE",
"405 400 CURVE",
"405 401 LINE",
"405 403 OFFCURVE",
"401 406 OFFCURVE",
"397 405 CURVE SMOOTH",
"374 398 OFFCURVE",
"380 389 OFFCURVE",
"300 389 CURVE SMOOTH",
"277 389 OFFCURVE",
"243 394 OFFCURVE",
"233 394 CURVE SMOOTH"
);
}
);
width = 594;
}
);
unicode = 1E940;
},
{
glyphname = zal_adlam;
lastChange = "2017-01-05 17:36:54 +0000";
layers = (
{
anchors = (
{
name = btm;
position = "{390, -45}";
},
{
name = top;
position = "{390, 580}";
}
);
layerId = "E766B743-DB28-463C-9986-895181A4C6C0";
paths = (
{
closed = 1;
nodes = (
"494 75 LINE SMOOTH",
"447 75 OFFCURVE",
"440 99 OFFCURVE",
"440 148 CURVE SMOOTH",
"440 429 LINE SMOOTH",
"440 462 OFFCURVE",
"457 479 OFFCURVE",
"493 479 CURVE SMOOTH",
"552 479 OFFCURVE",
"598 427 OFFCURVE",
"598 340 CURVE SMOOTH",
"598 295 OFFCURVE",
"588 251 OFFCURVE",
"572 222 CURVE SMOOTH",
"565 209 OFFCURVE",
"561 200 OFFCURVE",
"561 194 CURVE SMOOTH",
"561 188 OFFCURVE",
"564 183 OFFCURVE",
"571 183 CURVE SMOOTH",
"576 183 OFFCURVE",
"584 187 OFFCURVE",
"595 197 CURVE SMOOTH",
"655 254 OFFCURVE",
"672 342 OFFCURVE",
"672 391 CURVE SMOOTH",
"672 481 OFFCURVE",
"625 550 OFFCURVE",
"519 550 CURVE SMOOTH",
"489 550 OFFCURVE",
"437 536 OFFCURVE",
"400 500 CURVE",
"374 533 OFFCURVE",
"334 550 OFFCURVE",
"288 550 CURVE SMOOTH",
"169 550 OFFCURVE",
"50 408 OFFCURVE",
"50 338 CURVE SMOOTH",
"50 292 OFFCURVE",
"59 254 OFFCURVE",
"82 224 CURVE SMOOTH",
"83 223 OFFCURVE",
"84 222 OFFCURVE",
"87 222 CURVE SMOOTH",
"90 222 OFFCURVE",
"94 223 OFFCURVE",
"100 227 CURVE SMOOTH",
"141 255 LINE SMOOTH",
"161 268 OFFCURVE",
"166 275 OFFCURVE",
"166 279 CURVE SMOOTH",
"166 284 OFFCURVE",
"155 287 OFFCURVE",
"153 288 CURVE SMOOTH",
"132 294 OFFCURVE",
"120 325 OFFCURVE",
"120 367 CURVE SMOOTH",
"120 422 OFFCURVE",
"173 486 OFFCURVE",
"241 486 CURVE SMOOTH",
"340 486 OFFCURVE",
"360 418 OFFCURVE",
"360 335 CURVE SMOOTH",
"360 146 LINE SMOOTH",
"360 88 OFFCURVE",
"346 75 OFFCURVE",
"279 75 CURVE SMOOTH",
"173 75 LINE SMOOTH",
"134 75 OFFCURVE",
"123 101 OFFCURVE",
"109 101 CURVE SMOOTH",
"102 101 OFFCURVE",
"97 96 OFFCURVE",
"89 86 CURVE SMOOTH",
"47 36 LINE SMOOTH",
"42 30 OFFCURVE",
"38 22 OFFCURVE",
"38 16 CURVE SMOOTH",
"38 7 OFFCURVE",
"46 0 OFFCURVE",
"70 0 CURVE SMOOTH",
"257 0 LINE SMOOTH",
"319 0 OFFCURVE",
"364 25 OFFCURVE",
"394 56 CURVE",
"425 24 OFFCURVE",
"470 0 OFFCURVE",
"498 0 CURVE SMOOTH",
"618 0 LINE SMOOTH",
"649 0 OFFCURVE",
"649 -16 OFFCURVE",
"662 -16 CURVE SMOOTH",
"669 -16 OFFCURVE",
"675 -10 OFFCURVE",
"687 3 CURVE SMOOTH",
"719 40 LINE SMOOTH",
"723 45 OFFCURVE",
"725 48 OFFCURVE",
"725 52 CURVE SMOOTH",
"725 67 OFFCURVE",
"691 75 OFFCURVE",
"649 75 CURVE"
);
}
);
width = 773;
}
);
unicode = 1E941;
},
{
glyphname = kpo_adlam;
lastChange = "2017-01-05 17:36:54 +0000";
layers = (
{
anchors = (
{
name = btm;
position = "{300, -45}";
},
{
name = top;
position = "{290, 580}";
}
);
layerId = "E766B743-DB28-463C-9986-895181A4C6C0";
paths = (
{
closed = 1;
nodes = (
"154 468 LINE SMOOTH",
"154 537 OFFCURVE",
"140 550 OFFCURVE",
"125 550 CURVE SMOOTH",
"119 550 OFFCURVE",
"106 544 OFFCURVE",
"92 536 CURVE SMOOTH",
"65 521 LINE SMOOTH",
"49 512 OFFCURVE",
"38 507 OFFCURVE",
"38 499 CURVE SMOOTH",
"38 480 OFFCURVE",
"74 493 OFFCURVE",
"74 401 CURVE SMOOTH",
"74 132 LINE SMOOTH",
"74 78 OFFCURVE",
"163 0 OFFCURVE",
"221 0 CURVE SMOOTH",
"418 0 LINE SMOOTH",
"449 0 OFFCURVE",
"449 -16 OFFCURVE",
"462 -16 CURVE SMOOTH",
"469 -16 OFFCURVE",
"475 -10 OFFCURVE",
"487 3 CURVE SMOOTH",
"519 40 LINE SMOOTH",
"523 45 OFFCURVE",
"525 48 OFFCURVE",
"525 52 CURVE SMOOTH",
"525 67 OFFCURVE",
"491 75 OFFCURVE",
"449 75 CURVE SMOOTH",
"210 75 LINE SMOOTH",
"174 75 OFFCURVE",
"154 82 OFFCURVE",
"154 138 CURVE SMOOTH",
"154 368 LINE",
"195 464 OFFCURVE",
"262 487 OFFCURVE",
"313 487 CURVE SMOOTH",
"405 487 OFFCURVE",
"437 423 OFFCURVE",
"437 356 CURVE SMOOTH",
"437 279 OFFCURVE",
"395 238 OFFCURVE",
"349 238 CURVE SMOOTH",
"278 238 OFFCURVE",
"256 294 OFFCURVE",
"246 294 CURVE SMOOTH",
"239 294 OFFCURVE",
"237 288 OFFCURVE",
"230 278 CURVE SMOOTH",
"204 240 LINE SMOOTH",
"201 236 OFFCURVE",
"197 227 OFFCURVE",
"197 223 CURVE SMOOTH",
"197 204 OFFCURVE",
"262 167 OFFCURVE",
"320 167 CURVE SMOOTH",
"372 167 OFFCURVE",
"418 202 OFFCURVE",
"451 243 CURVE SMOOTH",
"494 296 OFFCURVE",
"521 346 OFFCURVE",
"521 380 CURVE SMOOTH",
"521 461 OFFCURVE",
"479 550 OFFCURVE",
"354 550 CURVE SMOOTH",
"289 550 OFFCURVE",
"221 521 OFFCURVE",
"154 448 CURVE"
);
}
);
width = 573;
}
);
unicode = 1E942;
},
{
glyphname = sha_adlam;
lastChange = "2017-01-05 17:36:54 +0000";
layers = (
{
anchors = (
{
name = btm;
position = "{360, -45}";
},
{
name = top;
position = "{350, 580}";
}
);
layerId = "E766B743-DB28-463C-9986-895181A4C6C0";
paths = (
{
closed = 1;
nodes = (
"671 84 OFFCURVE",
"666 90 OFFCURVE",
"657 90 CURVE SMOOTH",
"651 90 OFFCURVE",
"630 75 OFFCURVE",
"597 75 CURVE SMOOTH",
"463 75 LINE SMOOTH",
"416 75 OFFCURVE",
"409 99 OFFCURVE",
"409 148 CURVE SMOOTH",
"409 171 LINE",
"517 223 OFFCURVE",
"654 350 OFFCURVE",
"654 474 CURVE SMOOTH",
"654 489 LINE SMOOTH",
"654 537 OFFCURVE",
"640 550 OFFCURVE",
"625 550 CURVE SMOOTH",
"619 550 OFFCURVE",
"606 544 OFFCURVE",
"592 536 CURVE SMOOTH",
"565 521 LINE SMOOTH",
"549 512 OFFCURVE",
"540 507 OFFCURVE",
"540 499 CURVE SMOOTH",
"540 481 OFFCURVE",
"573 491 OFFCURVE",
"573 417 CURVE SMOOTH",
"573 315 OFFCURVE",
"488 255 OFFCURVE",
"409 231 CURVE",
"409 468 LINE SMOOTH",
"409 537 OFFCURVE",
"395 550 OFFCURVE",
"380 550 CURVE SMOOTH",
"374 550 OFFCURVE",
"361 544 OFFCURVE",
"347 536 CURVE SMOOTH",
"320 521 LINE SMOOTH",
"304 512 OFFCURVE",
"293 507 OFFCURVE",
"293 499 CURVE SMOOTH",
"293 480 OFFCURVE",
"329 493 OFFCURVE",
"329 401 CURVE SMOOTH",
"329 218 LINE",
"289 218 OFFCURVE",
"209 219 OFFCURVE",
"154 256 CURVE",
"154 468 LINE SMOOTH",
"154 537 OFFCURVE",
"140 550 OFFCURVE",
"125 550 CURVE SMOOTH",
"119 550 OFFCURVE",
"106 544 OFFCURVE",
"92 536 CURVE SMOOTH",
"65 521 LINE SMOOTH",
"49 512 OFFCURVE",
"38 507 OFFCURVE",
"38 499 CURVE SMOOTH",
"38 480 OFFCURVE",
"74 493 OFFCURVE",
"74 401 CURVE SMOOTH",
"74 -88 LINE SMOOTH",
"74 -157 OFFCURVE",
"88 -170 OFFCURVE",
"103 -170 CURVE SMOOTH",
"109 -170 OFFCURVE",
"122 -164 OFFCURVE",
"136 -156 CURVE SMOOTH",
"163 -141 LINE SMOOTH",
"179 -132 OFFCURVE",
"190 -127 OFFCURVE",
"190 -119 CURVE SMOOTH",
"190 -100 OFFCURVE",
"154 -113 OFFCURVE",
"154 -21 CURVE SMOOTH",
"154 172 LINE",
"206 150 OFFCURVE",
"269 146 OFFCURVE",
"322 146 CURVE SMOOTH",
"329 146 LINE",
"329 123 LINE SMOOTH",
"329 65 OFFCURVE",
"422 0 OFFCURVE",
"467 0 CURVE SMOOTH",
"596 0 LINE SMOOTH",
"624 0 OFFCURVE",
"637 9 OFFCURVE",
"646 26 CURVE SMOOTH",
"666 62 LINE SMOOTH",
"669 67 OFFCURVE",
"671 72 OFFCURVE",
"671 77 CURVE SMOOTH"
);
}
);
width = 711;
}
);
unicode = 1E943;
},
{
glyphname = aliflengthener_adlam;
production = uni1E944;
lastChange = "2017-01-05 17:36:54 +0000";
layers = (
{
anchors = (
{
name = _top;
position = "{227, 580}";
}
);
layerId = "E766B743-DB28-463C-9986-895181A4C6C0";
paths = (
{
closed = 1;
nodes = (
"231 644 LINE SMOOTH",
"221 633 OFFCURVE",
"217 626 OFFCURVE",
"217 622 CURVE SMOOTH",
"217 617 OFFCURVE",
"221 610 OFFCURVE",
"228 610 CURVE SMOOTH",
"233 610 OFFCURVE",
"239 613 OFFCURVE",
"251 625 CURVE SMOOTH",
"264 638 LINE",
"265 631 OFFCURVE",
"272 631 OFFCURVE",
"278 631 CURVE SMOOTH",
"284 631 OFFCURVE",
"292 632 OFFCURVE",
"300 635 CURVE",
"303 651 OFFCURVE",
"306 667 OFFCURVE",
"308 684 CURVE",
"385 762 LINE SMOOTH",
"421 798 OFFCURVE",
"427 812 OFFCURVE",
"427 820 CURVE SMOOTH",
"427 823 OFFCURVE",
"425 827 OFFCURVE",
"420 827 CURVE SMOOTH",
"415 827 OFFCURVE",
"401 818 OFFCURVE",
"364 780 CURVE SMOOTH",
"311 726 LINE",
"309 767 OFFCURVE",
"290 799 OFFCURVE",
"229 799 CURVE SMOOTH",
"110 799 LINE SMOOTH",
"80 799 OFFCURVE",
"76 793 OFFCURVE",
"62 765 CURVE SMOOTH",
"53 747 OFFCURVE",
"49 737 OFFCURVE",
"49 731 CURVE SMOOTH",
"49 726 OFFCURVE",
"52 725 OFFCURVE",
"56 725 CURVE SMOOTH",
"63 725 OFFCURVE",
"73 729 OFFCURVE",
"84 729 CURVE SMOOTH",
"177 729 LINE SMOOTH",
"247 729 OFFCURVE",
"270 714 OFFCURVE",
"272 686 CURVE"
);
}
);
width = 0;
}
);
unicode = 1E944;
script = adlam;
category = Mark;
subCategory = Nonspacing;
},
{
glyphname = vowellengthener_adlam;
production = uni1E945;
lastChange = "2017-01-05 17:36:54 +0000";
layers = (
{
anchors = (
{
name = _top;
position = "{237, 580}";
}
);
layerId = "E766B743-DB28-463C-9986-895181A4C6C0";
paths = (
{
closed = 1;
nodes = (
"166 825 OFFCURVE",
"50 720 OFFCURVE",
"50 687 CURVE SMOOTH",
"50 627 OFFCURVE",
"116 610 OFFCURVE",
"184 610 CURVE SMOOTH",
"326 610 LINE SMOOTH",
"357 610 OFFCURVE",
"357 594 OFFCURVE",
"370 594 CURVE SMOOTH",
"377 594 OFFCURVE",
"383 600 OFFCURVE",
"395 613 CURVE SMOOTH",
"427 650 LINE SMOOTH",
"431 655 OFFCURVE",
"433 658 OFFCURVE",
"433 662 CURVE SMOOTH",
"433 677 OFFCURVE",
"399 680 OFFCURVE",
"357 680 CURVE SMOOTH",
"160 680 LINE SMOOTH",
"127 680 OFFCURVE",
"113 690 OFFCURVE",
"113 711 CURVE SMOOTH",
"113 735 OFFCURVE",
"134 763 OFFCURVE",
"194 763 CURVE SMOOTH",
"245 763 OFFCURVE",
"259 735 OFFCURVE",
"265 711 CURVE SMOOTH",
"266 708 OFFCURVE",
"271 708 OFFCURVE",
"274 708 CURVE SMOOTH",
"288 708 OFFCURVE",
"325 769 OFFCURVE",
"325 770 CURVE SMOOTH",
"325 791 OFFCURVE",
"303 825 OFFCURVE",
"253 825 CURVE SMOOTH"
);
}
);
width = 0;
}
);
unicode = 1E945;
script = adlam;
category = Mark;
subCategory = Nonspacing;
},
{
glyphname = vowellengthener_adlam.alt;
production = uni1E945.alt;
lastChange = "2017-01-05 17:36:54 +0000";
layers = (
{
anchors = (
{
name = _top;
position = "{185, 580}";
}
);
layerId = "E766B743-DB28-463C-9986-895181A4C6C0";
paths = (
{
closed = 1;
nodes = (
"298 898 OFFCURVE",
"293 909 OFFCURVE",
"279 909 CURVE SMOOTH",
"276 909 OFFCURVE",
"273 909 OFFCURVE",
"269 908 CURVE SMOOTH",
"204 895 LINE SMOOTH",
"193 893 OFFCURVE",
"189 890 OFFCURVE",
"189 885 CURVE SMOOTH",
"189 874 OFFCURVE",
"208 841 OFFCURVE",
"208 814 CURVE SMOOTH",
"208 776 OFFCURVE",
"202 743 OFFCURVE",
"179 712 CURVE SMOOTH",
"157 682 OFFCURVE",
"101 647 OFFCURVE",
"60 633 CURVE SMOOTH",
"55 631 OFFCURVE",
"52 624 OFFCURVE",
"52 622 CURVE SMOOTH",
"52 612 OFFCURVE",
"59 610 OFFCURVE",
"65 610 CURVE SMOOTH",
"89 610 LINE SMOOTH",
"132 610 OFFCURVE",
"198 661 OFFCURVE",
"220 686 CURVE SMOOTH",
"270 742 OFFCURVE",
"298 805 OFFCURVE",
"298 869 CURVE SMOOTH"
);
}
);
width = 0;
}
);
},
{
glyphname = geminationmark_adlam;
production = uni1E946;
lastChange = "2017-01-05 17:36:54 +0000";
layers = (
{
anchors = (
{
name = _top;
position = "{237, 580}";
}
);
layerId = "E766B743-DB28-463C-9986-895181A4C6C0";
paths = (
{
closed = 1;
nodes = (
"164 680 LINE SMOOTH",
"133 680 OFFCURVE",
"122 684 OFFCURVE",
"109 684 CURVE SMOOTH",
"101 684 OFFCURVE",
"93 675 OFFCURVE",
"83 664 CURVE SMOOTH",
"63 640 LINE SMOOTH",
"59 635 OFFCURVE",
"57 632 OFFCURVE",
"57 628 CURVE SMOOTH",
"57 613 OFFCURVE",
"91 610 OFFCURVE",
"133 610 CURVE SMOOTH",
"316 610 LINE SMOOTH",
"347 610 OFFCURVE",
"347 594 OFFCURVE",
"360 594 CURVE SMOOTH",
"367 594 OFFCURVE",
"373 600 OFFCURVE",
"385 613 CURVE SMOOTH",
"417 650 LINE SMOOTH",
"421 655 OFFCURVE",
"423 658 OFFCURVE",
"423 662 CURVE SMOOTH",
"423 677 OFFCURVE",
"389 680 OFFCURVE",
"347 680 CURVE"
);
}
);
width = 0;
}
);
unicode = 1E946;
script = adlam;
category = Mark;
subCategory = Nonspacing;
},
{
glyphname = hamza_adlam;
production = uni1E947;
lastChange = "2017-01-05 17:36:54 +0000";
layers = (
{
anchors = (
{
name = _top;
position = "{179, 580}";
}
);
layerId = "E766B743-DB28-463C-9986-895181A4C6C0";
paths = (
{
closed = 1;
nodes = (
"344 882 OFFCURVE",
"313 930 OFFCURVE",
"294 930 CURVE SMOOTH",
"278 930 OFFCURVE",
"242 883 OFFCURVE",
"242 878 CURVE SMOOTH",
"242 867 OFFCURVE",
"284 851 OFFCURVE",
"284 770 CURVE SMOOTH",
"284 743 OFFCURVE",
"276 675 OFFCURVE",
"176 675 CURVE SMOOTH",
"129 675 OFFCURVE",
"110 702 OFFCURVE",
"110 732 CURVE SMOOTH",
"110 765 OFFCURVE",
"132 794 OFFCURVE",
"157 794 CURVE SMOOTH",
"177 794 OFFCURVE",
"190 770 OFFCURVE",
"193 750 CURVE SMOOTH",
"193 747 OFFCURVE",
"199 747 OFFCURVE",
"202 747 CURVE SMOOTH",
"216 747 OFFCURVE",
"250 802 OFFCURVE",
"250 803 CURVE SMOOTH",
"250 831 OFFCURVE",
"218 854 OFFCURVE",
"195 854 CURVE SMOOTH",
"127 854 OFFCURVE",
"50 761 OFFCURVE",
"50 686 CURVE SMOOTH",
"50 634 OFFCURVE",
"93 610 OFFCURVE",
"146 610 CURVE SMOOTH",
"245 610 OFFCURVE",
"344 735 OFFCURVE",
"344 835 CURVE SMOOTH"
);
}
);
width = 0;
}
);
unicode = 1E947;
script = adlam;
category = Mark;
subCategory = Nonspacing;
},
{
glyphname = consonantmod_adlam;
production = uni1E948;
lastChange = "2017-01-05 17:36:54 +0000";
layers = (
{
anchors = (
{
name = _top;
position = "{180, 580}";
}
);
layerId = "E766B743-DB28-463C-9986-895181A4C6C0";
paths = (
{
closed = 1;
nodes = (
"180 741 OFFCURVE",
"124 818 OFFCURVE",
"105 818 CURVE SMOOTH",
"95 818 OFFCURVE",
"50 787 OFFCURVE",
"50 782 CURVE SMOOTH",
"50 780 OFFCURVE",
"51 775 OFFCURVE",
"53 773 CURVE SMOOTH",
"86 750 OFFCURVE",
"150 654 OFFCURVE",
"165 619 CURVE SMOOTH",
"171 605 OFFCURVE",
"174 600 OFFCURVE",
"180 600 CURVE SMOOTH",
"186 600 OFFCURVE",
"187 605 OFFCURVE",
"201 627 CURVE SMOOTH",
"230 673 OFFCURVE",
"259 720 OFFCURVE",
"289 760 CURVE SMOOTH",
"317 798 OFFCURVE",
"326 802 OFFCURVE",
"326 809 CURVE SMOOTH",
"326 812 OFFCURVE",
"322 817 OFFCURVE",
"317 817 CURVE",
"313 816 OFFCURVE",
"309 819 OFFCURVE",
"277 783 CURVE SMOOTH",
"257 760 OFFCURVE",
"231 725 OFFCURVE",
"207 690 CURVE"
);
}
);
width = 0;
}
);
unicode = 1E948;
script = adlam;
category = Mark;
subCategory = Nonspacing;
},
{
glyphname = geminateconsonantmod_adlam;
production = uni1E949;
lastChange = "2017-01-05 17:36:54 +0000";
layers = (
{
anchors = (
{
name = _top;
position = "{207, 580}";
}
);
layerId = "E766B743-DB28-463C-9986-895181A4C6C0";
paths = (
{
closed = 1;
nodes = (
"244 631 OFFCURVE",
"236 619 OFFCURVE",
"236 612 CURVE SMOOTH",
"236 606 OFFCURVE",
"243 600 OFFCURVE",
"250 600 CURVE SMOOTH",
"256 600 OFFCURVE",
"264 615 OFFCURVE",
"271 625 CURVE",
"284 649 OFFCURVE",
"339 739 OFFCURVE",
"373 775 CURVE SMOOTH",
"378 781 OFFCURVE",
"388 794 OFFCURVE",
"388 802 CURVE SMOOTH",
"388 807 OFFCURVE",
"385 810 OFFCURVE",
"376 810 CURVE SMOOTH",
"368 810 OFFCURVE",
"363 803 OFFCURVE",
"357 797 CURVE SMOOTH",
"309 743 OFFCURVE",
"262 667 OFFCURVE",
"249 641 CURVE SMOOTH"
);
},
{
closed = 1;
nodes = (
"180 741 OFFCURVE",
"124 818 OFFCURVE",
"105 818 CURVE SMOOTH",
"95 818 OFFCURVE",
"50 787 OFFCURVE",
"50 782 CURVE SMOOTH",
"50 780 OFFCURVE",
"51 775 OFFCURVE",
"53 773 CURVE SMOOTH",
"86 750 OFFCURVE",
"150 654 OFFCURVE",
"165 619 CURVE SMOOTH",
"171 605 OFFCURVE",
"174 600 OFFCURVE",
"180 600 CURVE SMOOTH",
"186 600 OFFCURVE",
"187 605 OFFCURVE",
"201 627 CURVE SMOOTH",
"230 673 OFFCURVE",
"259 720 OFFCURVE",
"289 760 CURVE SMOOTH",
"317 798 OFFCURVE",
"326 802 OFFCURVE",
"326 809 CURVE SMOOTH",
"326 812 OFFCURVE",
"322 817 OFFCURVE",
"317 817 CURVE",
"313 816 OFFCURVE",
"309 819 OFFCURVE",
"277 783 CURVE SMOOTH",
"257 760 OFFCURVE",
"231 725 OFFCURVE",
"207 690 CURVE"
);
}
);
width = 0;
}
);
unicode = 1E949;
script = adlam;
category = Mark;
subCategory = Nonspacing;
},
{
glyphname = nukta_adlam;
production = uni1E94A;
lastChange = "2017-01-05 17:36:54 +0000";
layers = (
{
anchors = (
{
name = _top;
position = "{99, 580}";
}
);
layerId = "E766B743-DB28-463C-9986-895181A4C6C0";
paths = (
{
closed = 1;
nodes = (
"161 657 OFFCURVE",
"134 707 OFFCURVE",
"117 709 CURVE",
"108 705 OFFCURVE",
"44 670 OFFCURVE",
"43 664 CURVE",
"43 656 OFFCURVE",
"84 610 OFFCURVE",
"87 602 CURVE",
"96 602 OFFCURVE",
"161 633 OFFCURVE",
"161 647 CURVE"
);
}
);
width = 0;
}
);
unicode = 1E94A;
script = adlam;
category = Mark;
subCategory = Nonspacing;
},
{
glyphname = nuktabelow_adlam;
production = uni1E94A.alt;
lastChange = "2017-01-05 17:36:54 +0000";
layers = (
{
anchors = (
{
name = _btm;
position = "{99, -45}";
}
);
layerId = "E766B743-DB28-463C-9986-895181A4C6C0";
paths = (
{
closed = 1;
nodes = (
"161 -143 OFFCURVE",
"134 -93 OFFCURVE",
"117 -91 CURVE",
"108 -95 OFFCURVE",
"44 -130 OFFCURVE",
"43 -136 CURVE",
"43 -144 OFFCURVE",
"84 -190 OFFCURVE",
"87 -198 CURVE",
"108 -193 OFFCURVE",
"161 -165 OFFCURVE",
"161 -153 CURVE"
);
}
);
width = 0;
}
);
},
{
glyphname = zero_adlam;
lastChange = "2017-01-05 17:36:54 +0000";
layers = (
{
layerId = "E766B743-DB28-463C-9986-895181A4C6C0";
paths = (
{
closed = 1;
nodes = (
"554 476 LINE SMOOTH",
"554 628 OFFCURVE",
"456 665 OFFCURVE",
"376 665 CURVE SMOOTH",
"236 665 OFFCURVE",
"80 531 OFFCURVE",
"80 420 CURVE SMOOTH",
"80 176 LINE SMOOTH",
"80 64 OFFCURVE",
"124 -15 OFFCURVE",
"228 -15 CURVE SMOOTH",
"300 -15 OFFCURVE",
"443 158 OFFCURVE",
"443 214 CURVE SMOOTH",
"443 231 OFFCURVE",
"443 241 OFFCURVE",
"430 241 CURVE SMOOTH",
"423 241 OFFCURVE",
"414 237 OFFCURVE",
"404 234 CURVE SMOOTH",
"374 224 LINE SMOOTH",
"355 218 OFFCURVE",
"345 215 OFFCURVE",
"345 206 CURVE SMOOTH",
"345 199 OFFCURVE",
"351 195 OFFCURVE",
"351 166 CURVE SMOOTH",
"351 144 OFFCURVE",
"338 61 OFFCURVE",
"246 61 CURVE SMOOTH",
"206 61 OFFCURVE",
"160 79 OFFCURVE",
"160 209 CURVE SMOOTH",
"160 448 LINE SMOOTH",
"160 564 OFFCURVE",
"243 597 OFFCURVE",
"336 597 CURVE SMOOTH",
"410 597 OFFCURVE",
"474 570 OFFCURVE",
"474 465 CURVE SMOOTH",
"474 171 LINE SMOOTH",
"474 20 OFFCURVE",
"423 4 OFFCURVE",
"423 -26 CURVE SMOOTH",
"423 -33 OFFCURVE",
"427 -35 OFFCURVE",
"432 -35 CURVE SMOOTH",
"440 -35 OFFCURVE",
"454 -20 OFFCURVE",
"476 5 CURVE SMOOTH",
"513 47 OFFCURVE",
"554 124 OFFCURVE",
"554 253 CURVE"
);
}
);
width = 634;
}
);
unicode = 1E950;
category = Number;
subCategory = "Decimal Digit";
},
{
glyphname = one_adlam;
lastChange = "2017-01-05 17:36:54 +0000";
layers = (
{
layerId = "E766B743-DB28-463C-9986-895181A4C6C0";
paths = (
{
closed = 1;
nodes = (
"122 67 LINE SMOOTH",
"122 -2 OFFCURVE",
"136 -15 OFFCURVE",
"151 -15 CURVE SMOOTH",
"157 -15 OFFCURVE",
"170 -9 OFFCURVE",
"184 -1 CURVE SMOOTH",
"217 18 LINE SMOOTH",
"232 27 OFFCURVE",
"244 32 OFFCURVE",
"244 40 CURVE SMOOTH",
"244 59 OFFCURVE",
"202 42 OFFCURVE",
"202 134 CURVE SMOOTH",
"202 583 LINE SMOOTH",
"202 652 OFFCURVE",
"188 665 OFFCURVE",
"173 665 CURVE SMOOTH",
"167 665 OFFCURVE",
"154 659 OFFCURVE",
"140 651 CURVE SMOOTH",
"107 632 LINE SMOOTH",
"92 623 OFFCURVE",
"80 618 OFFCURVE",
"80 610 CURVE SMOOTH",
"80 591 OFFCURVE",
"122 608 OFFCURVE",
"122 516 CURVE SMOOTH"
);
}
);
width = 324;
}
);
unicode = 1E951;
},
{
glyphname = two_adlam;
lastChange = "2017-01-05 17:36:54 +0000";
layers = (
{
layerId = "E766B743-DB28-463C-9986-895181A4C6C0";
paths = (
{
closed = 1;
nodes = (
"66 357 OFFCURVE",
"89 374 OFFCURVE",
"112 395 CURVE",
"127 401 OFFCURVE",
"145 406 OFFCURVE",
"165 406 CURVE SMOOTH",
"194 406 OFFCURVE",
"216 383 OFFCURVE",
"216 320 CURVE SMOOTH",
"216 85 LINE SMOOTH",
"216 16 OFFCURVE",
"252 -15 OFFCURVE",
"267 -15 CURVE SMOOTH",
"273 -15 OFFCURVE",
"285 -6 OFFCURVE",
"297 4 CURVE SMOOTH",
"311 16 LINE SMOOTH",
"324 27 OFFCURVE",
"335 35 OFFCURVE",
"335 43 CURVE SMOOTH",
"335 62 OFFCURVE",
"296 42 OFFCURVE",
"296 134 CURVE SMOOTH",
"296 329 LINE SMOOTH",
"296 430 OFFCURVE",
"242 448 OFFCURVE",
"208 448 CURVE SMOOTH",
"193 448 OFFCURVE",
"175 444 OFFCURVE",
"157 438 CURVE",
"228 510 OFFCURVE",
"291 597 OFFCURVE",
"291 644 CURVE SMOOTH",
"291 660 OFFCURVE",
"282 665 OFFCURVE",
"272 665 CURVE SMOOTH",
"263 665 OFFCURVE",
"253 661 OFFCURVE",
"246 659 CURVE SMOOTH",
"203 648 LINE",
"189 644 OFFCURVE",
"180 637 OFFCURVE",
"180 625 CURVE SMOOTH",
"180 622 OFFCURVE",
"183 612 OFFCURVE",
"183 597 CURVE SMOOTH",
"183 557 OFFCURVE",
"161 477 OFFCURVE",
"34 374 CURVE SMOOTH",
"26 368 OFFCURVE",
"20 362 OFFCURVE",
"20 357 CURVE SMOOTH",
"20 353 OFFCURVE",
"24 342 OFFCURVE",
"35 342 CURVE SMOOTH",
"38 342 OFFCURVE",
"42 343 OFFCURVE",
"46 345 CURVE SMOOTH"
);
}
);
width = 385;
}
);
unicode = 1E952;
},
{
glyphname = three_adlam;
lastChange = "2017-01-05 17:36:54 +0000";
layers = (
{
layerId = "E766B743-DB28-463C-9986-895181A4C6C0";
paths = (
{
closed = 1;
nodes = (
"498 583 LINE SMOOTH",
"498 652 OFFCURVE",
"484 665 OFFCURVE",
"469 665 CURVE SMOOTH",
"463 665 OFFCURVE",
"450 659 OFFCURVE",
"436 651 CURVE SMOOTH",
"403 632 LINE SMOOTH",
"388 623 OFFCURVE",
"376 618 OFFCURVE",
"376 610 CURVE SMOOTH",
"376 591 OFFCURVE",
"418 608 OFFCURVE",
"418 516 CURVE SMOOTH",
"418 486 LINE SMOOTH",
"418 365 OFFCURVE",
"376 343 OFFCURVE",
"287 343 CURVE SMOOTH",
"168 343 OFFCURVE",
"160 398 OFFCURVE",
"160 450 CURVE SMOOTH",
"160 583 LINE SMOOTH",
"160 652 OFFCURVE",
"146 665 OFFCURVE",
"131 665 CURVE SMOOTH",
"125 665 OFFCURVE",
"112 659 OFFCURVE",
"98 651 CURVE SMOOTH",
"65 632 LINE SMOOTH",
"50 623 OFFCURVE",
"38 618 OFFCURVE",
"38 610 CURVE SMOOTH",
"38 591 OFFCURVE",
"80 608 OFFCURVE",
"80 516 CURVE SMOOTH",
"80 424 LINE SMOOTH",
"80 363 OFFCURVE",
"109 303 OFFCURVE",
"179 281 CURVE",
"110 244 OFFCURVE",
"60 198 OFFCURVE",
"60 119 CURVE SMOOTH",
"60 5 OFFCURVE",
"178 0 OFFCURVE",
"289 0 CURVE SMOOTH",
"405 0 LINE",
"427 2 OFFCURVE",
"444 7 OFFCURVE",
"452 22 CURVE SMOOTH",
"467 49 LINE SMOOTH",
"470 54 OFFCURVE",
"484 74 OFFCURVE",
"484 85 CURVE SMOOTH",
"484 90 OFFCURVE",
"482 93 OFFCURVE",
"475 93 CURVE SMOOTH",
"453 93 OFFCURVE",
"451 75 OFFCURVE",
"405 75 CURVE SMOOTH",
"303 75 LINE SMOOTH",
"179 75 OFFCURVE",
"144 87 OFFCURVE",
"144 150 CURVE SMOOTH",
"144 207 OFFCURVE",
"178 241 OFFCURVE",
"247 271 CURVE",
"407 271 OFFCURVE",
"498 407 OFFCURVE",
"498 517 CURVE SMOOTH"
);
}
);
width = 558;
}
);
unicode = 1E953;
},
{
glyphname = four_adlam;
lastChange = "2017-01-05 17:36:54 +0000";
layers = (
{
layerId = "E766B743-DB28-463C-9986-895181A4C6C0";
paths = (
{
closed = 1;
nodes = (
"198 75 LINE SMOOTH",
"132 75 OFFCURVE",
"121 92 OFFCURVE",
"121 147 CURVE SMOOTH",
"121 202 OFFCURVE",
"169 232 OFFCURVE",
"201 250 CURVE SMOOTH",
"340 329 LINE SMOOTH",
"425 377 OFFCURVE",
"485 389 OFFCURVE",
"485 447 CURVE SMOOTH",
"485 456 OFFCURVE",
"483 459 OFFCURVE",
"475 459 CURVE SMOOTH",
"472 459 OFFCURVE",
"466 459 OFFCURVE",
"461 458 CURVE SMOOTH",
"436 455 LINE SMOOTH",
"423 453 OFFCURVE",
"412 453 OFFCURVE",
"412 441 CURVE SMOOTH",
"412 406 OFFCURVE",
"382 390 OFFCURVE",
"334 363 CURVE SMOOTH",
"300 344 LINE",
"300 583 LINE SMOOTH",
"300 652 OFFCURVE",
"286 665 OFFCURVE",
"271 665 CURVE SMOOTH",
"265 665 OFFCURVE",
"252 659 OFFCURVE",
"238 651 CURVE SMOOTH",
"205 632 LINE SMOOTH",
"190 623 OFFCURVE",
"178 618 OFFCURVE",
"178 610 CURVE SMOOTH",
"178 591 OFFCURVE",
"220 608 OFFCURVE",
"220 516 CURVE SMOOTH",
"220 299 LINE",
"169 271 LINE SMOOTH",
"110 238 OFFCURVE",
"40 189 OFFCURVE",
"40 111 CURVE SMOOTH",
"40 32 OFFCURVE",
"75 0 OFFCURVE",
"164 0 CURVE SMOOTH",
"415 0 LINE",
"437 2 OFFCURVE",
"454 7 OFFCURVE",
"462 22 CURVE SMOOTH",
"477 49 LINE SMOOTH",
"480 54 OFFCURVE",
"494 74 OFFCURVE",
"494 85 CURVE SMOOTH",
"494 90 OFFCURVE",
"492 93 OFFCURVE",
"485 93 CURVE SMOOTH",
"463 93 OFFCURVE",
"461 75 OFFCURVE",
"415 75 CURVE"
);
}
);
width = 544;
}
);
unicode = 1E954;
},
{
glyphname = five_adlam;
lastChange = "2017-01-05 17:36:54 +0000";
layers = (
{
layerId = "E766B743-DB28-463C-9986-895181A4C6C0";
paths = (
{
closed = 1;
nodes = (
"296 653 OFFCURVE",
"246 665 OFFCURVE",
"235 665 CURVE SMOOTH",
"212 665 OFFCURVE",
"180 621 OFFCURVE",
"180 618 CURVE SMOOTH",
"180 609 OFFCURVE",
"230 601 OFFCURVE",
"257 596 CURVE",
"218 507 OFFCURVE",
"162 460 OFFCURVE",
"113 401 CURVE",
"95 386 OFFCURVE",
"60 358 OFFCURVE",
"60 351 CURVE SMOOTH",
"60 343 OFFCURVE",
"65 332 OFFCURVE",
"80 327 CURVE SMOOTH",
"140 305 OFFCURVE",
"190 280 OFFCURVE",
"239 252 CURVE",
"152 199 OFFCURVE",
"99 148 OFFCURVE",
"99 99 CURVE SMOOTH",
"99 37 OFFCURVE",
"137 -15 OFFCURVE",
"225 -15 CURVE SMOOTH",
"321 -15 OFFCURVE",
"394 40 OFFCURVE",
"461 113 CURVE SMOOTH",
"525 183 OFFCURVE",
"582 240 OFFCURVE",
"582 265 CURVE SMOOTH",
"582 275 OFFCURVE",
"575 279 OFFCURVE",
"567 279 CURVE SMOOTH",
"551 279 OFFCURVE",
"491 271 OFFCURVE",
"491 257 CURVE SMOOTH",
"491 131 OFFCURVE",
"382 63 OFFCURVE",
"274 63 CURVE SMOOTH",
"230 63 OFFCURVE",
"172 80 OFFCURVE",
"172 121 CURVE SMOOTH",
"172 151 OFFCURVE",
"197 186 OFFCURVE",
"273 233 CURVE",
"274 232 OFFCURVE",
"275 231 OFFCURVE",
"276 231 CURVE",
"290 243 LINE",
"338 271 OFFCURVE",
"403 303 OFFCURVE",
"489 341 CURVE",
"494 335 OFFCURVE",
"499 333 OFFCURVE",
"503 333 CURVE SMOOTH",
"509 333 OFFCURVE",
"514 337 OFFCURVE",
"518 341 CURVE SMOOTH",
"551 366 LINE SMOOTH",
"558 372 OFFCURVE",
"562 377 OFFCURVE",
"562 382 CURVE SMOOTH",
"562 387 OFFCURVE",
"557 391 OFFCURVE",
"551 400 CURVE SMOOTH",
"483 506 OFFCURVE",
"386 599 OFFCURVE",
"344 632 CURVE",
"343 638 OFFCURVE",
"335 643 OFFCURVE",
"319 647 CURVE SMOOTH"
);
},
{
closed = 1;
nodes = (
"357 516 OFFCURVE",
"424 443 OFFCURVE",
"472 369 CURVE",
"418 345 OFFCURVE",
"367 322 OFFCURVE",
"322 299 CURVE",
"270 331 OFFCURVE",
"221 359 OFFCURVE",
"149 394 CURVE",
"212 448 OFFCURVE",
"265 498 OFFCURVE",
"307 557 CURVE"
);
}
);
width = 632;
}
);
unicode = 1E955;
},
{
glyphname = six_adlam;
lastChange = "2017-01-05 17:36:54 +0000";
layers = (
{
layerId = "E766B743-DB28-463C-9986-895181A4C6C0";
paths = (
{
closed = 1;
nodes = (
"445 0 LINE SMOOTH",
"445 -69 OFFCURVE",
"481 -100 OFFCURVE",
"496 -100 CURVE SMOOTH",
"502 -100 OFFCURVE",
"514 -91 OFFCURVE",
"526 -81 CURVE SMOOTH",
"540 -69 LINE SMOOTH",
"553 -58 OFFCURVE",
"564 -50 OFFCURVE",
"564 -42 CURVE SMOOTH",
"564 -23 OFFCURVE",
"525 -43 OFFCURVE",
"525 49 CURVE SMOOTH",
"525 264 LINE SMOOTH",
"525 375 OFFCURVE",
"449 405 OFFCURVE",
"368 409 CURVE",
"450 436 OFFCURVE",
"523 460 OFFCURVE",
"523 539 CURVE SMOOTH",
"523 610 OFFCURVE",
"452 665 OFFCURVE",
"329 665 CURVE SMOOTH",
"216 665 OFFCURVE",
"120 616 OFFCURVE",
"120 540 CURVE SMOOTH",
"120 535 OFFCURVE",
"121 527 OFFCURVE",
"128 527 CURVE SMOOTH",
"135 527 OFFCURVE",
"139 528 OFFCURVE",
"149 531 CURVE SMOOTH",
"177 540 LINE SMOOTH",
"187 543 OFFCURVE",
"175 554 OFFCURVE",
"200 571 CURVE SMOOTH",
"220 584 OFFCURVE",
"255 595 OFFCURVE",
"295 595 CURVE SMOOTH",
"426 595 OFFCURVE",
"433 548 OFFCURVE",
"433 513 CURVE SMOOTH",
"433 423 OFFCURVE",
"60 398 OFFCURVE",
"60 157 CURVE SMOOTH",
"60 84 OFFCURVE",
"103 -12 OFFCURVE",
"220 -12 CURVE SMOOTH",
"250 -12 OFFCURVE",
"277 16 OFFCURVE",
"290 33 CURVE SMOOTH",
"333 92 OFFCURVE",
"373 149 OFFCURVE",
"373 203 CURVE SMOOTH",
"373 230 OFFCURVE",
"370 291 OFFCURVE",
"333 291 CURVE SMOOTH",
"326 291 OFFCURVE",
"316 288 OFFCURVE",
"309 286 CURVE",
"281 274 LINE SMOOTH",
"265 267 OFFCURVE",
"258 261 OFFCURVE",
"258 251 CURVE SMOOTH",
"258 233 OFFCURVE",
"303 221 OFFCURVE",
"303 156 CURVE SMOOTH",
"303 98 OFFCURVE",
"284 60 OFFCURVE",
"239 60 CURVE SMOOTH",
"185 60 OFFCURVE",
"147 89 OFFCURVE",
"147 176 CURVE SMOOTH",
"147 275 OFFCURVE",
"193 328 OFFCURVE",
"253 362 CURVE",
"268 364 OFFCURVE",
"284 365 OFFCURVE",
"300 365 CURVE SMOOTH",
"369 365 OFFCURVE",
"445 342 OFFCURVE",
"445 255 CURVE"
);
}
);
width = 609;
}
);
unicode = 1E956;
},
{
glyphname = seven_adlam;
lastChange = "2017-01-05 17:36:54 +0000";
layers = (
{
layerId = "E766B743-DB28-463C-9986-895181A4C6C0";
paths = (
{
closed = 1;
nodes = (
"520 189 OFFCURVE",
"434 262 OFFCURVE",
"347 330 CURVE",
"435 386 OFFCURVE",
"519 449 OFFCURVE",
"519 535 CURVE SMOOTH",
"519 590 OFFCURVE",
"490 665 OFFCURVE",
"327 665 CURVE SMOOTH",
"211 665 OFFCURVE",
"82 577 OFFCURVE",
"82 509 CURVE SMOOTH",
"82 429 OFFCURVE",
"157 369 OFFCURVE",
"238 309 CURVE",
"140 244 OFFCURVE",
"60 184 OFFCURVE",
"60 104 CURVE SMOOTH",
"60 37 OFFCURVE",
"123 -13 OFFCURVE",
"137 -13 CURVE SMOOTH",
"141 -13 OFFCURVE",
"147 -4 OFFCURVE",
"155 7 CURVE",
"179 38 LINE SMOOTH",
"183 43 OFFCURVE",
"194 57 OFFCURVE",
"194 65 CURVE SMOOTH",
"194 84 OFFCURVE",
"139 65 OFFCURVE",
"139 146 CURVE SMOOTH",
"139 196 OFFCURVE",
"199 239 OFFCURVE",
"272 284 CURVE",
"358 219 OFFCURVE",
"441 151 OFFCURVE",
"441 54 CURVE SMOOTH",
"441 45 OFFCURVE",
"440 37 OFFCURVE",
"439 29 CURVE",
"433 8 OFFCURVE",
"426 -13 OFFCURVE",
"416 -29 CURVE SMOOTH",
"413 -34 OFFCURVE",
"413 -38 OFFCURVE",
"413 -40 CURVE SMOOTH",
"413 -41 OFFCURVE",
"415 -51 OFFCURVE",
"426 -51 CURVE SMOOTH",
"432 -51 OFFCURVE",
"437 -48 OFFCURVE",
"442 -43 CURVE SMOOTH",
"457 -25 OFFCURVE",
"472 -6 OFFCURVE",
"485 15 CURVE",
"506 44 OFFCURVE",
"520 78 OFFCURVE",
"520 106 CURVE SMOOTH"
);
},
{
closed = 1;
nodes = (
"171 563 OFFCURVE",
"208 596 OFFCURVE",
"304 596 CURVE SMOOTH",
"404 596 OFFCURVE",
"432 558 OFFCURVE",
"432 510 CURVE SMOOTH",
"432 449 OFFCURVE",
"425 432 OFFCURVE",
"312 357 CURVE",
"237 415 OFFCURVE",
"171 469 OFFCURVE",
"171 523 CURVE SMOOTH"
);
}
);
width = 580;
}
);
unicode = 1E957;
},
{
glyphname = eight_adlam;
lastChange = "2017-01-05 17:36:54 +0000";
layers = (
{
layerId = "E766B743-DB28-463C-9986-895181A4C6C0";
paths = (
{
closed = 1;
nodes = (
"573 660 OFFCURVE",
"562 665 OFFCURVE",
"552 665 CURVE SMOOTH",
"544 665 OFFCURVE",
"460 635 OFFCURVE",
"458 629 CURVE SMOOTH",
"441 568 OFFCURVE",
"408 522 OFFCURVE",
"368 483 CURVE",
"246 567 LINE SMOOTH",
"220 585 OFFCURVE",
"185 603 OFFCURVE",
"164 626 CURVE SMOOTH",
"152 639 OFFCURVE",
"148 658 OFFCURVE",
"133 658 CURVE SMOOTH",
"123 658 OFFCURVE",
"114 649 OFFCURVE",
"94 629 CURVE SMOOTH",
"77 612 OFFCURVE",
"60 596 OFFCURVE",
"60 590 CURVE SMOOTH",
"60 585 OFFCURVE",
"61 577 OFFCURVE",
"67 574 CURVE SMOOTH",
"177 517 OFFCURVE",
"226 488 OFFCURVE",
"308 430 CURVE",
"219 360 OFFCURVE",
"126 291 OFFCURVE",
"126 150 CURVE SMOOTH",
"126 49 OFFCURVE",
"210 -15 OFFCURVE",
"327 -15 CURVE SMOOTH",
"394 -15 OFFCURVE",
"493 61 OFFCURVE",
"493 88 CURVE SMOOTH",
"493 95 OFFCURVE",
"490 96 OFFCURVE",
"486 96 CURVE SMOOTH",
"474 96 OFFCURVE",
"445 66 OFFCURVE",
"336 66 CURVE SMOOTH",
"267 66 OFFCURVE",
"207 87 OFFCURVE",
"207 187 CURVE SMOOTH",
"207 282 OFFCURVE",
"269 345 OFFCURVE",
"343 404 CURVE",
"378 380 LINE SMOOTH",
"482 308 OFFCURVE",
"508 215 OFFCURVE",
"508 136 CURVE SMOOTH",
"508 100 OFFCURVE",
"497 50 OFFCURVE",
"470 7 CURVE SMOOTH",
"467 2 OFFCURVE",
"465 -2 OFFCURVE",
"465 -4 CURVE SMOOTH",
"465 -5 OFFCURVE",
"467 -15 OFFCURVE",
"478 -15 CURVE SMOOTH",
"484 -15 OFFCURVE",
"487 -12 OFFCURVE",
"492 -7 CURVE SMOOTH",
"537 44 OFFCURVE",
"576 112 OFFCURVE",
"576 171 CURVE SMOOTH",
"576 260 OFFCURVE",
"550 359 OFFCURVE",
"409 455 CURVE",
"476 507 OFFCURVE",
"540 561 OFFCURVE",
"570 637 CURVE SMOOTH",
"572 643 OFFCURVE",
"573 647 OFFCURVE",
"573 651 CURVE SMOOTH"
);
}
);
width = 636;
}
);
unicode = 1E958;
},
{
glyphname = nine_adlam;
lastChange = "2017-01-05 17:36:54 +0000";
layers = (
{
layerId = "E766B743-DB28-463C-9986-895181A4C6C0";
paths = (
{
closed = 1;
nodes = (
"177 414 OFFCURVE",
"492 349 OFFCURVE",
"492 542 CURVE SMOOTH",
"492 602 OFFCURVE",
"437 665 OFFCURVE",
"314 665 CURVE SMOOTH",
"166 665 OFFCURVE",
"60 538 OFFCURVE",
"60 468 CURVE SMOOTH",
"60 376 OFFCURVE",
"143 344 OFFCURVE",
"192 344 CURVE SMOOTH",
"199 344 OFFCURVE",
"204 344 OFFCURVE",
"209 346 CURVE",
"146 301 OFFCURVE",
"92 244 OFFCURVE",
"92 161 CURVE SMOOTH",
"92 77 OFFCURVE",
"145 -15 OFFCURVE",
"265 -15 CURVE SMOOTH",
"281 -15 OFFCURVE",
"291 -1 OFFCURVE",
"297 12 CURVE SMOOTH",
"314 49 LINE SMOOTH",
"316 55 OFFCURVE",
"327 75 OFFCURVE",
"327 86 CURVE SMOOTH",
"327 91 OFFCURVE",
"325 93 OFFCURVE",
"320 93 CURVE SMOOTH",
"318 93 OFFCURVE",
"315 93 OFFCURVE",
"311 91 CURVE SMOOTH",
"304 88 OFFCURVE",
"286 81 OFFCURVE",
"265 81 CURVE SMOOTH",
"196 81 OFFCURVE",
"177 126 OFFCURVE",
"177 179 CURVE SMOOTH"
);
},
{
closed = 1;
nodes = (
"134 558 OFFCURVE",
"176 595 OFFCURVE",
"265 595 CURVE SMOOTH",
"390 595 OFFCURVE",
"402 540 OFFCURVE",
"402 505 CURVE SMOOTH",
"402 462 OFFCURVE",
"345 425 OFFCURVE",
"279 391 CURVE",
"207 397 OFFCURVE",
"134 419 OFFCURVE",
"134 504 CURVE SMOOTH"
);
}
);
width = 552;
}
);
unicode = 1E959;
},
{
glyphname = exclam_adlam;
lastChange = "2017-01-05 17:36:54 +0000";
layers = (
{
anchors = (
{
name = btm;
position = "{354, -45}";
},
{
name = top;
position = "{354, 755}";
}
);
layerId = "E766B743-DB28-463C-9986-895181A4C6C0";
paths = (
{
closed = 1;
nodes = (
"43 632 OFFCURVE",
"88 645 OFFCURVE",
"121 645 CURVE SMOOTH",
"290 645 LINE",
"290 493 LINE",
"187 458 OFFCURVE",
"80 360 OFFCURVE",
"80 251 CURVE SMOOTH",
"80 67 LINE SMOOTH",
"80 -2 OFFCURVE",
"94 -15 OFFCURVE",
"109 -15 CURVE SMOOTH",
"115 -15 OFFCURVE",
"128 -9 OFFCURVE",
"142 -1 CURVE SMOOTH",
"175 18 LINE SMOOTH",
"190 27 OFFCURVE",
"202 32 OFFCURVE",
"202 40 CURVE SMOOTH",
"202 59 OFFCURVE",
"160 42 OFFCURVE",
"160 134 CURVE SMOOTH",
"160 248 LINE SMOOTH",
"160 348 OFFCURVE",
"186 426 OFFCURVE",
"290 443 CURVE",
"290 67 LINE SMOOTH",
"290 -2 OFFCURVE",
"304 -15 OFFCURVE",
"319 -15 CURVE SMOOTH",
"325 -15 OFFCURVE",
"338 -9 OFFCURVE",
"352 -1 CURVE SMOOTH",
"385 18 LINE SMOOTH",
"400 27 OFFCURVE",
"412 32 OFFCURVE",
"412 40 CURVE SMOOTH",
"412 59 OFFCURVE",
"370 42 OFFCURVE",
"370 134 CURVE SMOOTH",
"370 445 LINE",
"466 434 OFFCURVE",
"497 375 OFFCURVE",
"497 299 CURVE SMOOTH",
"497 107 LINE SMOOTH",
"497 -19 OFFCURVE",
"476 -102 OFFCURVE",
"424 -149 CURVE SMOOTH",
"420 -153 OFFCURVE",
"418 -156 OFFCURVE",
"418 -159 CURVE SMOOTH",
"418 -165 OFFCURVE",
"422 -175 OFFCURVE",
"432 -175 CURVE SMOOTH",
"436 -175 OFFCURVE",
"442 -173 OFFCURVE",
"445 -170 CURVE SMOOTH",
"532 -94 OFFCURVE",
"577 26 OFFCURVE",
"577 138 CURVE SMOOTH",
"577 294 LINE SMOOTH",
"577 419 OFFCURVE",
"543 507 OFFCURVE",
"370 508 CURVE",
"370 645 LINE",
"424 645 LINE SMOOTH",
"565 645 OFFCURVE",
"659 741 OFFCURVE",
"659 752 CURVE SMOOTH",
"659 758 OFFCURVE",
"659 764 OFFCURVE",
"654 764 CURVE SMOOTH",
"640 764 OFFCURVE",
"603 720 OFFCURVE",
"484 720 CURVE SMOOTH",
"108 720 LINE SMOOTH",
"80 720 OFFCURVE",
"70 709 OFFCURVE",
"58 694 CURVE SMOOTH",
"26 654 LINE SMOOTH",
"22 649 OFFCURVE",
"20 644 OFFCURVE",
"20 641 CURVE SMOOTH",
"20 635 OFFCURVE",
"26 632 OFFCURVE",
"37 632 CURVE SMOOTH"
);
}
);
width = 679;
}
);
unicode = 1E95E;
},
{
glyphname = question_adlam;
lastChange = "2017-01-05 17:36:54 +0000";
layers = (
{
anchors = (
{
name = btm;
position = "{354, -45}";
},
{
name = top;
position = "{354, 755}";
}
);
layerId = "E766B743-DB28-463C-9986-895181A4C6C0";
paths = (
{
closed = 1;
nodes = (
"171 -14 LINE SMOOTH",
"183 -7 OFFCURVE",
"192 -1 OFFCURVE",
"192 5 CURVE SMOOTH",
"192 16 OFFCURVE",
"175 16 OFFCURVE",
"166 34 CURVE SMOOTH",
"155 57 OFFCURVE",
"151 82 OFFCURVE",
"151 106 CURVE SMOOTH",
"151 211 OFFCURVE",
"231 279 OFFCURVE",
"322 337 CURVE",
"322 113 LINE SMOOTH",
"322 16 OFFCURVE",
"356 5 OFFCURVE",
"410 -12 CURVE SMOOTH",
"483 -35 OFFCURVE",
"493 -72 OFFCURVE",
"493 -110 CURVE SMOOTH",
"493 -134 OFFCURVE",
"481 -152 OFFCURVE",
"481 -161 CURVE SMOOTH",
"481 -167 OFFCURVE",
"483 -170 OFFCURVE",
"489 -170 CURVE SMOOTH",
"498 -170 OFFCURVE",
"503 -161 OFFCURVE",
"511 -150 CURVE SMOOTH",
"535 -117 LINE SMOOTH",
"552 -93 OFFCURVE",
"558 -66 OFFCURVE",
"558 -48 CURVE SMOOTH",
"558 14 OFFCURVE",
"513 38 OFFCURVE",
"469 52 CURVE SMOOTH",
"423 67 OFFCURVE",
"402 75 OFFCURVE",
"402 130 CURVE SMOOTH",
"402 386 LINE",
"492 441 OFFCURVE",
"572 495 OFFCURVE",
"572 578 CURVE SMOOTH",
"572 679 OFFCURVE",
"457 735 OFFCURVE",
"355 735 CURVE SMOOTH",
"173 735 OFFCURVE",
"50 610 OFFCURVE",
"50 526 CURVE SMOOTH",
"50 459 OFFCURVE",
"109 402 OFFCURVE",
"126 402 CURVE SMOOTH",
"131 402 OFFCURVE",
"137 404 OFFCURVE",
"143 411 CURVE SMOOTH",
"171 444 LINE SMOOTH",
"178 453 OFFCURVE",
"181 457 OFFCURVE",
"181 461 CURVE SMOOTH",
"181 473 OFFCURVE",
"130 491 OFFCURVE",
"130 566 CURVE SMOOTH",
"130 610 OFFCURVE",
"183 665 OFFCURVE",
"291 665 CURVE SMOOTH",
"302 665 OFFCURVE",
"312 665 OFFCURVE",
"322 664 CURVE",
"322 377 LINE",
"205 305 OFFCURVE",
"67 229 OFFCURVE",
"67 95 CURVE SMOOTH",
"67 61 OFFCURVE",
"74 24 OFFCURVE",
"91 -9 CURVE SMOOTH",
"99 -24 OFFCURVE",
"108 -40 OFFCURVE",
"120 -40 CURVE SMOOTH",
"124 -40 OFFCURVE",
"129 -37 OFFCURVE",
"135 -34 CURVE SMOOTH"
);
},
{
closed = 1;
nodes = (
"482 511 OFFCURVE",
"449 470 OFFCURVE",
"402 432 CURVE",
"402 652 LINE",
"459 636 OFFCURVE",
"482 604 OFFCURVE",
"482 562 CURVE SMOOTH"
);
}
);
width = 622;
}
);
unicode = 1E95F;
},
{
glyphname = kashida_ar;
lastChange = "2017-01-05 17:36:54 +0000";
layers = (
{
layerId = "E766B743-DB28-463C-9986-895181A4C6C0";
paths = (
{
closed = 1;
nodes = (
"245 75 LINE",
"-40 75 LINE",
"-40 0 LINE",
"245 0 LINE"
);
}
);
width = 245;
}
);
unicode = 0640;
script = arabic;
subCategory = Other;
},
{
export = 0;
glyphname = bar.init;
lastChange = "2017-01-05 17:36:54 +0000";
layers = (
{
layerId = "E766B743-DB28-463C-9986-895181A4C6C0";
paths = (
{
closed = 1;
nodes = (
"245 75 LINE",
"-40 75 LINE",
"-40 0 LINE",
"245 0 LINE"
);
}
);
width = 245;
}
);
},
{
export = 0;
glyphname = bar.altr;
lastChange = "2017-01-05 17:36:54 +0000";
layers = (
{
layerId = "E766B743-DB28-463C-9986-895181A4C6C0";
paths = (
{
closed = 1;
nodes = (
"159 0 LINE",
"159 75 LINE",
"-20 75 LINE",
"-20 32 OFFCURVE",
"24 0 OFFCURVE",
"63 0 CURVE SMOOTH"
);
}
);
width = 159;
}
);
},
{
export = 0;
glyphname = bar.altr2;
lastChange = "2017-01-05 17:36:54 +0000";
layers = (
{
layerId = "E766B743-DB28-463C-9986-895181A4C6C0";
paths = (
{
closed = 1;
nodes = (
"220 0 LINE",
"220 75 LINE",
"-20 75 LINE",
"-20 32 OFFCURVE",
"24 0 OFFCURVE",
"63 0 CURVE SMOOTH"
);
}
);
width = 160;
}
);
},
{
export = 0;
glyphname = bar.end;
lastChange = "2017-01-05 17:36:54 +0000";
layers = (
{
layerId = "E766B743-DB28-463C-9986-895181A4C6C0";
paths = (
{
closed = 1;
nodes = (
"233 75 LINE",
"183 75 LINE SMOOTH",
"144 75 OFFCURVE",
"134 104 OFFCURVE",
"120 104 CURVE SMOOTH",
"113 104 OFFCURVE",
"108 98 OFFCURVE",
"100 88 CURVE SMOOTH",
"57 36 LINE SMOOTH",
"52 30 OFFCURVE",
"48 22 OFFCURVE",
"48 16 CURVE SMOOTH",
"48 7 OFFCURVE",
"56 0 OFFCURVE",
"80 0 CURVE SMOOTH",
"233 0 LINE"
);
}
);
width = 233;
}
);
},
{
export = 0;
glyphname = bar.small;
lastChange = "2017-01-05 17:36:54 +0000";
layers = (
{
layerId = "E766B743-DB28-463C-9986-895181A4C6C0";
paths = (
{
closed = 1;
nodes = (
"-50 0 LINE",
"155 0 LINE",
"155 75 LINE",
"-50 75 LINE"
);
}
);
width = 155;
}
);
},
{
export = 0;
glyphname = bar.small2;
lastChange = "2017-01-05 17:36:54 +0000";
layers = (
{
layerId = "E766B743-DB28-463C-9986-895181A4C6C0";
paths = (
{
closed = 1;
nodes = (
"-50 0 LINE",
"85 0 LINE",
"85 75 LINE",
"-50 75 LINE"
);
}
